<?xml version="1.0" encoding="UTF-8" standalone="no"?><svg xmlns="http://www.w3.org/2000/svg" xmlns:xlink="http://www.w3.org/1999/xlink" fill="#000000" height="90.8" preserveAspectRatio="xMidYMid meet" version="1" viewBox="30.8 2.3 34.5 90.8" width="34.5" zoomAndPan="magnify"><g fill="#378f81" id="change1_1"><path d="M47.646,14.762c-0.112,4.881-0.57,9.752,0.225,14.602c0.02,0.118,0.103,0.156,0.191,0.161 c-0.026,0.205-0.055,0.41-0.081,0.615c-0.04,0.311,0.449,0.308,0.489,0c1.104-8.605,2.235-17.075,1.628-25.773 c-0.047-0.68-0.088-1.223-0.828-1.346c-0.649-0.107-1.261,0.241-1.571,0.804c-0.694,1.263-0.254,3.347-0.2,4.715 C47.582,10.608,47.693,12.689,47.646,14.762z M47.999,8.785c-0.023-0.636-0.51-6.464,1.378-5.235 c0.486,0.317,0.288,2.419,0.307,2.993c0.035,1.083,0.073,2.167,0.106,3.25c0.068,2.219,0.002,4.433-0.173,6.647 c-0.314,3.975-0.871,7.933-1.396,11.888c-0.573-4.332-0.227-8.691-0.101-13.046C48.183,13.115,48.076,10.949,47.999,8.785z"/><path d="M48.882,44.292c0.005,0.001,0.01,0,0.014,0.002C48.885,44.288,48.859,44.288,48.882,44.292z"/><path d="M46.558,60.521c-0.016-0.099-0.078-0.14-0.148-0.157c-0.06-0.276-0.503-0.275-0.475,0.026 c0.509,5.351-0.758,10.588-1.203,15.894c-0.426,5.074-0.136,10.173,0.784,15.178c0.057,0.309,0.527,0.178,0.471-0.13 c-0.943-5.132-1.205-10.364-0.72-15.561c0.153-1.645,0.377-3.283,0.595-4.921c-0.111,1.884-0.146,3.767-0.074,5.66 c0.197,5.138,0.994,10.23,1.787,15.303c0.048,0.31,0.519,0.178,0.471-0.13c-0.841-5.377-1.683-10.777-1.801-16.228 C46.137,70.492,47.338,65.451,46.558,60.521z"/><path d="M50.518,83.707c0.122-2.552,0.053-5.109-0.065-7.661c-0.236-5.109-0.546-10.217-0.823-15.324 c-0.014-0.248-0.314-0.292-0.434-0.146c-0.128-0.084-0.316-0.076-0.354,0.116c-1.018,5.24,0.275,10.436,0.643,15.669 c0.189,2.683-0.066,5.276-0.414,7.934c-0.334,2.552-0.556,5.091,0.08,7.614c0.077,0.305,0.548,0.175,0.471-0.13 c-0.647-2.568-0.37-5.141-0.03-7.731c0.336-2.56,0.56-5.06,0.383-7.642c0.01,0.233,0.025,0.465,0.034,0.698 c0.105,2.639,0.136,5.285-0.061,7.921c-0.153,2.055-0.651,4.163,0.307,6.093c0.14,0.282,0.562,0.035,0.422-0.247 C49.621,88.74,50.41,85.976,50.518,83.707z M49.194,61.663c0.271,4.893,0.573,9.786,0.778,14.681 C49.626,71.446,48.468,66.565,49.194,61.663z"/><path d="M51.662,60.498c-0.008-0.28-0.381-0.296-0.458-0.076c0.01-0.3-0.46-0.297-0.485,0.01 c-0.602,7.449,1.291,14.767,1.884,22.147c-0.083,2.505-0.365,5.004-0.97,7.492c-0.074,0.305,0.396,0.436,0.471,0.13 c0.296-1.218,0.515-2.438,0.673-3.66c0.001,1.272-0.055,2.547-0.189,3.826c-0.033,0.313,0.456,0.31,0.489,0 c0.277-2.633,0.222-5.25,0.009-7.859C53.308,75.191,51.858,67.822,51.662,60.498z M51.186,60.825 c0.178,5.579,1.063,11.187,1.352,16.776C51.79,72.026,50.796,66.462,51.186,60.825z"/><path d="M43.968,61.102c0.025-0.341,0.04-0.682,0.066-1.023c0.021-0.266-0.313-0.291-0.434-0.106 c-0.124,0.026-0.241,0.134-0.217,0.295c0.041,0.273,0.063,0.548,0.097,0.822c-0.748,9.964-0.973,19.959-0.651,29.947 c0.01,0.313,0.499,0.315,0.489,0c-0.053-1.641-0.066-3.282-0.091-4.922c0.193,1.756,0.516,3.504,1.052,5.24 c0.092,0.299,0.564,0.171,0.471-0.13C41.713,81.378,45.15,71.126,43.968,61.102z M43.247,75.66 c0.084-3.693,0.266-7.384,0.496-11.072C43.848,68.269,43.506,71.969,43.247,75.66z"/><path d="M42.188,59.529c-0.003-0.086-0.044-0.144-0.1-0.183c-0.112-0.15-0.418-0.109-0.439,0.14 c-0.215,2.593-0.684,5.146-1.102,7.705c0.113-2.849,0.239-5.698,0.405-8.545c0.007-0.124-0.07-0.184-0.16-0.21 c-0.028-0.252-0.441-0.242-0.474,0.047c-0.594,5.277-1.491,10.63-1.479,15.95c0.013,5.476,1.416,11-0.266,16.368 c-0.094,0.301,0.377,0.43,0.471,0.13c1.642-5.243,0.375-10.629,0.288-15.98c-0.065-3.991,0.42-8.007,0.926-11.994 c-0.149,3.042-0.271,6.084-0.36,9.128c-0.077,0.866-0.137,1.734-0.147,2.609c-0.009,0.769,0.012,1.539,0.022,2.309 c-0.012,0.633-0.039,1.265-0.048,1.898c-0.001,0.083,0.034,0.142,0.084,0.181c0.122,3.74,0.399,7.485,0.582,11.211 c0.015,0.313,0.504,0.314,0.488,0c-0.216-4.417-0.555-8.86-0.617-13.29c0.03-1.639,0.077-3.278,0.125-4.917 c0.255-2.863,0.799-5.686,1.241-8.525c-0.231,3.965-0.844,7.938-0.992,11.895c-0.201,5.369-0.046,10.743,0.43,16.094 c0.028,0.311,0.517,0.314,0.489,0c-0.476-5.351-0.631-10.725-0.43-16.094C41.324,70.155,42.357,64.828,42.188,59.529z"/><path d="M37.792,73.226c0.276-4.525,0.615-9.045,0.992-13.563c0.1-0.673,0.203-1.346,0.31-2.021 c0.019-0.117-0.046-0.196-0.126-0.248c0.004-0.048,0.008-0.096,0.012-0.145c0.027-0.313-0.461-0.312-0.488,0 c-0.069,0.789-0.125,1.579-0.192,2.368c-0.702,4.704-1.232,9.393-1.162,14.174c0.007,0.494,0.023,0.989,0.034,1.483 c-0.308,4.548-0.658,9.16-0.188,13.684c0.032,0.31,0.521,0.313,0.488,0c-0.281-2.709-0.266-5.449-0.145-8.188 c0.122,3.436,0.271,6.872,0.393,10.306c0.011,0.313,0.5,0.315,0.488,0c-0.187-5.281-0.427-10.563-0.544-15.846 C37.708,74.561,37.752,73.892,37.792,73.226z"/><path d="M37.616,56.502c0.023-0.216-0.2-0.271-0.353-0.188c-0.001-0.255-0.39-0.353-0.462-0.071 c-0.647,2.539-0.623,5.14-0.639,7.743c-0.008,1.173-0.015,2.345-0.023,3.518c-0.565,7.398-0.938,14.808-1.162,22.233 c-0.01,0.314,0.479,0.314,0.488,0c0.142-4.721,0.353-9.435,0.621-14.144c-0.032,4.844-0.063,9.689-0.095,14.534 c-0.002,0.314,0.487,0.315,0.489,0c0.036-5.602,0.073-11.203,0.109-16.804c0.013-1.939,0.025-3.878,0.038-5.818 C36.908,63.834,37.221,60.167,37.616,56.502z M37.037,57.448c-0.131,1.257-0.242,2.515-0.36,3.773 C36.716,59.955,36.807,58.693,37.037,57.448z"/><path d="M35.149,72.168c0.01-1.454-0.097-2.903-0.208-4.352c0.486-4.265,1.192-8.507,1.283-12.8 c0.001-0.045-0.025-0.069-0.042-0.101c0.1-0.294-0.367-0.42-0.471-0.127c-0.919,2.612-1.442,5.332-1.487,8.103 c-0.027,1.648,0.102,3.29,0.227,4.932c-0.192,1.684-0.352,3.371-0.422,5.066c-0.08,1.95-0.087,3.9-0.067,5.851 c-0.569,3.662-1.129,7.312-0.115,10.983c0.083,0.302,0.555,0.174,0.471-0.13c-0.727-2.631-0.63-5.256-0.307-7.883 c0.091,3.165,0.259,6.328,0.432,9.488c0.017,0.313,0.506,0.315,0.488,0c-0.227-4.166-0.44-8.337-0.481-12.51 C34.791,76.52,35.134,74.349,35.149,72.168z M34.711,63.665c-0.025-2.399,0.313-4.758,0.954-7.054 c-0.155,2.87-0.531,5.722-0.894,8.577C34.745,64.68,34.716,64.173,34.711,63.665z M34.518,72.889 c0.025-0.6,0.067-1.198,0.111-1.795c0.01,0.358,0.033,0.716,0.031,1.075c-0.006,0.961-0.08,1.92-0.184,2.878 C34.491,74.327,34.488,73.608,34.518,72.889z"/><path d="M54.266,74.364c-0.555-3.126,0.079-5.977,0.551-9.06c0.327-2.135,0.398-4.274-0.327-6.317 c0.002-0.021,0.005-0.041,0.007-0.061c0.012-0.098-0.034-0.153-0.096-0.189c-0.017-0.044-0.029-0.089-0.046-0.132 c-0.117-0.287-0.59-0.162-0.471,0.13c0.043,0.105,0.071,0.212,0.109,0.317c-0.667,5.354-1.195,10.653-0.568,16.04 c0.599,5.148,1.762,10.241,1.444,15.454c-0.018,0.29,0.384,0.299,0.462,0.053c-0.011,0.306,0.467,0.304,0.486-0.006 c0.175-2.81,0.135-5.623-0.165-8.423C55.37,79.526,54.729,76.974,54.266,74.364z M54.337,60.243 c0.723,3.341-0.387,6.818-0.695,10.271C53.609,67.083,53.926,63.671,54.337,60.243z M55.405,88.8 c0.011-4.573-0.943-9.065-1.479-13.603c0.432,2.322,0.984,4.608,1.237,6.972C55.399,84.374,55.469,86.587,55.405,88.8z"/><path d="M59.221,56.863c-0.043-0.429-0.079-0.858-0.139-1.287c-0.035-0.254-0.343-0.204-0.435-0.011 c-0.148-0.276-0.568-0.03-0.421,0.247c0.205,0.385,0.372,0.778,0.522,1.175c0.542,5.376-0.106,10.832,0.13,16.226 c0.252,5.751,0.715,11.498,1.092,17.242c0.021,0.312,0.509,0.314,0.488,0c-0.346-5.282-0.766-10.568-1.02-15.857 c0.352,4.893,0.918,9.78,1.382,14.66c0.029,0.31,0.518,0.313,0.488,0c-0.563-5.93-1.355-11.891-1.584-17.844 C59.542,66.65,60.935,61.43,59.221,56.863z M59.512,63.971c-0.047,0.804-0.096,1.604-0.142,2.402 c0.06-2.234,0.123-4.468,0.047-6.694C59.606,61.087,59.596,62.531,59.512,63.971z"/><path d="M61.91,81.646c0.119-1.423,0.398-2.852,0.503-4.286c0.115-1.575-0.031-3.137-0.271-4.688 c0.018-0.214,0.037-0.427,0.054-0.641c0.228-2.826,0.314-5.673-0.316-8.456c-0.26-1.146-0.606-2.282-0.904-3.422 c0.14-2.006,0.207-4-0.389-5.933c0.016-0.069,0.019-0.137,0.037-0.206c0.042-0.163-0.073-0.268-0.201-0.292 c-0.017-0.045-0.027-0.091-0.045-0.136c-0.042-0.109-0.137-0.144-0.231-0.148c0.075-0.125,0.062-0.309-0.119-0.363 c-3.739-1.135-7.479-2.271-11.219-3.405c-0.059-0.053-0.131-0.084-0.219-0.07c0.006-0.001,0.014-0.002,0.017-0.002 c-0.006,0-0.012,0.001-0.018,0.002l0,0c-0.001,0,0,0,0,0c-0.004,0-0.008,0.001-0.013,0.001c-0.01,0.001-0.021,0.001-0.032,0.002 c0-0.038,0-0.076,0-0.113c0.119,0.008,0.239,0.001,0.356-0.021c0.126-0.024,0.209-0.182,0.171-0.301 c-0.043-0.134-0.166-0.196-0.301-0.17c-0.009,0.001-0.018,0.003-0.027,0.005c-0.019,0.001-0.038,0.004-0.057,0.004 c-0.047,0.002-0.095,0.002-0.142-0.002c0,0-0.001,0-0.001,0c0-0.019,0-0.037,0-0.056c0.112,0.002,0.225-0.009,0.335-0.036 c0.125-0.029,0.21-0.178,0.17-0.3c-0.042-0.13-0.167-0.202-0.3-0.171c-0.021,0.005-0.042,0.01-0.063,0.014 c-0.005,0-0.01,0.001-0.015,0.002c-0.043,0.003-0.086,0.006-0.129,0.005c0-0.042,0-0.083,0-0.125 c0.095,0.001,0.189,0.002,0.284-0.01c0.056-0.007,0.119-0.066,0.146-0.112c0.031-0.052,0.043-0.129,0.024-0.188 s-0.056-0.116-0.112-0.146c-0.062-0.033-0.119-0.034-0.188-0.025c0.061-0.008-0.03,0.001-0.041,0.002 c-0.028,0.002-0.056,0.003-0.084,0.003c-0.009,0-0.021-0.002-0.031-0.002c0-0.051,0-0.102,0-0.153 c0.085,0.007,0.172,0.013,0.257,0.003c0.132-0.016,0.243-0.099,0.244-0.245c0-0.022,0-0.045,0-0.067 c0.001-0.128-0.113-0.25-0.244-0.245c-0.063,0.003-0.118,0.03-0.162,0.069c-0.032,0-0.064,0.003-0.097,0c0-0.037,0-0.074,0-0.11 c0.15,0.016,0.301,0.016,0.448-0.018c0.125-0.027,0.21-0.179,0.17-0.3c-0.042-0.131-0.167-0.2-0.3-0.17 c-0.022,0.005-0.044,0.008-0.066,0.013c-0.008,0-0.016,0.001-0.024,0.002c-0.05,0.004-0.099,0.004-0.149,0.001 c-0.02-0.001-0.041-0.004-0.061-0.005c-0.006-0.001-0.013-0.002-0.02-0.003c0-0.029,0-0.058,0-0.086 c0.048,0.016,0.093,0.04,0.142,0.053c0.123,0.034,0.271-0.042,0.301-0.17c0.029-0.129-0.039-0.264-0.171-0.301 c-0.092-0.025-0.184-0.056-0.273-0.089c0-0.022,0-0.044,0-0.065c0.092,0.023,0.185,0.044,0.279,0.054 c0.127,0.012,0.25-0.121,0.244-0.244c-0.006-0.143-0.107-0.231-0.244-0.245c-0.01-0.001-0.02-0.002-0.03-0.003 c-0.023-0.004-0.047-0.008-0.07-0.013c-0.049-0.01-0.097-0.022-0.145-0.038c-0.012-0.003-0.024-0.008-0.036-0.012 c0-0.065,0-0.13,0-0.195c0.093,0.014,0.188,0.026,0.282,0.022c0.127-0.006,0.25-0.108,0.244-0.245 c-0.006-0.127-0.107-0.25-0.244-0.244c-0.047,0.002-0.094,0.002-0.141-0.001c-0.02-0.001-0.039-0.004-0.059-0.006c-0.001,0,0,0,0,0 c-0.014-0.002-0.027-0.005-0.041-0.007c-0.014-0.003-0.028-0.008-0.042-0.011c0-0.033,0-0.067,0-0.1 c0.118,0.034,0.229,0.083,0.354,0.098c0.058,0.007,0.134-0.032,0.173-0.071c0.042-0.042,0.074-0.112,0.072-0.173 c-0.007-0.146-0.108-0.228-0.245-0.244c-0.002,0,0,0-0.001,0c-0.008-0.001-0.016-0.002-0.021-0.003 c-0.023-0.004-0.047-0.008-0.07-0.013c-0.046-0.01-0.093-0.021-0.138-0.034c-0.042-0.012-0.083-0.025-0.124-0.04 c0-0.05,0-0.1,0-0.15c0.056,0.012,0.107,0.042,0.165,0.049c0.068,0.009,0.126,0.012,0.188-0.025 c0.051-0.029,0.099-0.087,0.112-0.146c0.023-0.101-0.032-0.227-0.135-0.272c0.003-0.001,0.007,0.001,0.01-0.001 c0.05-0.03,0.099-0.088,0.112-0.146c0.026-0.117-0.036-0.279-0.171-0.301c-0.097-0.015-0.192-0.04-0.285-0.073c0-0.05,0-0.1,0-0.15 c0,0,0.001,0,0.001,0c0.716-0.778,1.564-1.416,2.527-1.856c1.083-0.496,2.186-0.646,3.361-0.735 c0.103-0.008,0.203-0.023,0.305-0.033c0.896,0.266,1.791,0.532,2.687,0.797c0.053,0.048,0.121,0.08,0.209,0.063 c0,0,0.001,0,0.001,0c0.28,0.083,0.559,0.167,0.839,0.249c1.167,0.342,2.395,0.64,3.594,0.276c0.3-0.091,0.172-0.563-0.13-0.471 c-1.128,0.343-2.275,0.036-3.372-0.288c1.075-0.318,2.095-0.813,3.006-1.47c0.252-0.183,0.009-0.606-0.247-0.422 c-1.102,0.796-2.352,1.341-3.68,1.62c-0.606-0.18-1.212-0.359-1.818-0.539c0.457-0.127,0.891-0.321,1.29-0.634 c0.898-0.703,1.656-1.871,2.929-1.793c0.314,0.019,0.313-0.469,0-0.489c-1.042-0.063-1.831,0.604-2.542,1.281 c-0.498,0.474-0.994,0.926-1.663,1.14c-0.333,0.106-0.679,0.16-1.027,0.195c-0.048-0.014-0.095-0.028-0.143-0.042 c-0.101-0.03-0.171,0.012-0.224,0.072c-0.175,0.012-0.35,0.025-0.524,0.038c1.969-1.4,2.41-4.493,4.642-5.678 c0.278-0.147,0.031-0.569-0.247-0.422c-1.158,0.615-1.862,1.716-2.5,2.821c0.063-0.591,0.125-1.182,0.188-1.772 c0.046-0.439,0.084-0.88,0.141-1.317c0.049-0.375,0.134-0.75,0.444-0.996c0.246-0.195-0.102-0.539-0.346-0.346 c-0.077,0.062-0.143,0.131-0.202,0.206c0.097-0.208,0.189-0.419,0.261-0.639c0.099-0.299-0.373-0.428-0.471-0.13 c-0.372,1.13-1.124,2.109-2.147,2.725c-0.575,0.346-1.184,0.576-1.685,0.953c0.423-1.497,0.685-3.037,0.765-4.593 c0.016-0.314-0.472-0.313-0.488,0c-0.037,0.701-0.122,1.396-0.23,2.087c-0.199-0.405-0.478-0.776-0.73-1.146 c-0.443-0.647-0.887-1.294-1.33-1.942c-0.177-0.258-0.6-0.014-0.422,0.247c0.416,0.607,0.832,1.215,1.248,1.822 c0.198,0.29,0.4,0.577,0.594,0.87c0.174,0.264,0.35,0.551,0.39,0.871c0.009,0.074,0.044,0.134,0.094,0.18 c-0.174,0.857-0.399,1.704-0.683,2.534c-0.007,0.021,0.006,0.033,0.004,0.052c-0.44,0.93-0.554,1.987-0.998,2.923 c-0.373,0.787-0.867,1.498-1.455,2.128c0.046-0.581,0.035-1.167-0.053-1.75c-0.087-0.576-0.247-1.127-0.45-1.672 c-0.216-0.582-0.5-1.195-0.503-1.827c-0.006-1.073,0.863-1.907,0.988-2.972c0.109-0.925-0.16-1.849-0.722-2.586 c-0.188-0.247-0.612-0.004-0.421,0.247c0.628,0.825,0.862,1.895,0.526,2.892c-0.159,0.471-0.402,0.879-0.589,1.303 c-0.185-0.548-0.476-1.067-0.768-1.57c-0.53-0.914-0.868-1.877-0.922-2.938c-0.016-0.313-0.505-0.314-0.489,0 c0.039,0.758,0.204,1.495,0.489,2.19c-0.274-0.26-0.575-0.492-0.902-0.684c-0.353-0.207-0.732-0.346-1.111-0.496 c-0.382-0.151-0.76-0.351-0.948-0.734c-0.138-0.282-0.56-0.035-0.422,0.247c0.388,0.792,1.317,0.922,2.027,1.291 c0.704,0.366,1.299,0.911,1.726,1.58c0.076,0.118,0.199,0.125,0.3,0.083c0.398,0.686,0.776,1.389,0.708,2.209 c-0.006,0.076,0.02,0.131,0.06,0.17c0.097,0.958,0.604,1.822,0.827,2.751c0.168,0.702,0.211,1.415,0.164,2.125 c-0.27-0.721-0.631-1.405-1.099-2.023c-0.332-0.439-0.707-0.846-1.124-1.206c-0.42-0.363-0.893-0.656-1.323-1.004 c-0.121-0.14-0.262-0.252-0.397-0.375c-0.725-0.854-0.733-2.076-1.188-3.089c-0.462-1.027-1.191-1.888-2.088-2.561 c-0.251-0.188-0.495,0.235-0.247,0.422c0.949,0.712,1.688,1.689,2.082,2.812c0.199,0.567,0.298,1.155,0.486,1.703 c-0.567-0.338-1.178-0.614-1.778-0.886c-1.096-0.497-2.246-1.077-2.879-2.149c-0.16-0.271-0.582-0.025-0.422,0.247 c1.239,2.099,3.913,2.299,5.633,3.797c0.053,0.062,0.101,0.125,0.162,0.184c0.793,0.764,1.763,1.262,2.479,2.125 c0.695,0.837,1.176,1.813,1.462,2.858c-0.013,0.013-0.011,0.028-0.02,0.042c-0.54-0.741-1.256-1.329-2.125-1.668 c-0.898-0.351-1.859-0.435-2.803-0.596c-0.7-0.289-1.428-0.531-2.174-0.728c-0.227-0.144-0.442-0.306-0.63-0.508 c-0.383-0.41-0.671-0.905-1.119-1.251c-0.049-0.038-0.102-0.063-0.153-0.096c-0.436-1.09-0.766-2.219-0.97-3.375 c-0.054-0.309-0.525-0.178-0.471,0.13c0.176,1,0.462,1.975,0.813,2.927c-0.921-0.341-1.943-0.366-2.617-1.274 c-0.186-0.25-0.609-0.006-0.422,0.247c0.735,0.991,1.659,1.105,2.763,1.456c0.209,0.066,0.391,0.167,0.562,0.28 c0.029,0.033,0.061,0.055,0.101,0.069c0.441,0.322,0.79,0.76,1.167,1.171c-1.951-0.404-3.986-0.513-5.918-0.337 c-0.311,0.028-0.313,0.517,0,0.488c2.202-0.2,4.528-0.03,6.712,0.536c0.052,0.033,0.099,0.071,0.154,0.101 c0.17,0.091,0.349,0.151,0.526,0.219c-1.038,0.125-2.02,0.546-3.028,0.836c-1.561,0.451-3.101,0.238-4.672-0.04 c-0.211-0.038-0.449,0.24-0.238,0.408c0.066,0.052,0.131,0.104,0.197,0.156c0.118,0.094,0.259,0.059,0.346-0.022 c1.352,0.23,2.72,0.403,4.073,0.082c1.388-0.33,2.692-1.051,4.153-0.965c0.115,0.006,0.173-0.062,0.204-0.143 c0.159,0.034,0.318,0.065,0.479,0.093c0.015,0.006,0.03,0.011,0.044,0.017c0.017,0.007,0.028-0.005,0.044-0.001 c0.458,0.077,0.919,0.143,1.373,0.226c1.387,0.252,2.56,0.845,3.341,1.997c-0.051-0.005-0.108-0.007-0.149,0.02 c-0.102,0.066-0.168,0.224-0.088,0.334c0.056,0.075,0.12,0.143,0.185,0.209c-0.061-0.001-0.121,0.018-0.166,0.067 c-0.084,0.092-0.103,0.256,0,0.345c0.166,0.144,0.35,0.263,0.546,0.357c0,0.007,0,0.015,0,0.022 c-0.002-0.001-0.004-0.003-0.006-0.005c-0.02-0.018-0.04-0.035-0.06-0.053c-0.094-0.086-0.253-0.1-0.345,0 c-0.086,0.094-0.101,0.253,0,0.346c0.08,0.073,0.178,0.115,0.266,0.175c-0.087-0.077-0.243-0.072-0.319,0.011 c-0.097,0.106-0.085,0.239,0,0.345c0.067,0.083,0.146,0.157,0.231,0.223c-0.02-0.005-0.041-0.012-0.058-0.012 c-0.06,0-0.131,0.027-0.173,0.072c-0.042,0.046-0.074,0.107-0.071,0.172c0.003,0.069,0.029,0.119,0.071,0.173 c0.129,0.165,0.292,0.294,0.47,0.398c0,0.006,0,0.012,0,0.018c-0.099-0.058-0.202-0.11-0.294-0.178 c-0.104-0.076-0.277-0.021-0.334,0.087c-0.067,0.127-0.023,0.253,0.088,0.334c0.145,0.105,0.302,0.192,0.46,0.275 c-0.088-0.08-0.245-0.078-0.325,0.009c-0.095,0.104-0.089,0.241,0,0.345c0.074,0.087,0.162,0.159,0.255,0.223 c-0.09-0.073-0.238-0.074-0.316,0.012c-0.094,0.103-0.091,0.243,0,0.346c0.128,0.144,0.293,0.254,0.471,0.336 c0,0.048,0,0.097,0,0.146c-0.021-0.012-0.042-0.023-0.062-0.036c-0.004-0.002-0.013-0.008-0.021-0.014 c-0.017-0.012-0.033-0.027-0.048-0.041c-0.035-0.032-0.067-0.066-0.098-0.102c-0.083-0.098-0.261-0.092-0.345,0 c-0.096,0.104-0.088,0.241,0,0.345c0.152,0.179,0.356,0.304,0.575,0.385c0,0.014,0,0.029,0,0.043 c-0.011-0.008-0.023-0.014-0.034-0.021c-0.005-0.004-0.012-0.009-0.014-0.011c-0.018-0.016-0.036-0.032-0.053-0.048 c-0.093-0.088-0.255-0.099-0.346,0c-0.087,0.095-0.099,0.251,0,0.345c0.031,0.029,0.069,0.049,0.102,0.075 c-0.035,0.012-0.074,0.015-0.098,0.04c-0.096,0.104-0.088,0.241,0,0.346c0.121,0.145,0.278,0.246,0.445,0.324 c0,0.051,0,0.102,0,0.152c-0.02-0.01-0.039-0.019-0.058-0.03c-0.035-0.021-0.067-0.043-0.1-0.066 c-0.006-0.005-0.012-0.009-0.017-0.014c-0.018-0.016-0.035-0.032-0.052-0.048c-0.092-0.089-0.255-0.099-0.346,0 c-0.088,0.096-0.098,0.25,0,0.345c0.033,0.032,0.073,0.054,0.109,0.083c-3.711,1.356-7.46,2.605-11.245,3.74 c-0.3,0.09-0.172,0.562,0.13,0.471c3.021-0.906,6.013-1.904,8.988-2.951c-2.43,1.389-4.859,2.777-7.289,4.165 c-0.273,0.156-0.027,0.579,0.247,0.422c3.219-1.839,6.438-3.679,9.658-5.518c0,0.001,0.001,0.002,0.001,0.004 c-3.019,1.927-6.098,3.79-9.013,5.87c-0.254,0.181-0.01,0.605,0.246,0.422c2.273-1.623,4.647-3.112,7.014-4.603 c-2.127,1.95-4.254,3.899-6.381,5.849c-0.232,0.213,0.114,0.558,0.345,0.345c2.114-1.938,4.228-3.875,6.342-5.813 c-1.812,2.016-3.687,3.988-4.968,6.396c-0.148,0.277,0.274,0.524,0.422,0.247c1.299-2.442,3.216-4.429,5.049-6.475 c-1.165,2.133-2.329,4.267-3.494,6.4c-0.151,0.276,0.271,0.523,0.422,0.247c1.364-2.499,2.729-4.998,4.093-7.497 c0,0.009,0.001,0.018,0.001,0.027c-0.152,1.125-0.491,2.219-0.822,3.308c-0.452,1.491-0.905,2.981-1.358,4.472 c-0.091,0.302,0.38,0.431,0.471,0.13c0.47-1.547,0.939-3.094,1.409-4.641c0.134-0.443,0.263-0.888,0.384-1.334 c0.009,0.661,0.013,1.322-0.016,1.983c-0.035,0.788-0.123,1.569-0.182,2.354c-0.041,0.55,0.007,1.088,0.394,1.512 c0.212,0.232,0.557-0.114,0.345-0.345c-0.419-0.458-0.247-1.188-0.194-1.746c0.073-0.759,0.121-1.521,0.144-2.284 c0.034-1.138-0.007-2.275-0.083-3.41c0.006-0.043,0.005-0.088,0.01-0.131c0.679,2.528,0.613,5.235,1.735,7.646 c0.132,0.285,0.554,0.037,0.421-0.247c-1.022-2.198-1.038-4.662-1.563-6.998c0.545,0.923,1.093,1.845,1.667,2.75 c0.804,1.271,1.709,2.491,2.89,3.437c0.243,0.195,0.591-0.149,0.345-0.346c-1.185-0.95-2.082-2.171-2.884-3.45 c-0.651-1.039-1.275-2.095-1.899-3.151c2.433,1.947,4.866,3.895,7.299,5.842c-0.042,0.046-0.056,0.101-0.048,0.167 c-0.08,0.051-0.141,0.13-0.114,0.248c1.306,5.722,0.116,11.523,0.163,17.305c0.046,5.765,1.886,11.561,0.406,17.276 c-0.079,0.305,0.392,0.435,0.471,0.13c0.38-1.467,0.543-2.938,0.576-4.413c0.158,1.727,0.315,3.453,0.463,5.179 c0.027,0.311,0.516,0.314,0.489,0c-0.544-6.332-1.254-12.677-1.56-19.026c-0.157-3.262-0.011-6.454,0.421-9.689 c0.33-2.466,0.469-4.961-0.88-7.161c-0.011-0.017-0.028-0.015-0.04-0.028c0.097-0.085,0.134-0.224,0.005-0.327 c-2.206-1.766-4.413-3.532-6.619-5.298c2.696,1.196,5.337,2.514,7.909,3.959c0.274,0.154,0.521-0.268,0.247-0.421 c-2.76-1.551-5.599-2.95-8.499-4.216c3.279,0.995,6.559,1.991,9.838,2.986c0.007,0.002,0.01-0.003,0.017-0.002 c-0.025,0.047-0.036,0.104-0.008,0.173c0.069,0.177,0.116,0.356,0.173,0.535c-0.431,2.024-0.105,4.002,0.401,5.969 c-0.041,0.582-0.086,1.165-0.12,1.747c-0.153,2.648,0.245,5.187,0.751,7.776c0.194,0.993,0.383,1.983,0.533,2.976 c-0.21,2.429-0.466,4.858-0.359,7.298c0.022,0.514,0.08,1.028,0.148,1.542c-0.119,1.363-0.104,2.721,0.342,4.077 c0.046,0.141,0.176,0.18,0.29,0.158c0.128,1.231,0.14,2.461-0.16,3.689c-0.075,0.305,0.396,0.435,0.471,0.129 C63.037,86.917,62.23,84.319,61.91,81.646z M50.513,39.722c0.248-0.486,0.452-0.997,0.605-1.521 c0.171-0.584,0.277-1.199,0.552-1.747c0.545-1.086,1.857-1.291,2.757-1.988c0.561-0.435,1.009-0.976,1.359-1.579 c-0.195,0.529-0.196,1.174-0.25,1.688c-0.11,1.035-0.22,2.07-0.33,3.104c-0.652,1.066-1.463,2.091-2.733,2.388 c-0.083,0.02-0.129,0.069-0.153,0.128c-1.375,0.345-2.633,1.016-3.682,1.994c0.001-0.009,0.004-0.017,0.005-0.026 C49.4,41.462,50.042,40.644,50.513,39.722z M48.041,44.482c0,0.015,0,0.03,0,0.045c-0.007-0.006-0.014-0.013-0.021-0.019 c-0.03-0.03-0.058-0.063-0.085-0.096C47.971,44.436,48.004,44.462,48.041,44.482z M47.954,45.06 c0.029,0.018,0.059,0.036,0.089,0.052c0,0.014,0,0.027,0,0.041C48.013,45.122,47.982,45.093,47.954,45.06z M48.047,46.355 c0,0.008,0,0.015,0,0.023c-0.018-0.018-0.036-0.035-0.052-0.054C48.013,46.333,48.028,46.346,48.047,46.355z M48.027,46.998 c-0.029-0.025-0.055-0.053-0.082-0.082c0.033,0.02,0.069,0.031,0.103,0.048c0,0.018,0,0.035,0,0.052 C48.041,47.01,48.034,47.004,48.027,46.998z M57.584,62.797c-0.022-1.524-0.146-3.045-0.414-4.561 C57.728,59.695,57.733,61.24,57.584,62.797z M60.394,55.508c0.164,0.933,0.203,1.877,0.181,2.827 C60.408,57.401,60.325,56.461,60.394,55.508z M60.886,61.736c0.823,2.98,1.083,5.876,0.907,8.952 c-0.069-0.359-0.139-0.717-0.208-1.075C61.068,66.971,60.755,64.414,60.886,61.736z M61.917,75.296 c0.049,0.919,0.043,1.843-0.057,2.776c-0.032,0.299-0.07,0.597-0.109,0.895C61.746,77.743,61.819,76.519,61.917,75.296z"/></g><g id="change2_1"><path d="M62.953,49.303c2.337-6.713,0.132-14.013-5.93-17.88c-5.745-3.664-13.518-3.28-18.902,0.864 c-4.982,3.834-7.282,10.252-5.527,16.336c1.743,6.042,6.897,10.847,13.193,11.669c3.5,0.458,7.17-0.243,10.202-2.073 C59.339,56.197,61.592,52.912,62.953,49.303c0.371-0.981-1.203-1.406-1.57-0.433c-2.198,5.827-7.184,9.956-13.564,9.936 c-5.639-0.017-10.578-3.502-12.904-8.576c-2.369-5.168-1.358-11.173,2.611-15.25c4.151-4.262,10.643-5.589,16.175-3.431 c3.108,1.212,5.825,3.559,7.308,6.564c1.667,3.375,1.592,7.26,0.374,10.757C61.038,49.861,62.61,50.288,62.953,49.303z" fill="#333333"/></g><g fill="#378f81" id="change1_2"><path d="M37.208,53.571c0.061-0.117,0.03-0.265-0.087-0.334c-0.002-0.001-0.005,0-0.008-0.001 c-0.004-0.011,0.002-0.022-0.004-0.033c-0.064-0.109-0.224-0.161-0.334-0.088c-0.687,0.457-1.196,1.151-1.414,1.948 c-0.061,0.224,0.244,0.429,0.408,0.238c0.01-0.012,0.02-0.023,0.03-0.035c-0.028,0.096-0.014,0.2,0.071,0.264 c0.09,0.067,0.241,0.075,0.321-0.019c0.026-0.031,0.052-0.062,0.078-0.092c0.035-0.042,0.05-0.094,0.058-0.145 C36.62,54.706,36.914,54.139,37.208,53.571z M36.34,54.185c-0.135,0.26-0.27,0.521-0.404,0.781 c-0.001-0.009-0.008-0.016-0.01-0.025C36.028,54.669,36.165,54.414,36.34,54.185z"/><path d="M38.783,54.93c0.074-0.077,0.106-0.189,0.05-0.284c-0.067-0.114-0.22-0.155-0.334-0.087 c-0.694,0.407-1.276,0.995-1.676,1.693c-0.065,0.115-0.027,0.268,0.088,0.334c0.124,0.072,0.255,0.019,0.334-0.088 c0.213-0.373,0.494-0.691,0.806-0.978c-0.241,0.35-0.483,0.7-0.724,1.051c-0.075,0.108-0.02,0.271,0.088,0.334 c0.121,0.071,0.259,0.021,0.334-0.088c0.365-0.529,0.73-1.059,1.095-1.589C38.909,55.133,38.866,55.005,38.783,54.93z"/><path d="M39.921,55.992c-0.042-0.024-0.087-0.02-0.132-0.017c0,0,0,0,0,0c0.103-0.083,0.086-0.259,0-0.346 c-0.101-0.101-0.243-0.083-0.345,0c-0.56,0.457-0.973,1.077-1.196,1.762c-0.041,0.125,0.047,0.267,0.17,0.3 c0.059,0.016,0.114,0.002,0.163-0.021c-0.011,0.017-0.021,0.033-0.031,0.05c-0.071,0.111-0.023,0.269,0.087,0.334 c0.118,0.069,0.264,0.024,0.334-0.088c0.345-0.546,0.691-1.093,1.037-1.64C40.079,56.215,40.032,56.057,39.921,55.992z M38.798,57.329c0.089-0.225,0.197-0.444,0.343-0.658c0.091-0.132,0.198-0.26,0.315-0.384 C39.237,56.634,39.017,56.981,38.798,57.329z"/><path d="M40.881,56.637c-0.362,0.634-0.724,1.269-1.085,1.903c-0.156,0.273,0.266,0.52,0.422,0.247 c0.362-0.634,0.724-1.269,1.085-1.903C41.459,56.61,41.038,56.363,40.881,56.637z"/><path d="M41.541,57.035c-0.113-0.06-0.271-0.033-0.334,0.088c-0.264,0.498-0.528,0.997-0.792,1.495 c-0.06,0.113-0.032,0.271,0.088,0.334c0.113,0.06,0.27,0.033,0.334-0.088c0.264-0.498,0.528-0.997,0.792-1.495 C41.688,57.257,41.661,57.099,41.541,57.035z"/><path d="M43.272,57.579c-0.061-0.061-0.161-0.068-0.248-0.04c0.018-0.077,0.013-0.156-0.05-0.22 c-0.087-0.087-0.261-0.102-0.346,0c-0.554,0.665-0.931,1.464-1.069,2.32c-0.021,0.13,0.034,0.263,0.17,0.3 c0.098,0.027,0.212-0.031,0.264-0.124c0.018,0.01,0.027,0.031,0.046,0.037c0.132,0.036,0.26-0.044,0.3-0.17 c0.203-0.634,0.518-1.235,0.931-1.757C43.354,57.821,43.374,57.68,43.272,57.579z"/><path d="M44.304,58.136c0.038-0.112,0.019-0.237-0.092-0.302c-0.105-0.062-0.278-0.032-0.334,0.088 c-0.337,0.727-0.54,1.497-0.617,2.293c-0.002,0.006-0.004,0.013-0.006,0.02c0.001,0,0.002,0,0.003,0 c-0.002,0.022-0.009,0.043-0.011,0.065c-0.024,0.283,0.401,0.319,0.479,0.065c0.02-0.064,0.04-0.128,0.059-0.193 c0.067,0.141,0.269,0.211,0.396,0.078c0.026-0.029,0.053-0.057,0.08-0.085c0.062-0.066,0.067-0.155,0.043-0.238 c0.156-0.553,0.313-1.105,0.47-1.658C44.859,57.966,44.392,57.837,44.304,58.136z M44.271,58.248 c-0.155,0.549-0.311,1.098-0.466,1.646C43.891,59.328,44.038,58.771,44.271,58.248z"/><path d="M46.448,58.49c0.029-0.129-0.039-0.264-0.17-0.3c-0.123-0.034-0.272,0.041-0.3,0.17 c-0.152,0.688-0.251,1.388-0.297,2.091c-0.008,0.132,0.119,0.245,0.245,0.245c0.139,0,0.235-0.112,0.244-0.245 C46.211,59.791,46.305,59.136,46.448,58.49z"/><path d="M46.753,58.547c-0.115-0.032-0.281,0.039-0.3,0.17c-0.095,0.654-0.19,1.309-0.285,1.963 c-0.014,0.1,0.001,0.193,0.088,0.257c0.071,0.054,0.192,0.078,0.271,0.019c0.015-0.011,0.03-0.022,0.045-0.033 c0.094-0.069,0.131-0.182,0.093-0.291c0.086-0.595,0.172-1.19,0.259-1.785C46.942,58.717,46.891,58.584,46.753,58.547z"/><path d="M49.334,58.527c-0.004-0.233-0.274-0.292-0.411-0.179c0-0.012,0-0.023-0.001-0.036 c-0.009-0.313-0.497-0.314-0.488,0c0.022,0.818,0.045,1.635,0.068,2.453c0.007,0.25,0.361,0.321,0.456,0.101 c0.044,0.045,0.104,0.074,0.172,0.074c0.146,0,0.228-0.113,0.244-0.245c0.009-0.068,0.017-0.137,0.026-0.206 c0.003-0.028-0.021-0.048-0.031-0.074C49.357,59.787,49.346,59.157,49.334,58.527z"/><path d="M51.292,58.135c-0.02-0.13-0.184-0.203-0.3-0.17c-0.139,0.038-0.191,0.169-0.171,0.3 c0.096,0.616,0.191,1.231,0.287,1.847c-0.002-0.007-0.005-0.012-0.008-0.018c-0.097-0.628-0.193-1.256-0.289-1.884 c-0.02-0.13-0.184-0.203-0.301-0.17c-0.139,0.038-0.19,0.169-0.17,0.3c0.105,0.687,0.211,1.374,0.316,2.061 c0.018,0.119,0.16,0.191,0.268,0.175c0.117-0.018,0.213-0.116,0.211-0.24c0-0.016,0-0.032,0-0.048 c0.008,0.054,0.017,0.107,0.025,0.161c0.019,0.119,0.16,0.191,0.268,0.175c0.126-0.019,0.202-0.115,0.212-0.24 c0.003-0.036,0.006-0.071,0.008-0.107c0.003-0.035-0.023-0.061-0.038-0.091C51.504,59.501,51.398,58.818,51.292,58.135z"/><path d="M54.565,58.89c-0.217-0.567-0.433-1.134-0.65-1.701c-0.047-0.123-0.165-0.208-0.3-0.17 c-0.118,0.032-0.218,0.177-0.17,0.3c0.015,0.04,0.03,0.079,0.045,0.118c-0.058-0.047-0.128-0.076-0.208-0.054 c-0.122,0.033-0.213,0.175-0.17,0.3c0.211,0.619,0.423,1.238,0.634,1.857c0.039,0.114,0.144,0.193,0.268,0.175 c0.116-0.018,0.216-0.116,0.212-0.24c-0.002-0.063-0.004-0.126-0.005-0.189c0.051,0.073,0.123,0.126,0.22,0.111 c0.112-0.017,0.221-0.117,0.211-0.24c-0.002-0.031-0.004-0.063-0.007-0.094C54.639,58.995,54.61,58.934,54.565,58.89z M54.075,58.97c-0.003-0.002-0.007-0.002-0.011-0.004c-0.025-0.074-0.05-0.147-0.076-0.221 C54.018,58.819,54.046,58.895,54.075,58.97z"/><path d="M56.822,57.383c-0.133-0.575-0.395-1.108-0.792-1.557c-0.087-0.099-0.256-0.089-0.346,0 c-0.098,0.099-0.087,0.247,0,0.346c0.198,0.224,0.362,0.482,0.489,0.761c0.112,0.246,0.204,0.576,0.235,0.836 c0.015,0.121,0.082,0.224,0.211,0.24c0.111,0.013,0.246-0.054,0.268-0.175c0.013-0.068,0.025-0.136,0.038-0.204 C56.945,57.531,56.899,57.442,56.822,57.383z"/><path d="M55.977,55.357c-0.098,0.098-0.088,0.247,0,0.345c0.501,0.56,0.852,1.237,1.029,1.966 c0.074,0.305,0.545,0.176,0.471-0.13c-0.198-0.811-0.599-1.56-1.155-2.181C56.234,55.259,56.066,55.268,55.977,55.357z"/><path d="M59.21,55.331c-0.007-0.002-0.014,0.004-0.021,0.003c-0.268-0.587-0.615-1.134-1.079-1.587 c-0.094-0.092-0.251-0.094-0.346,0c-0.093,0.093-0.095,0.252,0,0.345c0.105,0.103,0.185,0.227,0.28,0.339 c-0.074-0.073-0.146-0.148-0.226-0.214c-0.099-0.081-0.25-0.104-0.345,0c-0.083,0.089-0.105,0.259,0,0.345 c0.119,0.098,0.231,0.203,0.336,0.315c0.051,0.055,0.1,0.111,0.147,0.169c0.041,0.05,0.07,0.088,0.12,0.159 c0.086,0.123,0.164,0.251,0.232,0.384c0.037,0.07,0.07,0.141,0.102,0.214c0.017,0.038-0.011-0.028,0.004,0.01 c0.008,0.02,0.016,0.039,0.023,0.058c0.015,0.039,0.029,0.078,0.043,0.117c0.042,0.12,0.169,0.213,0.3,0.17 c0.112-0.037,0.196-0.158,0.168-0.28c0.042,0.039,0.092,0.065,0.156,0.065c0.108,0,0.206-0.076,0.236-0.18 c0.013-0.044,0.026-0.089,0.039-0.133C59.418,55.505,59.336,55.366,59.21,55.331z"/><path d="M59.448,52.093c-0.082-0.103-0.26-0.085-0.346,0c-0.102,0.103-0.082,0.242,0,0.346 c0.06,0.075,0.119,0.149,0.178,0.224c-0.1-0.075-0.244-0.1-0.338,0.003c-0.081,0.088-0.107,0.261,0,0.345 c0.241,0.19,0.463,0.402,0.662,0.636c0.023,0.027,0.046,0.055,0.068,0.083c0.013,0.016,0.025,0.031,0.037,0.046 c0.027,0.035-0.033-0.044,0.013,0.017c0.045,0.061,0.09,0.122,0.132,0.184c0.088,0.128,0.168,0.261,0.243,0.397 c0.061,0.112,0.226,0.157,0.334,0.087c0.123-0.079,0.142-0.208,0.088-0.334c-0.009-0.02-0.017-0.04-0.025-0.06 c0.075,0.007,0.152-0.009,0.203-0.059c0.102-0.102,0.083-0.242,0-0.345C60.281,53.14,59.864,52.616,59.448,52.093z"/><path d="M63.748,40.803c-0.018,0.001-0.036,0.002-0.054,0.003c-0.006,0-0.01,0.006-0.016,0.007 c-0.643,0.22-1.3,0.394-1.968,0.519c-0.129,0.024-0.203,0.181-0.17,0.3c0.038,0.136,0.17,0.195,0.3,0.17 c0.669-0.125,1.329-0.298,1.973-0.52c0.114-0.039,0.193-0.144,0.175-0.268C63.971,40.901,63.871,40.795,63.748,40.803z"/><path d="M63.146,38.458c0.105-0.08,0.16-0.211,0.088-0.334c-0.061-0.103-0.229-0.168-0.334-0.087 c-0.286,0.217-0.569,0.44-0.86,0.652c-0.242,0.177-0.511,0.348-0.789,0.363c-0.132,0.007-0.244,0.107-0.244,0.244 c0,0.126,0.112,0.251,0.244,0.244c0.368-0.02,0.691-0.185,0.987-0.395C62.546,38.925,62.844,38.688,63.146,38.458z"/><path d="M60.352,37.639c0.696-0.102,1.354-0.462,1.821-0.989c0.087-0.099,0.097-0.248,0-0.345 c-0.089-0.089-0.258-0.099-0.346,0c-0.422,0.477-0.97,0.77-1.605,0.863c-0.13,0.019-0.202,0.185-0.17,0.301 C60.09,37.608,60.221,37.658,60.352,37.639z"/><path d="M57.948,34.554c0.208,0,0.381-0.119,0.51-0.274c0.121-0.147,0.23-0.306,0.331-0.467 c0.201-0.323,0.362-0.67,0.486-1.029c0.063-0.182-0.13-0.344-0.3-0.3c-0.02,0.005-0.039,0.01-0.059,0.015 c-0.128,0.033-0.205,0.175-0.171,0.3c-0.091,0.238-0.196,0.465-0.334,0.696c-0.082,0.136-0.17,0.268-0.265,0.395 c-0.028,0.038-0.068,0.084-0.118,0.136c-0.008,0.008-0.028,0.024-0.007,0.008c-0.013,0.009-0.026,0.018-0.04,0.025 c-0.016,0.01-0.01,0.007-0.01,0.007c-0.001,0-0.005,0-0.007,0s0.002-0.001,0-0.001c-0.002,0,0,0-0.002,0.001 c-0.004,0-0.005-0.001-0.014-0.001c-0.128,0-0.25,0.113-0.245,0.245C57.709,34.442,57.811,34.553,57.948,34.554z M57.969,34.068 c0.002,0-0.006,0.002-0.004,0C57.966,34.068,57.967,34.068,57.969,34.068z"/><path d="M55.869,32.895c0.463-0.584,0.783-1.271,0.903-2.009c0.021-0.13-0.034-0.263-0.17-0.3 c-0.117-0.032-0.279,0.04-0.3,0.17c-0.106,0.65-0.367,1.275-0.778,1.793c-0.082,0.103-0.101,0.245,0,0.345 C55.608,32.98,55.787,32.999,55.869,32.895z"/><path d="M56.286,33.189c0.548-0.578,0.922-1.315,1.046-2.104c0.021-0.13-0.033-0.263-0.171-0.3 c-0.116-0.032-0.28,0.04-0.3,0.17c-0.111,0.708-0.426,1.367-0.92,1.888C55.724,33.072,56.068,33.417,56.286,33.189z"/><path d="M52.534,29.102c-0.135,0.037-0.196,0.17-0.17,0.3c0.13,0.676,0.049,1.374-0.208,2.01 c-0.05,0.122,0.054,0.268,0.17,0.3c0.14,0.039,0.25-0.048,0.3-0.17c0.291-0.719,0.355-1.51,0.208-2.27 C52.809,29.143,52.654,29.069,52.534,29.102z"/><path d="M50.055,28.773c-0.153-0.275-0.575-0.029-0.422,0.246c0.303,0.543,0.434,1.188,0.347,1.805 c-0.019,0.13,0.032,0.262,0.17,0.3c0.114,0.032,0.282-0.039,0.3-0.17C50.558,30.2,50.428,29.44,50.055,28.773z"/><path d="M47.031,28.61c-0.222-0.224-0.567,0.122-0.346,0.345c0.189,0.19,0.275,0.442,0.349,0.708 c0.092,0.332,0.175,0.667,0.261,1c0.033,0.127,0.175,0.205,0.3,0.17c0.129-0.035,0.204-0.172,0.171-0.3 c-0.092-0.352-0.176-0.707-0.277-1.056C47.397,29.159,47.268,28.849,47.031,28.61z"/><path d="M45.812,30.847c-0.396-0.486-0.563-1.119-0.499-1.735c0.014-0.131-0.122-0.245-0.245-0.245 c-0.143,0-0.23,0.113-0.244,0.245c-0.078,0.75,0.168,1.5,0.642,2.081c0.083,0.102,0.259,0.086,0.345,0 C45.913,31.091,45.896,30.949,45.812,30.847z"/><path d="M43.127,31.87c0.107,0.078,0.272,0.019,0.334-0.087c0.072-0.124,0.02-0.257-0.087-0.334 c-0.049-0.035-0.106-0.081-0.167-0.136c-0.059-0.053-0.116-0.109-0.17-0.167c-0.118-0.126-0.189-0.222-0.281-0.372 c-0.042-0.068-0.08-0.137-0.116-0.208c-0.042-0.083-0.058-0.121-0.086-0.196c-0.059-0.158-0.101-0.32-0.129-0.485 c-0.021-0.13-0.183-0.203-0.3-0.171c-0.138,0.038-0.192,0.17-0.17,0.301C42.079,30.762,42.516,31.428,43.127,31.87z"/><path d="M41.643,32.234c0.116,0.054,0.269,0.037,0.334-0.088c0.057-0.107,0.036-0.277-0.087-0.334 c-0.146-0.067-0.284-0.149-0.411-0.247c-0.004-0.004-0.01-0.008-0.014-0.012c-0.014-0.012-0.028-0.023-0.042-0.035 c-0.03-0.026-0.06-0.054-0.089-0.082c-0.058-0.056-0.114-0.115-0.166-0.177c-0.012-0.014-0.023-0.028-0.035-0.042 c-0.045-0.056,0.027,0.038-0.016-0.02c-0.021-0.03-0.043-0.06-0.063-0.09c-0.045-0.067-0.086-0.137-0.124-0.208 c-0.017-0.033-0.033-0.066-0.048-0.099c-0.006-0.012-0.027-0.062-0.011-0.022c-0.008-0.02-0.017-0.041-0.024-0.061 c-0.028-0.076-0.052-0.153-0.072-0.231c-0.032-0.124-0.177-0.21-0.301-0.17c-0.127,0.041-0.205,0.168-0.17,0.3 C40.483,31.315,40.985,31.93,41.643,32.234z"/><path d="M38.876,34.125c0.104,0.075,0.277,0.021,0.334-0.088c0.066-0.126,0.023-0.254-0.088-0.334 c-0.016-0.012-0.032-0.023-0.048-0.035c-0.035-0.026,0.042,0.035-0.017-0.012c-0.028-0.022-0.055-0.045-0.082-0.068 c-0.057-0.049-0.112-0.101-0.165-0.154c-0.053-0.053-0.104-0.109-0.151-0.167c-0.013-0.015-0.025-0.03-0.038-0.046 c-0.008-0.011-0.021-0.027-0.005-0.007c-0.024-0.031-0.047-0.063-0.07-0.096c-0.083-0.12-0.157-0.247-0.221-0.379 c-0.009-0.018-0.017-0.036-0.025-0.054c-0.002-0.005-0.026-0.061-0.016-0.036c0.009,0.022-0.016-0.039-0.015-0.037 c-0.006-0.015-0.012-0.03-0.017-0.044c-0.028-0.074-0.052-0.15-0.073-0.226c-0.035-0.123-0.174-0.211-0.3-0.17 c-0.125,0.041-0.208,0.168-0.171,0.3C37.896,33.142,38.313,33.721,38.876,34.125z"/><path d="M37.952,34.784c0.118,0.049,0.273-0.053,0.3-0.171c0.032-0.142-0.043-0.248-0.17-0.3 c0.058,0.024,0,0-0.01-0.004c-0.017-0.008-0.033-0.016-0.05-0.024c-0.027-0.013-0.055-0.027-0.082-0.042 c-0.059-0.033-0.116-0.069-0.171-0.108c-0.015-0.01-0.03-0.021-0.044-0.032c-0.05-0.037,0.039,0.033-0.009-0.007 c-0.023-0.02-0.047-0.039-0.07-0.06c-0.053-0.047-0.103-0.097-0.15-0.149c-0.023-0.025-0.045-0.051-0.066-0.077 c-0.004-0.004-0.019-0.024-0.016-0.02c-0.007-0.01-0.016-0.023-0.018-0.026c-0.04-0.055-0.076-0.112-0.109-0.17 c-0.017-0.03-0.032-0.06-0.047-0.09c-0.008-0.016-0.016-0.033-0.024-0.049c-0.001-0.003-0.005-0.012-0.009-0.02 c0.003,0.006-0.007-0.018-0.009-0.023c-0.007-0.017-0.013-0.035-0.02-0.052c-0.012-0.035-0.023-0.07-0.034-0.105 c-0.036-0.122-0.173-0.211-0.3-0.17c-0.124,0.04-0.209,0.169-0.17,0.3C36.861,34.022,37.338,34.531,37.952,34.784z"/><path d="M36.311,36.777c0.132,0.005,0.244-0.115,0.244-0.244c0-0.136-0.112-0.24-0.244-0.244 c-0.042-0.001-0.083-0.004-0.124-0.008c-0.017-0.001-0.033-0.003-0.049-0.005c0.041,0.005-0.013-0.002-0.021-0.003 c-0.077-0.013-0.154-0.03-0.229-0.052c-0.036-0.01-0.071-0.022-0.106-0.034c-0.02-0.007-0.039-0.015-0.058-0.021 c-0.007-0.003-0.015-0.006-0.023-0.009c-0.071-0.031-0.141-0.066-0.208-0.105c-0.252-0.146-0.466-0.352-0.616-0.593 c-0.07-0.112-0.218-0.156-0.334-0.088c-0.112,0.065-0.157,0.222-0.087,0.334C34.852,36.343,35.559,36.751,36.311,36.777z"/><path d="M35.079,38.537c-0.627,0.046-1.234-0.131-1.75-0.482c-0.043-0.073-0.107-0.133-0.195-0.127 c-0.022,0.002-0.045,0.003-0.068,0.005c-0.255,0.019-0.313,0.308-0.123,0.455c0.602,0.463,1.379,0.692,2.136,0.637 c0.132-0.009,0.244-0.105,0.244-0.244C35.323,38.657,35.211,38.527,35.079,38.537z"/><path d="M34.297,40.713c-0.681,0.095-1.424-0.282-1.772-0.896c-0.155-0.273-0.578-0.027-0.422,0.247 c0.462,0.813,1.407,1.249,2.324,1.12c0.131-0.018,0.202-0.185,0.17-0.3C34.559,40.743,34.428,40.695,34.297,40.713z"/></g><g fill="#ff5757" id="change3_1"><path d="M41.951,39.219c-0.328,0.164-0.427,0.728-0.389,1.05c0.019,0.161,0.073,0.327,0.196,0.433 c0.136,0.119,0.333,0.143,0.511,0.118c0.323-0.045,0.628-0.249,0.767-0.544s0.094-0.676-0.132-0.912 C42.683,39.134,42.239,39.075,41.951,39.219z"/><path d="M46.358,32.968c-0.284,0.131-0.513,0.391-0.583,0.699c-0.03,0.133-0.033,0.276,0.017,0.403 c0.049,0.127,0.155,0.237,0.288,0.269c0.191,0.045,0.383-0.073,0.527-0.206c0.278-0.256,0.489-0.622,0.448-0.998 C47.012,32.743,46.613,32.851,46.358,32.968z"/><path d="M52.672,33.707c0.114-0.362-0.146-0.604-0.483-0.671c-0.225-0.045-0.508-0.044-0.688,0.121 c-0.125,0.114-0.175,0.295-0.155,0.463c0.029,0.252,0.216,0.48,0.458,0.56C52.175,34.301,52.559,34.068,52.672,33.707z"/><path d="M55.938,37.75c-0.077-0.16-0.201-0.292-0.332-0.412c-0.146-0.134-0.327-0.276-0.535-0.276 c-0.164,0-0.329,0.078-0.308,0.259c0.02,0.164,0.149,0.342,0.228,0.484c0.105,0.192,0.228,0.377,0.388,0.528 c0.089,0.084,0.201,0.161,0.323,0.15c0.12-0.011,0.219-0.107,0.267-0.217C56.04,38.102,56.015,37.909,55.938,37.75z"/><path d="M52.879,39.885c-0.091-0.129-0.229-0.233-0.385-0.253c-0.611-0.079-0.442,0.844-0.333,1.17 c0.074,0.219,0.225,0.45,0.455,0.471c0.205,0.019,0.392-0.148,0.457-0.343c0.065-0.195,0.035-0.408-0.015-0.608 C53.02,40.168,52.97,40.015,52.879,39.885z"/></g><g fill="#bee1e6" id="change4_1"><path d="M38.888,36.835c-0.163,0.053-0.367,0.256-0.479,0.378c-0.13,0.141-0.207,0.368-0.097,0.544 c0.088,0.141,0.274,0.198,0.437,0.167c0.163-0.031,0.303-0.136,0.415-0.258c0.144-0.159,0.261-0.384,0.176-0.6 C39.273,36.899,39.065,36.776,38.888,36.835z"/><path d="M43.761,35.444c-0.343,0.128-0.649,0.286-0.784,0.653c-0.052,0.142-0.064,0.319,0.041,0.428 c0.064,0.067,0.16,0.094,0.252,0.1c0.273,0.018,0.535-0.128,0.73-0.32c0.1-0.098,0.189-0.211,0.235-0.343 c0.058-0.167,0.038-0.364-0.096-0.488C44.012,35.355,43.907,35.39,43.761,35.444z"/><path d="M47.626,35.712c-0.208-0.016-0.438,0.057-0.64,0.094c-0.186,0.034-0.39,0.213-0.394,0.413 c-0.002,0.139,0.096,0.266,0.218,0.333c0.122,0.067,0.265,0.085,0.404,0.094c0.205,0.013,0.42,0.006,0.602-0.09 c0.181-0.096,0.317-0.305,0.27-0.505C48.039,35.853,47.829,35.728,47.626,35.712z"/><path d="M57.897,40.311c-0.478-0.055-0.625,0.712-0.565,1.04c0.024,0.133,0.092,0.279,0.224,0.31 c0.129,0.03,0.253-0.067,0.336-0.171C58.073,41.264,58.422,40.372,57.897,40.311z"/></g><g fill="#ffeda0" id="change5_1"><path d="M51.681,36.132c-0.183-0.14-0.526-0.331-0.763-0.243c-0.288,0.106-0.383,0.384-0.206,0.632 c0.184,0.259,0.501,0.417,0.818,0.408c0.131-0.004,0.272-0.041,0.353-0.144c0.079-0.1,0.084-0.244,0.038-0.362 S51.782,36.209,51.681,36.132z"/><path d="M40.492,38.587c-0.314,0.146-0.819,0.672-0.589,1.045c0.11,0.177,0.373,0.205,0.559,0.109 c0.185-0.096,0.307-0.281,0.403-0.466c0.1-0.191,0.19-0.45,0.033-0.64C40.79,38.504,40.633,38.521,40.492,38.587z"/><path d="M54.834,39.505c-0.368-0.006-0.583,0.395-0.646,0.705c-0.042,0.201-0.038,0.447,0.121,0.599 c0.149,0.142,0.396,0.145,0.573,0.041c0.177-0.104,0.291-0.293,0.347-0.491C55.32,40.047,55.255,39.513,54.834,39.505z"/></g></svg>