<?xml version="1.0" encoding="UTF-8"?><svg xmlns="http://www.w3.org/2000/svg" xmlns:xlink="http://www.w3.org/1999/xlink" height="253.7" preserveAspectRatio="xMidYMid meet" version="1.0" viewBox="-0.4 0.0 206.2 253.7" width="206.2" zoomAndPan="magnify"><g id="change1_1"><path d="M204.5,239l0.1,12.4c0,0-7.1,0.2-18,0.2c-10.9,0-3.9,0.2-14.8,0.2c-10.9,0-10.9,0.3-21.8,0.3 c-10.9,0-10.9,0.3-21.8,0.3c-10.9,0-10.9,1.3-21.8,1.3c-10.9,0-10.9-0.9-21.8-0.9c-10.9,0-10.9-0.1-21.8-0.1c-10.9,0-10.9-1-21.8-1 c-10.9,0-9.8,0.9-20.7,0.9s-17.9-0.8-17.9-0.8l-0.1-34.1c0-15.5-0.2,12.5-0.2-3.1c0-15.5-0.3-8.5-0.3-24.1c0-15.5-0.3-15.5-0.3-31.1 c0-15.5-1.3-15.5-1.3-31.1c0-15.5,0.9-15.5,0.9-31.1c0-15.5,0.1-15.5,0.1-31.1c0-15.5,0.1-22,0.1-37.5c0-11.5-1.7-14.1-1-20.1L0,1.6 C0.3,1.3,1,1,1.8,0.8c0-0.1,0.1-0.3,0.1-0.4l4.3-0.1c1.6-0.1,3.3-0.2,5-0.2L13.6,0c0,0,0,0,0,0.1c1.9,0,3.8,0,5.4,0 c10.9,0,10.9,1.2,21.8,1.2c10.9,0,10.9-0.7,21.8-0.7C73.6,0.6,73.6,0,84.5,0c10.9,0,10.9,0.3,21.8,0.3c10.9,0,10.9-0.1,21.8-0.1 c10.9,0,10.9,0.5,21.8,0.5c10.9,0,10.9-0.5,21.8-0.5c10.9,0,3.9,0,14.8,0c3.6,0,6.9,0,9.8,0.1l6.9-0.2c0.1,0.1,1.1,0.2,1.2,0.4 l0.3,12.5c0.1,4.9,0,10.2,0,14.2c0,15.5-0.5,23.6-0.5,39.2c0,15.5,0.6,15.5,0.6,31.1c0,15.5-0.3,15.5-0.3,31.1 c0,15.5,0.1,15.5,0.1,31.1c0,15.5-0.5,15.5-0.5,31.1c0,15.5,0.5,8.5,0.5,24.1c0,15.5,0-12.5,0,3.1c0,8.4-0.1,16-0.2,21.2 C205.8,239,204.5,239,204.5,239z" fill="#aa7346"/></g><g id="change2_1"><path d="M187.9,232.3c-1.6,0-3.3,0-5.1,0c-10.3,0-3.3,0-13.7,0c-10.3,0-10.3,0.5-20.7,0.5c-10.3,0-10.3-0.5-20.7-0.5 c-10.3,0-10.3,0.1-20.7,0.1c-10.3,0-10.3-0.3-20.7-0.3c-10.3,0-10.3,0.6-20.7,0.6c-10.3,0-10.3,0.6-20.7,0.6 c-10.3,0-10.3-1.2-20.7-1.2c-1.2,0-2.5,0-3.9,0c0.1-4.9,0.1-12.1,0.1-19.9c0-14.8,0,13.2,0-1.7c0-14.8-0.5-7.8-0.5-22.7 c0-14.8,0.5-14.8,0.5-29.7c0-14.8-0.1-14.8-0.1-29.7c0-14.8,0.3-14.8,0.3-29.7c0-14.8-0.6-14.8-0.6-29.7c0-14.8,0.5-21.5,0.5-36.3 c0-3.5,0-7.9,0-12.2c1.3-0.1,2.9-0.2,4.8-0.2c10.3,0,9.2-0.9,19.6-0.9c10.3,0,10.3,1,20.7,1c10.3,0,10.3,0.1,20.7,0.1 c10.3,0,10.3,0.9,20.7,0.9c10.3,0,10.3-1.3,20.7-1.3c10.3,0,10.3-0.2,20.7-0.2c10.3,0,10.3-0.3,20.7-0.3c10.3,0,3.3-0.2,13.7-0.2 c1,0,2,0,3,0c0.2,3.5,1.1,7,1.1,14.9c0,14.8-0.1,19.9-0.1,34.7c0,14.8-0.1,14.8-0.1,29.7c0,14.8-0.9,14.8-0.9,29.7 c0,14.8,1.3,14.8,1.3,29.7c0,14.8,0.2,14.8,0.2,29.7c0,14.8,0.3,7.8,0.3,22.7c0,14.8,0.2-13.2,0.2,1.7 C187.8,220.1,187.8,227.3,187.9,232.3z" fill="#fcf0d9"/></g><g id="change3_1"><path d="M127,134.6c0,0,6.6,26.7,0.5,33.3c-6.1,6.6-2.7,15.9-2.7,15.9l-2.3,9.5l-16.2-0.8l-16.9,0.8l-4.8-57.6 c1.6-2.2,11.9-8.4,14.2-17c2.3-8.7,2.3-10,2.3-10l12.8,1.1C113.9,109.7,114.1,122.1,127,134.6z M162.4,96.7 c-7,3.5-13.4,4.4-16.7,3.6c-16.2,9.4-40.5-1.8-35.5-9c3.9-5.7,12-3.6,15.4-2.3c-10-4.4-17.3-16.8-10.5-20.3 c7.2-3.7,14.4,7.7,14.4,7.7s-8.6-17.2-0.8-18.5c7.8-1.3,12.6,14.6,12.6,14.6c1.4-8.7,6-21.2,11.2-17.5s-1,21.6-1,21.6 c2.4-2.2,9.9-21.7,14.2-14.1c4.3,7.6-2.7,16.8-2.7,16.8c6.6-7.1,12.9-10.9,13.9-4.7C178.1,80.7,169.4,93.2,162.4,96.7z M148.7,88.6 c-0.5-3-3.3-5-6.3-4.5c-3,0.5-5,3.3-4.5,6.3s3.3,5,6.3,4.5C147.2,94.4,149.2,91.5,148.7,88.6z" fill="#e54863"/></g><g id="change4_1"><path d="M132.1,109.8c5.5-4.8,19.5,13.5,19.5,13.5s12.9-23.8,20.5-22.2c7.6,1.6-20.1,29.3-20.1,29.3 S122.7,118.1,132.1,109.8z M128.2,180.8c6.5-5.3,12.5-12.9,13.6-23.4c1.4-13.3-2.5-23-6.5-29.1c-2.2-3.4-7.4-3-9,0.8 c-2,4.7-5.2,10.6-9.5,19.6c-1.6,3.4-2.9,7.4-3.9,11.5c-1.5-5-4.8-15.7-7-24.7c-1.3-5-7.9-6.2-10.8-2c-2.2,3.2-4.4,7.2-5.6,11.8 c-0.5-3.9-1.1-10-1.4-16.2c-0.2-5-6.4-7.2-9.6-3.4c-4.4,5.2-8.6,13.3-8,25.1c0,0,1.7,18.3,9.9,28.9c-3.7-3.7-16.5-16.2-20.6-20.3 c0,0-3.4,20.1,22.7,26.6L45.2,176c0,0,11.3,30.8,61.1,16.4c-9.9,0.6-12.8-8-12.8-8s16.2,3.6,26.1-0.6c0,0-3.4,8-13.3,8.5 c0,0,10,6.2,29.4,0.1c19.1-6,26.8-30.2,26.8-30.2C152.7,164.4,128.2,180.8,128.2,180.8L128.2,180.8z" fill="#86a340"/></g><g id="change5_1"><path d="M93.5,184.5C76.9,164,80.7,134.4,80.7,134l1,0.1c0,0.4-3.9,30.5,13.3,50.6C94.1,184.6,93.5,184.5,93.5,184.5z M119.6,183.9c18.3-21.8,11.3-47.5,11.2-47.8l-1,0.3c0.1,0.3,7.2,25.7-12.5,48.3C118.1,184.4,118.9,184.2,119.6,183.9z M106.7,185.9 c-10.4-21.3-4.7-46.6-4.6-46.9l-1-0.2c-0.1,0.3-5.8,25.6,4.5,47.1C105.9,185.9,106.3,185.9,106.7,185.9z M148.8,170.1 c10.2-39.8-2.6-69.7-2.8-70l-0.9,0.4c0.1,0.3,12.9,29.9,2.7,69.4C148.2,169.9,148.5,170,148.8,170.1z M57.7,96.6 c1.4-5.6,3.1-9.2,4.7-12.4c1.8-3.6,3.3-6.7,3.8-12l0-0.5l9.8,0.5L76,72.8c0,0.1-3.5,13-0.8,21.3c1.9,6,1.9,10.8-0.1,14.5 c-1.8,3.2-5.1,5.6-9.9,6.9c-0.8,4.7-5,36,9.8,58.9c-0.9-0.9-1.9-1.8-2.9-2.8c-12.6-22.7-8.7-51.5-7.9-56.2 C62.8,114.3,55,107.8,57.7,96.6z M72.6,73.1c-0.5,1.7-3.9,13.6-1.6,24.7c1.2,5.9,0.2,11.7-2.5,15.4c2.6-1.3,4.5-3,5.6-5.1 c1.9-3.5,1.9-7.9,0-13.7c-2.4-7.6,0-18.5,0.7-21.2L72.6,73.1z M69.9,72.9c-0.3,2.7-1.9,15.5-7,26c-3.3,6.9,1,14.1,2,15.6 c0.5-0.1,1-0.3,1.5-0.5c3.5-3.3,5-9.6,3.6-16.1c-2.2-10.9,0.9-22.5,1.6-25L69.9,72.9z M62.6,112.6c-1.6-3.2-3.3-8.7-0.7-14.1 c5-10.4,6.6-22.9,6.9-25.6l-1.7-0.1c-0.6,5.1-2.1,8.3-3.9,11.8c-1.5,3.1-3.2,6.6-4.6,12.2C56.8,104.6,60.1,109.9,62.6,112.6z M34.5,121.7c0-7.2,1.5-12.1,2.8-16.4c1.4-4.8,2.6-8.9,1.8-15.1L39,89.8l9-1.2l-0.1,0.6c0,0.1-1.3,11.8,4.1,20.8 c2.8,4.6,7.1,13.4,4.9,21.6c-1.1,4.2-3.9,7.6-8.3,10.1c-0.1,1.9,0,14.3,12.5,27.8c0.3,0.9,0.7,1.7,1.2,2.6 c-13.9-13.7-14.7-26.9-14.7-30.1C47.4,142.1,34.4,136.9,34.5,121.7z M50.3,119.5c3.1,6.6,3.5,13.7,1.3,18.9c2.1-2,3.6-4.3,4.3-7 c2.2-8.1-2.6-17.2-4.8-20.8c-5-8.2-4.5-18.2-4.3-20.8L45.2,90C45.1,92.7,44.6,107.3,50.3,119.5z M41.9,90.4C42,93.6,42.6,110,41,123 c-1.1,9.4,5.5,16.7,6.9,18.1c0.6-0.4,1.2-0.7,1.8-1.1c3.2-4.9,3.1-12.8-0.3-20.1c-5.6-12.1-5.3-26.6-5.2-29.8L41.9,90.4z M35.5,121.7c-0.1,10.5,6.4,16,10.1,18.2c-2.5-3.1-6.5-9.4-5.5-17.1c1.6-12.8,1-29,0.9-32.4l-0.8,0.1c0.7,6.1-0.5,10.4-1.9,15 C37,109.8,35.5,114.6,35.5,121.7z M138.8,13.1l-0.1-1c-8,0.9-30.7,0-30.9,0l0,1c0.2,0,10.3,0.4,19.4,0.4 C131.7,13.5,136,13.4,138.8,13.1z M191.8,12.5c-3.1-0.4-6.7-0.2-11-0.1c-3.4,0.1,0.1,0.2-3.6,0.1c-8.3-0.2-31.9-0.4-32.1-0.4l0,1 c0.2,0,23.8,0.2,32.1,0.4c3.7,0.1,0.4,0,3.6-0.1c4.2-0.1,7.9-0.2,10.9,0.1c3.5,0.4,2.9,14.6,2.3,28.4c-0.2,5.7-0.5,11.6-0.5,17 c0,19.5-1.1,83.2-1.2,83.9v26.2h1v-26.2c0-0.6,1.2-64.4,1.2-83.9c0-5.4,0.2-11.3,0.5-17C195.7,24,195.9,13,191.8,12.5z M192.4,186.9 h1v-7.6h-1V186.9z M111.1,238.5c-14.6-0.1-27.2-0.2-30.4-0.1c-3.9,0.2-12,0.1-20.6,0c-9.3-0.1-18.9-0.2-25.2,0l0,1 c6.3-0.2,15.9-0.1,25.2,0c8.6,0.1,16.7,0.2,20.6,0c3.1-0.2,15.7,0,30.3,0.1c13.1,0.1,24.4,0.2,32.9,0.2c9.8,0,15.8-0.1,16.5-0.5 l-0.4-0.9C158.6,238.9,131.2,238.7,111.1,238.5z M66.8,242.9h29.3v-1H66.8V242.9z M14.8,201l-1,0l1.6,38.2l7.7,0.4l0.1-1l-6.8-0.4 L14.8,201z M14.8,196.5c0-0.8,0.6-84.9,0-104.7l-1,0c0.6,19.8,0,103.8,0,104.7L14.8,196.5z M14.8,70.6h-1v6.9h1V70.6z" fill="#3f3f3f"/></g></svg>