<?xml version="1.0" encoding="UTF-8"?><svg xmlns="http://www.w3.org/2000/svg" xmlns:xlink="http://www.w3.org/1999/xlink" height="84.3" preserveAspectRatio="xMidYMid meet" version="1.0" viewBox="0.1 0.1 442.7 84.3" width="442.7" zoomAndPan="magnify"><g id="change1_1"><path d="M0.2,0.8h441.2v12.7H0.2V0.8z" fill="#e95f52"/></g><g id="change2_1"><path d="M41.6,13.5h-5.3H21.4V17c0,6.1,0.6,12.1,1.8,18.1l9.5,46.5c0.3,1.7,1.8,2.8,3.5,2.8l0,0h5.3l0,0 c1.7,0,3.1-1.2,3.5-2.8l9.5-46.5c1.2-5.9,1.8-12,1.8-18.1v-3.6H41.6z M405.4,13.5h-5.3h-14.9V17c0,6.1,0.6,12.1,1.8,18.1l9.5,46.5 c0.3,1.7,1.8,2.8,3.5,2.8l0,0h5.3l0,0c1.7,0,3.1-1.2,3.5-2.8l9.5-46.5c1.2-5.9,1.8-12,1.8-18.1v-3.6H405.4z" fill="#333"/></g><path d="M0.8,0.8h441.2v12.7H0.8V0.8z" fill="none" stroke="#333" stroke-linejoin="round" stroke-miterlimit="10" stroke-width="1.5"/></svg>