<?xml version="1.0" encoding="UTF-8" standalone="no"?><svg xmlns="http://www.w3.org/2000/svg" xmlns:xlink="http://www.w3.org/1999/xlink" fill="#000000" height="1941.2" preserveAspectRatio="xMidYMid meet" version="1" viewBox="0.0 0.0 1361.4 1941.2" width="1361.4" zoomAndPan="magnify"><g data-name="Слой 2"><g data-name="Слой 1"><g id="change1_1"><path d="M1292.23,1941.17H100V100H1292.23a69.22,69.22,0,0,1,69.22,69.22V1872A69.22,69.22,0,0,1,1292.23,1941.17Z" fill="#378f81"/></g><g id="change2_1"><path d="M1281.11,1930.06H88.92L0,1841.14,88.92,88.92,1233.34,13.56c18.74,0,83.52,82.81,96,94.91a69,69,0,0,1,21,49.67v1702.7A69.22,69.22,0,0,1,1281.11,1930.06Z" fill="#f2f2f2"/></g><g id="change3_1"><path d="M1214.42,1864.48H33.35v-2.23H1214.42a68.18,68.18,0,0,0,68.11-68.11V91.45h2.22V1794.14A70.41,70.41,0,0,1,1214.42,1864.48Z" fill="#666666"/></g><g id="change3_2"><path d="M1236.65,1886.71H55.58v-2.23H1236.65a68.18,68.18,0,0,0,68.11-68.11V113.68H1307V1816.37A70.41,70.41,0,0,1,1236.65,1886.71Z" fill="#666666"/></g><g id="change3_3"><path d="M1258.88,1908.94H75.58v-2.22h1183.3a68.19,68.19,0,0,0,68.11-68.11V135.91h2.22v1702.7A70.41,70.41,0,0,1,1258.88,1908.94Z" fill="#666666"/></g><g id="change1_2"><path d="M1192.19,1841.14H0V0H1192.19a69.22,69.22,0,0,1,69.22,69.22V1771.91A69.23,69.23,0,0,1,1192.19,1841.14Z" fill="#378f81"/></g><g id="change1_3"><path d="M120.58 1941.17L98.35 1941.17 0 1841.13 22.23 1841.13 120.58 1941.17z" fill="#378f81"/></g></g></g></svg>