<?xml version="1.0" encoding="UTF-8" standalone="no"?><svg xmlns="http://www.w3.org/2000/svg" xmlns:xlink="http://www.w3.org/1999/xlink" fill="#000000" height="406.9" preserveAspectRatio="xMidYMid meet" version="1" viewBox="-0.7 -0.2 505.0 406.9" width="505" zoomAndPan="magnify"><g><g><g><g id="change1_1"><path d="M8.2,406.6c-1.1,0-2.1,0-3.1-0.3c-3.3-0.8-5.3-3.7-5-7.1c0.3-3.2,3-5.7,6.2-5.7c1.8,0,3.7,0,5.5,0l6.7,0 l1.5,0c0.6,0,1.1,0,1.7-0.1c0.3,0,0.5,0,0.8,0c0-0.4,0.1-0.7,0.3-1c4.3-6.8,6.5-14.3,8-20.6c1.7-6.8,2.5-13.6,3.1-18.8 c1-9.6,0.9-19.1,0.7-26.4c-0.2-5-0.6-10.1-1.4-15.1c-0.7-4.3-1.4-8.3-2.2-12c0-0.2,0-0.5,0-0.7c0-0.1,0-0.2,0-0.3 c-0.2-0.4-0.4-0.7-0.3-1.1c-0.5-0.9-0.8-1.9-1-2.8c-0.1-0.5-0.2-1-0.4-1.5c-0.2-0.5-0.3-1-0.5-1.4c-0.5-1.5-0.9-3-1.7-4.4 c-0.6-0.4-0.6-1-0.5-1.7c-0.4-0.8-0.8-1.7-1.2-2.4c-0.7-1.4-1.3-2.8-2.2-4.2l-1.1-1.7l-4.8,0c-3.6,0-7.2,0-10.8-0.1 c-2,0-3.8-0.8-5.1-2.3c-1.2-1.5-1.7-3.4-1.4-5.4c0.4-2.7,2.4-4.6,5.4-5.2c0.5-0.4,1-0.4,1.3-0.4c0.2,0,0.4,0,0.6,0 c0.2,0,0.4,0,0.6,0c12.5,0,25,0,37.5,0h19.5l-0.9-0.7c-0.5-0.3-0.9-0.6-1.3-0.8c-5.6-3.7-8.5-8.9-8.7-15.4c0-1.8,0-3.7,0-5.5 c0-1.9,0-3.8,0-5.7c-0.2-8.5,5.4-16,13.7-18.4c0.3-0.1,0.5-0.2,0.8-0.5l-2.7-0.1l-2.7,0c-1.5,0-3.1,0-4.6,0c0,0,0,0,0,0 c-0.2,0-0.4,0-0.6,0s-0.4,0-0.5,0c-0.4,0-0.8,0-1.3-0.4c-4.7-0.7-8-3.2-9.8-7.5c0.1-0.3,0.3-0.4,0.5-0.4l0.3,0c1.7,0,3.5,0,5.2,0 l1.7,0l0.1-3l0-2.9c-0.1-0.6-0.1-1.2,0-1.8l0-22.8c-0.6-0.8-0.6-1.5,0-2.2l0-3.3l0-3.3c-0.1-0.9-0.1-1.7,0-2.6l0-6.6 c-0.1-0.5-0.1-0.9,0-1.3l0-6.6c-0.1-0.1-0.1-0.2-0.1-0.3l-8-0.1c2.3-4.5,5.5-7,10.1-7.5c0.4-0.3,0.8-0.4,1.1-0.4l17.6,0.1l0,0 l0.1-0.1c0-0.3-0.1-0.5-0.2-0.7c-0.1-0.3-0.3-0.7-0.2-1c-0.9-0.4-1.3-1-1.2-2c0-0.3,0-0.6,0-0.9l0-0.4l0-11.9 c0-16.1,0-32.3-0.1-48.4c0-1.5,0-3,0.4-4.5c0.4-1.8,1.2-2.5,3-2.8c0.6-0.1,1.1-0.2,1.7-0.3c0.2-0.1,0.5-0.1,0.7-0.2 c0.5-0.8,1.2-1.1,1.9-1.4c0.3-0.1,0.5-0.2,0.8-0.3c8.9-4.6,16.7-9.3,23.9-14.3c13.9-9.9,25.6-22.6,35.9-38.9 c3.3-5.2,5.3-9.5,6.7-13.8c0.3-1,0.9-1.4,1.8-1.4c0.3,0,0.4,0,0.6,0l1.1,0h35.5c58.1,0,116.2,0,174.2,0c0.2,0,0.4,0,0.7,0 s0.4,0,0.7,0c0.5,0,1,0.1,1.3,0.2l0.3-0.2l0.2-0.2c0.3-0.3,0.6-0.4,0.9-0.4c0.2,0,0.3,0.1,0.5,0.2c0.4,0.3,0.6,0.7,0.5,1.4 c-0.1,0.5-0.2,1-0.4,1.6c-2.5,9-7.2,17.7-14.2,26.5c-8.9,11.1-19.7,21-32.9,30.3c-5.9,4.1-13.8,9.4-22.4,13.3 c0.4,0.5,0.9,0.5,1.2,0.5c0.2,0,0.4,0,0.6,0c0.2,0,0.4,0,0.6,0c20.2,0,40.4,0,60.6,0h22.5c1.5,0,2.3,0.1,2.7,0.5 c0.4,0.5,0.5,1.3,0.4,2.8c0.4,0.8,0.4,1.4,0,2l0,0.8c0.1,1.8,0.1,3.7-0.1,5.5c0.2,0.6,0.2,1.3,0,1.9c0.2,2.2,0.3,4.5,0,6.8 c0.2,0.7,0.3,1.4,0.1,2c0.1,2.3,0.1,4.3,0,6.3c0.3,0.7,0.3,1.3,0,2l0,1.1c0.1,6.4,0.2,12.9-0.1,19.4l0,1.5 c0.2,4.5,0.3,9.2-0.1,14c0.5,0.4,0.8,0.8,0.8,1.1c0,0.4-0.2,0.7-0.6,1.1c0,0.4-0.1,0.7-0.3,1c-0.1,0.1-0.1,0.2-0.2,0.3l4.5,0.1 c3.7,0,7.4,0,11.1,0l4,0c0.1,0,0.2,0,0.4,0s0.2,0,0.4,0c0.3,0,0.7,0,1,0.3c6.4,0.7,11.1,6,11.1,12.5c0,7.8,0,15.7,0,23.5l0,9.7 c0,1.4,0,2.7,0,4.1c0,3-0.1,6,0.1,9c0.1,3.6-1.2,7.1-3.5,9.6c-2.4,2.5-5.7,3.9-9.5,3.9c-0.2,0-0.4,0-0.6,0l-0.3,0 c0.8,1.9,0.9,3.3,0.5,4.3c-0.4,1-1.3,1.7-2.8,2.4c-0.4,0.4-0.9,0.5-1.4,0.5c-0.1,0-0.9,0-0.9,0c-0.5,0-1.1,0-1.6,0l-1.8,0 c-0.2,0.6-0.2,1.3-0.2,1.9c0,0.7,0,1.4-0.3,2.1c0.2,0.4,0.2,0.8,0.1,1.3c0.2,2.3,0.2,4.5,0.1,6.8c0,1.2,0,2.4,0,3.5 c0,0.3-0.1,0.5-0.3,0.7l0,0.5l0,0.4c0.3,0.3,0.3,0.7,0.3,1l0,10.5c0,0.3,0,0.7-0.3,0.9l-0.1,1.3c0.4,0.4,0.4,0.9,0.4,1.4 c0,0.2,0,0.4,0,0.5c0.1,1.8,0.1,1.8,1.9,1.8c0.5,0,1.9,0,1.9,0l1.2,0c0.3,0,0.6,0,0.9,0.3c1,0.2,0.9,1,0.9,1.7 c1,0.7,1.3,1.7,0.9,3.1c0.5,0.3,0.9,0.3,1.2,0.3c0.2,0,0.3,0,0.5,0c0.2,0,0.3,0,0.5,0c3.6,0,7.3,0,10.9,0c4.8,0,9.5,0,14.3,0 c0.2,0,0.4,0,0.5,0c0.2,0,0.4,0,0.5,0c0.4,0,0.8,0.1,1,0.4c18.3,1.1,34.1,8.2,46.9,21.2c10.9,11,17.5,24.5,19.7,40.1 c5.1,35.9-17.8,69.8-53.3,78.8c-3.5,0.9-7.4,1.5-12.1,1.9c-2.6,0.2-5.2,0.2-7.4,0.2l-2.3,0c-106.1,0-212.2,0-318.4,0H8.2z" fill="#3f3f3f"/></g><g id="change2_1"><path d="M470.5,335.1c-0.6,0-1.2,0-1.9,0c-48.8,0-97.5,0-146.3,0c-0.8,0-1.5,0-2.3,0c-0.6,0-1-0.4-1.1-1 c-0.1-0.7,0.4-1,0.9-1.2c0.7-0.3,1.5-0.1,2.3-0.1c15.5,0,31.1,0,46.6,0c33.2,0,66.3,0,99.5,0c2.9,0,2.9,0,1.8-2.8 c-0.9-2.1-2.1-4.1-2.7-6.3c-0.2-0.7-0.6-1-1.4-1c-0.6,0-1.2,0-1.9,0c-83.2,0-166.3,0-249.5,0c-0.8,0-1.7,0-2.5-0.1 c-0.6-0.1-1-0.5-1-1.1c0-0.7,0.5-0.9,1.1-0.9c0.8,0,1.5,0,2.3,0c82.8,0,165.7,0,248.5,0c0.5,0,1,0,1.5,0c2.2,0,2.2,0,1.9-2.2 c-0.1-0.5-0.1-1,0-1.5c0.4-3.2-1.4-5.2-3.9-6.7c-1.5-0.9-3-1.7-4.6-2.5c-4.6-2.2-6.7-5.9-6.5-10.9c0.1-3.1-1.3-4.9-3.9-6.2 c-2.1-1.1-4.3-1.9-6.3-3.1c-3.4-2.2-5-5.4-5.2-9.4l0,0c-0.2,0.1-0.4-0.1-0.5-0.2c-3.2-0.4-6.5-0.4-9.8-0.4 c-133.9,0-267.7,0-401.6,0c-0.7,0-1.4,0-2.1,0.1c0.4,0.6,0.8,1.1,1.1,1.7c1.4,2.1,2.2,4.4,3.4,6.6c1-0.6,2-0.4,3.1-0.4 c53.9,0,107.8,0,161.7,0c79.2,0,158.4,0,237.7,0c0.8,0,1.5,0,2.3,0.1c0.6,0.1,1.1,0.5,1.1,1.1c0,0.7-0.6,0.9-1.2,0.9 c-0.8,0-1.5,0-2.3,0c-127.5,0-255,0-382.5,0c-6.5,0-12.9,0-19.4,0c1,1.8,1.5,3.8,2.1,5.8c0.5,1.4,0.6,3,1.4,4.3 c1-0.8,2.2-0.9,3.5-0.9c90.9,0,181.9,0,272.8,0c0.7,0,1.4,0,2.1,0.1c0.5,0.1,1,0.5,1,1.2c0,0.5-0.5,0.8-0.9,1 c-0.3,0.1-0.7,0.1-1,0.1c-0.5,0-1,0-1.5,0c-90.7,0-181.5,0-272.2,0c-1.2,0-2.4,0.1-3.5-0.4c0,0.3-0.1,0.7,0,1c0.9,4,1.6,8,2.2,12 c0.8,5,1.2,10,1.4,15.1c0.3,8.8,0.3,17.6-0.7,26.4c-0.7,6.3-1.6,12.6-3.1,18.8c-1.8,7.2-4,14.3-8,20.6c-0.2,0.3-0.3,0.6-0.2,1 c0.8,0,1.5,0.1,2.3,0.1c135,0,269.9,0,404.9,0c1.8,0,3.6-0.2,5.4-0.5c1.3-3.4,3.8-5.7,6.6-7.8c2.9-2.2,6-3.9,8.7-6.3 c1.2-1.1,2.1-2.3,2.9-3.8c-0.7-0.5-1.5-0.3-2.2-0.3c-17.4,0-34.8,0-52.2,0c-19.6,0-39.1,0-58.7,0c-0.7,0-1.4,0-2.1-0.1 c-0.6-0.1-0.9-0.6-0.9-1.2c0.1-0.6,0.5-0.8,1-0.8c0.7,0,1.4,0,2.1,0c36.9,0,73.8,0,110.7,0c0.5,0,1,0,1.5,0 c1.2,0.1,1.8-0.3,2.4-1.5c1.3-2.9,3.8-4.9,6.3-6.8c3.8-2.8,5.5-6.4,5.5-11c0-2.8-0.3-5.5,0.9-8.2c0.8-1.7,1.8-3.3,2.7-4.9 c0.7-1.1,1.2-2.3,1.4-3.6C471.9,335.6,471.6,335,470.5,335.1z M43.9,308c0.7,0,1.4,0,2.1,0c65.8,0,131.7,0,197.5,0 c55.4,0,110.9,0,166.3,0c0.7,0,1.4,0,2.1,0c0.6,0,1.1,0.3,1.1,1c0,0.8-0.5,1.1-1.2,1.1c-0.7,0-1.4,0-2.1,0 c-60.7,0-121.4,0-182.1,0c-60.6,0-121.1,0-181.7,0c-0.7,0-1.4,0-2.1,0c-0.6,0-1.1-0.3-1.1-1C42.7,308.4,43.2,308.1,43.9,308z M35.8,345.9c0.3-0.3,0.8-0.3,1.2-0.3c0.6,0,1.1,0,1.7,0c66.2,0,132.4,0,198.5,0c0.5,0,1,0,1.5,0c0.9,0,1.7,0.2,1.9,1.2 c0.1,0.7-0.7,1.2-1.8,1.3c-0.6,0-1.1,0-1.7,0c-30.5,0-61,0-91.6,0c-2.6,0-5.1,0-7.7,0c-33.2,0-66.3,0-99.5,0c-0.7,0-1.4,0-2.1,0 c-0.5,0-0.9-0.3-1-0.9C35.1,346.6,35.4,346.2,35.8,345.9z M32.4,373.8c-0.6-0.1-1-0.5-1-1.1c0-0.6,0.3-0.9,0.8-1.1 c0.4-0.1,0.8-0.2,1.2-0.2c0.6,0,1.1,0,1.7,0c61.2,0,122.5,0,183.7,0c0.8,0,1.7,0,2.5,0.1c0.6,0.1,1.2,0.4,1.1,1.2 c-0.1,0.8-0.6,1.1-1.3,1.1c-0.6,0-1.2,0-1.9,0c-30.9,0-61.7,0-92.6,0c-30.7,0-61.5,0-92.2,0C33.8,373.8,33.1,373.8,32.4,373.8z M381.9,383.4c0.8,0,1.5,0,2.3,0.1c0.5,0,0.9,0.4,1,0.9c0,0.7-0.4,1-1,1.1c-0.7,0.1-1.4,0.1-2.1,0.1c-55.1,0-110.2,0-165.2,0 c-55,0-110,0-165,0c-0.8,0-1.5,0-2.3-0.1c-0.5,0-0.9-0.4-1-0.9c0-0.7,0.4-1,1-1.1c0.8-0.1,1.5-0.1,2.3-0.1 c59.8,0,119.6,0,179.4,0C281.4,383.4,331.6,383.4,381.9,383.4z M355.4,360.9c-0.5,0.1-1,0-1.5,0c-55.9,0-111.8,0-167.7,0 c-0.6,0-1.3,0-1.9-0.1c-0.5-0.1-0.9-0.5-0.9-1c0-0.6,0.4-0.9,0.8-1.1c0.6-0.3,1.2-0.2,1.8-0.2c5.6,0,11.2,0,16.9,0 c22.3,0,44.7,0,67,0c27.7,0,55.5,0,83.2,0c0.8,0,1.5-0.1,2.3,0.1c0.5,0.2,1,0.5,0.9,1.2C356.4,360.4,356,360.8,355.4,360.9z M295.2,139.5c0,0.7,0.3,1,1,1c0.6,0,1.2,0,1.9,0c28.2,0,56.4,0,84.6,0c0.9,0,1.8,0,2.7,0c0.4-4.7,0.3-9.3,0.1-14 c-0.9,0.4-1.8,0.5-2.8,0.5c-12.2,0-24.4,0-36.6,0c-0.6,0-1.1,0-1.7-0.1c-0.5-0.1-0.8-0.5-0.9-1c0-0.6,0.2-1.1,0.9-1.2 c0.5-0.1,1-0.1,1.4-0.1c12.3,0,24.5,0,36.8,0c1,0,1.9,0.3,2.8,0.5c0.3-6.8,0.2-13.7,0.1-20.5c-0.8,0-1.7,0.1-2.5,0.1 c-24.5,0-49.1,0-73.6,0c-0.7,0-1.4,0-2.1-0.1c-0.5-0.1-0.8-0.5-0.8-1.1c0-0.5,0.3-0.8,0.8-0.9c0.5-0.1,1-0.1,1.4-0.1 c25.1,0,50.2,0,75.3,0c0.5,0,1,0,1.5,0.1c0.2-2.1,0.1-4.2,0-6.3c-0.9,0.3-1.9,0.4-2.9,0.4c-18.5,0-37,0-55.5,0 c-0.6,0-1.1,0-1.7-0.1c-0.6-0.1-1.2-0.4-1.2-1.2c0-0.8,0.5-1.1,1.2-1.1c0.3,0,0.7,0,1,0c19.1,0,38.2,0,57.4,0c0.5,0,1,0,1.5,0.1 c0.2-2.3,0.3-4.5,0-6.8c-0.9,0-1.8,0.1-2.7,0.1c-24,0-48,0-72,0c-0.7,0-1.4,0-2.1-0.1c-0.5-0.1-0.9-0.4-0.9-1 c0-0.6,0.4-0.9,0.9-1c0.5-0.1,1-0.1,1.5-0.1c24.4,0,48.8,0,73.2,0c0.7,0,1.4,0.1,2.1,0.1c0.3-2.1,0.2-4.2,0.1-6.4 c-0.8,0-1.7,0.1-2.5,0.1c-27.5,0-55.1,0-82.6,0c-0.6,0-1.1,0-1.7,0c-0.7,0-1.1-0.3-1.1-1c0-0.6,0.4-1,1-1.1c0.3,0,0.7,0,1,0 c28.2,0,56.4,0,84.7,0c0.3,0,0.7,0,1,0.1c0.2-3.1-0.1-3.4-3.1-3.4c-0.3,0-0.7,0-1,0c-27.4,0-54.7,0-82.1,0 c-0.8,0-1.7,0.3-2.4-0.3c-1.7,0.6-1.7,0.6-1.7,2.4c0,13,0,26.1,0,39.1c0,7.8,0,15.5,0,23.3C295.2,138.5,295.2,139,295.2,139.5z M373.9,118.1c-0.3,1.4-1.5,1-2.4,1c-9.4,0-18.9,0-28.3,0c-9.2,0-18.4,0-27.7,0c-0.6,0-1.1,0-1.7,0c-0.6,0-1.1-0.3-1.1-1 c0-0.7,0.4-1,1-1.1c0.4,0,0.8,0,1.2,0c18.9,0,37.7,0,56.6,0C373.4,116.9,374,117.3,373.9,118.1z M298.8,109.9c0.3,0,0.6,0,0.8,0 c17.9,0,35.7,0,53.6,0c0.5,0,1,0,1.4,0.1c0.5,0.1,0.9,0.5,0.8,1c0,0.6-0.4,0.9-0.9,1c-0.6,0.1-1.2,0.1-1.9,0.1 c-8.7,0-17.5,0-26.2,0c-8.7,0-17.5,0-26.2,0c-0.6,0-1.1,0-1.7,0c-0.7,0-1.3-0.2-1.3-1C297.4,110.1,298.1,109.9,298.8,109.9z M271.9,227.3c0-0.1,0-0.3,0-0.4c1.4-1.7,3.2-2.7,5.4-2.9c1,0,1.9,0,2.9,0c37.5,0,75,0,112.5,0c1,0,1.9,0,2.9,0.1 c-0.4,1.3,0.1,2.7-0.4,3.9c-1-0.6-2.1-0.5-3.2-0.5c-39.1,0-78.3,0-117.4,0C273.7,227.5,272.8,227.6,271.9,227.3z M133.5,201.1 c0.5,0,0.9,0.4,1,0.9c0,0.7-0.4,1-1,1.1c-0.4,0.1-0.8,0-1.2,0c-25.2,0-50.3,0-75.5,0c-0.9,0-1.6-0.3-2.4-0.4 c-0.1-0.6-0.1-1.2,0-1.8c6.3,0,12.6,0,18.9,0c19.5,0,38.9,0,58.4,0C132.3,201,132.9,201,133.5,201.1z M54.3,178.2 c-0.5-0.7-0.6-1.5,0-2.2c16.7,0,33.4,0,50.2,0c6,0,11.9,0,17.9,0c0.6,0,1.1,0,1.7,0c0.5,0,0.9,0.3,0.9,0.9c0,0.5-0.2,1-0.8,1.1 c-0.7,0.1-1.4,0.1-2.1,0.1c-21.8,0-43.6,0-65.3,0C56,178.2,55.2,178.2,54.3,178.2z M68.2,184.4c24.6,0,49.1,0,73.7,0 c0.5,0,1.1,0,1.6,0.2c0.5,0.1,0.7,0.6,0.6,1.2c-0.1,0.5-0.4,0.7-0.8,0.8c-0.6,0-1.2,0-1.9,0c-12.2,0-24.4,0-36.6,0 c-12.1,0-24.1,0-36.2,0c-0.6,0-1.1,0-1.7,0c-0.5,0-1-0.2-1-0.8c-0.1-0.6,0.2-1.1,0.8-1.2C67.2,184.4,67.7,184.4,68.2,184.4z M123.7,192.7c10.4,0,20.8,0,31.2,0c0.6,0,1.2,0,1.9,0c0.4,0,0.8,0.3,0.9,0.7c0.1,0.5-0.2,0.8-0.5,1c-0.3,0.2-0.6,0.3-1,0.3 c-0.4,0.1-0.8,0-1.2,0c-20.9,0-41.9,0-62.8,0c-0.6,0-1.1,0-1.7-0.1c-0.6-0.1-0.9-0.6-0.8-1.2c0.1-0.6,0.5-0.8,1-0.8 c0.6,0,1.1,0,1.7,0C102.8,192.7,113.2,192.7,123.7,192.7z" fill="#fcf0d9"/></g><g id="change3_1"><path d="M54.6,152c0.8,0,1.7-0.1,2.5-0.1c34.1,0,68.2,0,102.4,0c5.3,0,10.1,4.4,10.1,10c0,12.3,0,24.7,0,37 c0,5.7-5,9.8-9.5,9.8c-34.9-0.1-69.9,0-104.9-0.1c-0.3,0-0.5,0-0.8-0.1l0,0c-0.6,0.6-1.3,0.3-1.9,0.3c-2,0.1-3.9,0.1-5.9,0.1 c1.8,4.4,5.1,6.9,9.8,7.5c5.3,0.1,10.5-0.3,15.8,0.2c1.1,0.1,2.2,0,3.3,0c107.2,0,214.4,0,321.6,0c0.7,0,1.4,0,2.1,0 c0.5,0,1,0,1.1,0.7c0.1,0.5,0.5,0.8,1,1c0.7,0.2,1.1,0.6,1,1.3c-0.1,0.8-0.7,1.4-1.5,1.6c-0.7,0.2-1.4,0.1-2.1,0.1 c-39.5,0-79.1,0-118.6,0c-1.5,0-3-0.1-4.5,0.4c-1.9,0.7-3.6,1.6-4.9,3c-3.4,3.6-5.5,7.8-6.3,12.6c-0.7,3.9-0.6,7.8,0.2,11.8 c1.2,6.6,5.7,9.7,11.6,11.3c1.6,0.4,3.1,0.5,4.7,0.5c39.7,0,79.4,0,119.1,0c0.9,0,1.8,0.1,2.6-0.5c0-0.8,0-1.5-0.9-1.7 c-2.7,0.2-5.4-0.1-8.1-0.1c-37.7,0-75.3,0-113,0c-3.6,0-6.8-1.2-9.8-3.3c0.8-0.4,1.5-0.3,2.2-0.3c39.8,0,79.6,0,119.4,0 c1,0,2.1,0.1,3-0.4c0-0.4,0-0.8,0.1-1.3c-1-0.8-2.2-0.6-3.4-0.6c-26.1,0-52.2,0-78.2,0c-14.4,0-28.9,0-43.3,0 c-2.4,0-2.4,0-3.1-2.2c-1.5-4.6-1.4-9.3-0.5-14c0.2-0.8,0.6-1.2,1.4-1.1c0.5,0,1,0,1.5,0c37,0,73.9,0,110.9,0c0.6,0,1.2,0,1.9,0 c0.7,0,1.5-0.1,1.5-1c0.1-1.1-0.8-1.2-1.6-1.2c-0.6,0-1.2,0-1.9,0c-36.7,0-73.4,0-110.1,0c-0.8,0-1.5,0-2.4,0 c0-1.3,0.8-2.2,1.4-3.2c0.2-0.3,0.5-0.4,0.9-0.4c0.6,0,1.2,0,1.9,0c40.1,0,80.2,0,120.3,0c1,0,2.1,0.2,3-0.6 c0.1-0.4,0.1-0.8-0.1-1.2c-1-0.6-2.1-0.5-3.2-0.5c-39.1,0-78.3,0-117.4,0c-0.9,0-1.8,0.2-2.7-0.2c-0.1,0.1-0.2,0.2-0.3,0 c-0.1-0.2,0.1-0.4,0.3-0.4c1.4-1.7,3.2-2.7,5.4-2.9c0.7-0.4,1.5-0.2,2.2-0.2c37.8,0,75.7,0,113.5,0c2.8,0,5.5-0.1,8.3-0.2 c3.1-1.3,3.8-3.2,2.2-6.7c0.3,0,0.6-0.1,0.8-0.1c8.4-0.1,13.4-6.6,13.1-13.5c-0.1-4.4,0-8.7,0-13.1c0-11.1,0-22.2,0-33.3 c0-6.6-4.7-11.9-11.2-12.6c-6.7,0-13.4,0-20.2,0c-0.4,0-0.8,0.1-1.1-0.4l0,0c-0.7,0-1.4,0.1-2.1,0.1c-101.6,0-203.2,0-304.9,0 c-1,0-2.1,0-3.1,0l-0.1,0c-0.3,0.4-0.7,0.3-1.2,0.3c-5.9,0-11.8,0-17.6,0c-4.7,0.6-7.9,3.2-10.1,7.6c2.9,0,5.4,0,7.9,0 C54.3,152,54.4,152,54.6,152z M403.3,209.9c2.7-2.2,2.8-5.3,3-8.3c0.8-9.3,0.5-18.7,0.5-28.1c0-5.2,0.1-10.4-0.4-15.6 c-0.3-2.9-0.7-5.8-2.6-8.2c-0.4-0.5-0.6-1.1,0-1.7c0.7-0.6,1.3-0.1,1.8,0.4c1,1.1,1.6,2.4,2.1,3.8c0.8,2.6,1.1,5.3,1.2,8 c0.2,6.4,0.3,12.9,0.4,19.6c-0.1,6.2-0.3,12.7-0.5,19.2c-0.1,2.7-0.4,5.4-1.1,8c-0.5,1.7-1.4,3.2-2.8,4.3 c-0.5,0.4-1.1,0.7-1.7,0.1C402.6,210.9,402.8,210.3,403.3,209.9z M392.5,208.7c2.8-1.9,3.6-4.8,3.9-7.9c0.2-2.3,0.3-4.7,0.3-7.1 c0.2-9.1,0.5-18.3,0.6-27.4c0.1-3.9,0.1-7.9-0.9-11.8c-0.4-1.7-0.8-3.4-2.4-4.4c-0.5-0.3-0.7-0.9-0.2-1.4 c0.4-0.5,0.9-0.5,1.5-0.3c1.2,0.6,1.9,1.6,2.3,2.8c1,2.4,1.5,4.9,1.7,7.5c0.6,6.8,0.1,13.6,0,18.1c-0.2,8.6-0.4,14.9-0.6,21.2 c-0.1,2-0.2,4-0.7,6c-0.4,1.8-1.2,3.4-2.3,4.8c-0.6,0.8-1.3,1.5-2.2,1.8c-0.6,0.2-1.3,0.3-1.6-0.5 C391.7,209.5,392,209,392.5,208.7z M186.3,148.2c0.7-0.5,1.3,0,1.8,0.5c1.1,1.2,1.9,2.7,2.3,4.4c1.1,3.6,1.3,7.2,1.4,10.9 c0.3,5.9,0.7,11.8,0.6,17.1c0.2,6.5,0.4,12.5,0.2,18.4c-0.1,2.4-0.2,4.7-0.7,7c-0.4,1.7-1,3.3-2.3,4.6c-0.4,0.3-0.7,0.7-1.2,0.8 c-0.4,0.1-0.8,0.1-1.1-0.3c-0.3-0.4-0.3-0.7-0.1-1.1c0.1-0.1,0.1-0.3,0.2-0.3c2.6-2.1,2.7-5.2,2.8-8.2c0.4-9.4,0.1-18.8-0.3-28.3 c-0.2-5.3-0.3-10.7-0.9-16c-0.3-2.8-0.8-5.5-2.8-7.7C185.8,149.4,185.5,148.8,186.3,148.2z M176.2,149.2c0.3-0.6,0.8-0.7,1.4-0.5 c1.3,0.5,1.9,1.5,2.5,2.7c1.1,2.4,1.7,5,2,7.6c0.7,6.1,0.5,12.3,0.6,18.5c0,1.5,0,2.9,0,4.4c0,5.3,0,10.7,0,16 c0,2.2-0.1,4.4-0.6,6.6c-0.4,1.6-1.1,3.1-2,4.5c-0.5,0.8-1.1,1.4-1.9,1.8c-0.6,0.3-1.2,0.5-1.7-0.1c-0.6-0.7-0.2-1.3,0.5-1.7 c1.3-0.8,2-2.1,2.5-3.5c0.6-1.4,0.9-2.9,1-4.4c0-1.3,0.1-2.6,0.1-4c0-10.3,0-20.5-0.1-30.8c0-3.7-0.2-7.3-1.2-10.9 c-0.5-1.9-0.8-3.8-2.7-5C176,150.2,175.9,149.7,176.2,149.2z M446,404.5c-4,1-8,1.6-12.1,1.9c-3.3,0.3-6.5,0.2-9.8,0.2 c-138.5,0-277.1,0-415.6,0c-1.2,0-2.3,0-3.5-0.3c-3.3-0.8-5.3-3.7-5-7.1c0.3-3.2,3-5.7,6.3-5.8c4.6-0.1,9.2,0,13.7,0 c0.8,0,1.7-0.1,2.5-0.1c0.8,0,1.5,0.1,2.3,0.1c135,0,269.9,0,404.9,0c1.8,0,3.6-0.2,5.4-0.5c2.2-0.1,4.3-0.5,6.3-1 c12.4-2.9,22.8-9,31.2-18.7c8.4-9.8,13.1-21.1,14-34c0.6-7.5-0.3-14.8-2.8-21.9c-6-17.4-17.6-29.5-34.7-36.3 c-4.2-1.7-8.5-2.9-13.1-3.1c0,0,0,0,0,0c-0.1-0.2-0.3-0.3-0.5-0.2c-3.2-0.4-6.5-0.4-9.8-0.4c-133.9,0-267.7,0-401.6,0 c-0.7,0-1.4,0-2.1,0.1c-5.2,0-10.4,0-15.5-0.1c-4.3,0-7.2-3.5-6.5-7.7c0.4-2.7,2.4-4.6,5.4-5.2c0.1,0,0.1,0,0.2,0 c19.9,0,39.8,0,59.7,0c0.5,0,1-0.1,1.4,0.1c2.9,1.1,6,0.9,9.1,0.9c107.3,0,214.6,0,321.8,0c0.8,0,1.7,0,2.5,0 c0.5,0,1.1,0,1.4-0.2c1.1-0.9,2.3-0.7,3.6-0.7c9.2,0,18.3,0,27.5-0.1c18.3,1.1,34,8.2,46.9,21.2c11,11.1,17.5,24.6,19.7,40.1 C504.3,361,482,395.3,446,404.5z M73.5,139.1c0-20.1,0-40.2-0.1-60.3c0-1.5,0-3.1,0.4-4.6c0.4-1.8,1.2-2.6,3-2.8 c0.8-0.1,1.6-0.3,2.4-0.5c0.6,0.7,1.4,0.4,2.1,0.4c14.6,0,29.1,0,43.7,0c52.3,0,104.6,0,156.9,0c0.8,0,1.5,0,2.3,0.1 c0.7,0.1,1.4,0.4,1.3,1.3c-0.1,0.7-0.7,1-1.3,1c-0.7,0-1.4,0-2.1,0c-67.5,0-135,0-202.5,0c-3.7,0-3.8,0.1-3.8,3.8 c0,19.2,0,38.4,0,57.7c0,1.7,0,3.5,0,5.2c0,0.9-0.2,1.7-1.2,1.9c-0.9-0.4-1.3-1-1.2-2C73.5,139.9,73.5,139.5,73.5,139.1z M292.8,139.1c0-21.6,0-43.1,0-64.7c0-1.3,0.1-2.3,1.5-2.8c8-3,15.2-7.6,22.2-12.5c9.7-6.7,18.7-14.1,26.8-22.7 c6-6.4,11.5-13.2,15.7-20.9c2.3-4.1,3.9-8.6,5.3-13.1c0.2-0.5,0.3-1.1,0.1-1.6c0.2-0.1,0.3-0.3,0.5-0.4c0.4-0.4,0.9-0.6,1.5-0.3 c0.5,0.3,0.6,0.9,0.6,1.5c-0.1,0.5-0.2,1.1-0.4,1.6c-2.7,9.9-7.8,18.5-14.2,26.5c-9.5,11.7-20.6,21.6-32.9,30.3 c-7.1,5-14.5,9.7-22.5,13.3c-1.7,0.6-1.7,0.6-1.7,2.4c0,13,0,26.1,0,39.1c0,7.8,0,15.5,0,23.3c0,0.5,0,1,0,1.5c0,0.7,0.3,1,1,1 c0.6,0,1.2,0,1.9,0c28.2,0,56.4,0,84.6,0c0.9,0,1.8,0,2.7,0c1,0.7,1.1,1.4,0.2,2.3c-0.8,0-1.5,0-2.3,0c-28.8,0-57.7,0-86.5,0 c-0.6,0-1.1,0-1.7,0c-1.3-0.1-2.2-0.9-2.3-2.2C292.8,140.1,292.8,139.6,292.8,139.1z M395.2,241c-0.6,0.6-1.4,0.9-2.3,0.8 c-0.3,0-0.6,0-0.8,0c-37.1,0-74.2,0-111.3,0c-0.6,0-1.3,0-1.9-0.1c-0.6-0.1-1-0.5-1-1.1c0-0.7,0.5-1,1-1.1 c0.5-0.1,1.1-0.1,1.7-0.1c37.3,0,74.6,0,111.9,0c1,0,1.9,0.1,2.7,0.8C395.2,240.5,395.2,240.7,395.2,241z M86.7,123.4 c0.9,0.3,1.8-0.1,2.6-0.5c1.3-0.7,1.8-2.1,1.4-3.3c-0.5-1.3-2-2-3.4-1.6c-0.6,0.2-1,0.7-1.7,0.5c-0.3-1.5,0.2-2.9,0.9-4.2 c0.9-1.8,2-3.5,3.2-5.1c0.4-0.6,0.9-1.1,0.5-1.9c-0.3-0.8-1.1-0.7-1.8-0.7c-1.8-0.1-2.9-1.5-2.3-3.3c0.2-0.8,0.7-1.5,1.2-2.2 c0.5-0.6,1-1.2,1.4-1.8c1.1-1.6,0.7-2.9-1.1-3.6c-0.2-0.1-0.4-0.1-0.6-0.2c-1.6-0.7-2.1-1.6-1.7-3.3c0.2-1.1,0.7-2.1,1.4-3 c0.6-0.7,1.1-1.4,1.4-2.3c0.6-2.2-1.1-5.2-3.3-5.7c-0.6-0.1-1.1-0.1-1.5,0.5c-0.4,0.6-0.1,1.1,0.4,1.5c0.4,0.3,0.8,0.5,1.2,0.8 c1.2,1,1.3,1.8,0.5,3.1c-0.3,0.5-0.7,0.9-1,1.3c-1,1.3-1.5,2.9-1.5,4.5c-0.1,2.6,1.3,4.3,3.8,5.1c-0.8,1.1-1.6,2.1-2.2,3.1 c-1.6,2.8-1,5.2,1.4,7.2c0.3,0.2,0.5,0.4,0.9,0.7c-1.1,1.6-2.1,3.2-2.8,4.9c-1,2.2-1.4,4.5-0.4,6.9c0.3,0.6,0.1,1.2,0,1.8 c-0.4,2.3-0.2,4.4,1.7,6.1c1.2,1.1,1.2,1.1,0.2,2.5c-1,1.4-1.8,2.9-1.6,4.8c0.2,2.6,2.8,3.3,4.7,2.2c0.6-0.3,1-0.8,0.7-1.6 c-0.2-0.7-0.8-0.8-1.5-0.7c-1.4,0.2-1.7-0.2-1.3-1.5c0.4-1.1,1.2-2,1.9-3c1.6-2,1.5-2.8-0.7-4.1c-1.2-0.7-1.7-1.7-1.7-3.1 C85.8,123.6,85.9,123.1,86.7,123.4z M87.9,120.4c0.1,0,0.2,0.1,0.3,0.2c-0.1,0.3-0.3,0.4-0.6,0.4c-0.1,0-0.2-0.2-0.2-0.2 C87.4,120.4,87.6,120.3,87.9,120.4z M283,127.5c1.6,1.4,1.4,3.3,0.6,5c-0.9,2-2.5,3.1-4.5,3.3c-1,0-1.7-0.1-1.8-1 c-0.2-0.9,0.5-1.2,1.2-1.3c1.2-0.3,2.4-0.7,2.9-2c0.5-1.2,0.3-1.9-0.8-2.6c-1.9-1.3-2-2.4-0.4-4c0.4-0.4,0.9-0.7,1.3-1.1 c1.4-1.4,0.8-2.8-0.8-3.1c-1.9-0.4-3-1.7-3.4-3.5c-0.4-2-0.2-4,1-5.8c0.6-1,1.3-2,2-2.9c1.4-1.6,1.2-3.3,0.3-5 c-0.6-1.1-1.5-2-2.3-2.9c-1.6-2-2.3-4.2-1.3-6.8c0.4-0.9,0-1.4-0.3-2.1c-1.2-2.7-1-5.3,0.5-7.8c0.5-0.9,1.1-1.6,2-2.1 c0.6-0.3,1.4-0.5,1.9,0.2c0.6,0.7,0.1,1.3-0.5,1.7c-1.9,1.3-2.3,3.2-2.1,5.3c0.1,1.1,0.4,2,1.8,2c1,0,1.7,0.6,1.8,1.7 c0.1,0.9-0.6,1.5-1.9,1.7c-0.9,0.1-1.1,0.7-1.2,1.4c-0.1,1.3,0.5,2.3,1.3,3.2c0.6,0.8,1.4,1.6,2,2.4c2.4,3.6,2.1,6.2-0.3,8.9 c-0.7,0.8-1.3,1.8-1.8,2.8c-0.6,1.1-0.6,2.3-0.4,3.4c0.1,0.8,0.5,1.4,1.4,1.7c0.5,0.1,0.9,0.3,1.4,0.5c2.4,1.2,3,3.8,1.4,5.9 c-0.2,0.3-0.5,0.7-0.8,0.9C282.3,126.2,282.1,126.6,283,127.5z M268.9,102.4c-1.1,2.4-0.9,4.7,0.1,7c0.8,1.8,1.5,3.7,1.3,5.8 c-0.1,1.1-0.4,2.2-0.7,3.2c-0.8,2.5-0.9,5,0.2,7.5c0.8,2,0.7,4.2,0.1,6.3c-0.4,1.2-0.8,2.4-1.2,3.5c-0.2,0.6-0.7,1.2-1.4,0.9 c-0.8-0.2-1.1-0.8-0.9-1.6c0.2-0.8,0.4-1.6,0.7-2.4c0.9-2.3,1-4.6,0.1-6.9c-0.9-2.2-0.9-4.4-0.3-6.7c0.2-0.8,0.4-1.6,0.6-2.4 c0.5-1.7,0.4-3.4-0.2-5.1c-0.2-0.6-0.5-1.3-0.8-1.9c-1-2.5-1.1-5-0.2-7.5c0.1-0.3,0.2-0.7,0.4-1c2-3.2,1.4-6.5,0-9.7 c-0.7-1.7-1.2-3.4-1-5.2c0.1-1.6,0.9-2.9,1.9-4c0.3-0.3,0.6-0.5,1.1-0.5c0.7,0.2,1.1,0.6,1,1.3c0,0.2-0.1,0.4-0.2,0.6 c-2.1,2.3-1.4,4.7-0.5,7.2c0.5,1.4,1,2.9,1.3,4.4c0.4,1.8,0.1,3.4-0.6,5.1C269.5,101,269.2,101.7,268.9,102.4z M393.9,246 c0.6,0.1,1,0.5,1,1.1c0,0.5-0.4,0.9-0.9,1c-0.5,0.1-1,0.1-1.5,0.1c-32.2,0-64.4,0-96.6,0c-0.5,0-1,0-1.4-0.1 c-0.5-0.1-0.9-0.5-0.9-1c0-0.5,0.3-1,0.8-1c0.7-0.1,1.4-0.1,2.1-0.1c15.9,0,31.8,0,47.7,0c15.9,0,31.8,0,47.7,0 C392.5,245.9,393.2,245.9,393.9,246z" fill="#86a340"/></g><g id="change1_2"><path d="M78.2,144.1c101.6,0,203.2,0,304.9,0c0.7,0,1.4-0.1,2.1-0.1c0.2-0.4,0.5-0.8,0.4-1.2c-0.8,0-1.5,0-2.3,0 c-28.8,0-57.7,0-86.5,0c-0.6,0-1.1,0-1.7,0c-1.3-0.1-2.2-0.9-2.3-2.2c-0.1-0.5,0-1,0-1.5c0-21.6,0-43.1,0-64.7 c0-1.3,0.1-2.3,1.5-2.8c8-3,15.2-7.6,22.2-12.5c9.7-6.7,18.7-14.1,26.8-22.7c6-6.4,11.5-13.2,15.7-20.9c2.3-4.1,3.9-8.6,5.3-13.1 c0.2-0.5,0.3-1.1,0.1-1.6c-0.9-0.4-1.8-0.2-2.7-0.2c-69.9,0-139.8,0-209.7,0c-0.6,0-1.1,0-1.7,0c-1,0-1.6,0.4-2,1.4 c-1.5,4.9-4,9.4-6.7,13.8c-9.5,15.2-21.1,28.5-35.8,38.9c-7.6,5.4-15.6,10.1-23.9,14.3c-0.9,0.5-2.1,0.7-2.7,1.7 c0.6,0.7,1.4,0.4,2.1,0.4c14.6,0,29.1,0,43.7,0c52.3,0,104.6,0,156.9,0c0.8,0,1.5,0,2.3,0.1c0.7,0.1,1.4,0.4,1.3,1.3 c-0.1,0.7-0.7,1-1.3,1c-0.7,0-1.4,0-2.1,0c-67.5,0-135,0-202.5,0c-3.7,0-3.8,0.1-3.8,3.8c0,19.2,0,38.4,0,57.7c0,1.7,0,3.5,0,5.2 c0,0.9-0.2,1.7-1.2,1.9c-0.1,0.6,0.4,1.2,0.4,1.8C76.2,144.1,77.2,144.1,78.2,144.1z M277.3,83.8c0.5-0.9,1.1-1.6,2-2.1 c0.6-0.3,1.4-0.5,1.9,0.2c0.6,0.7,0.1,1.3-0.5,1.7c-1.9,1.3-2.3,3.2-2.1,5.3c0.1,1.1,0.4,2,1.8,2c1,0,1.7,0.6,1.8,1.7 c0.1,0.9-0.6,1.5-1.9,1.7c-0.9,0.1-1.1,0.7-1.2,1.4c-0.1,1.3,0.5,2.3,1.3,3.2c0.6,0.8,1.4,1.6,2,2.4c2.4,3.6,2.1,6.2-0.3,8.9 c-0.7,0.8-1.3,1.8-1.8,2.8c-0.6,1.1-0.6,2.3-0.4,3.4c0.1,0.8,0.5,1.4,1.4,1.7c0.5,0.1,0.9,0.3,1.4,0.5c2.4,1.2,3,3.8,1.4,5.9 c-0.2,0.3-0.5,0.7-0.8,0.9c-0.8,0.6-1,1.1-0.1,1.9c1.6,1.4,1.4,3.3,0.6,5c-0.9,2-2.5,3.1-4.5,3.3c-1,0-1.7-0.1-1.8-1 c-0.2-0.9,0.5-1.2,1.2-1.3c1.2-0.3,2.4-0.7,2.9-2c0.5-1.2,0.3-1.9-0.8-2.6c-1.9-1.3-2-2.4-0.4-4c0.4-0.4,0.9-0.7,1.3-1.1 c1.4-1.4,0.8-2.8-0.8-3.1c-1.9-0.4-3-1.7-3.4-3.5c-0.4-2-0.2-4,1-5.8c0.6-1,1.3-2,2-2.9c1.4-1.6,1.2-3.3,0.3-5 c-0.6-1.1-1.5-2-2.3-2.9c-1.6-2-2.3-4.2-1.3-6.8c0.4-0.9,0-1.4-0.3-2.1C275.7,88.9,275.8,86.3,277.3,83.8z M267.6,82.3 c0.3-0.3,0.6-0.5,1.1-0.5c0.7,0.2,1.1,0.6,1,1.3c0,0.2-0.1,0.4-0.2,0.6c-2.1,2.3-1.4,4.7-0.5,7.2c0.5,1.4,1,2.9,1.3,4.4 c0.4,1.8,0.1,3.4-0.6,5.1c-0.3,0.7-0.6,1.4-0.9,2.1c-1.1,2.4-0.9,4.7,0.1,7c0.8,1.8,1.5,3.7,1.3,5.8c-0.1,1.1-0.4,2.2-0.7,3.2 c-0.8,2.5-0.9,5,0.2,7.5c0.8,2,0.7,4.2,0.1,6.3c-0.4,1.2-0.8,2.4-1.2,3.5c-0.2,0.6-0.7,1.2-1.4,0.9c-0.8-0.2-1.1-0.8-0.9-1.6 c0.2-0.8,0.4-1.6,0.7-2.4c0.9-2.3,1-4.6,0.1-6.9c-0.9-2.2-0.9-4.4-0.3-6.7c0.2-0.8,0.4-1.6,0.6-2.4c0.5-1.7,0.4-3.4-0.2-5.1 c-0.2-0.6-0.5-1.3-0.8-1.9c-1-2.5-1.1-5-0.2-7.5c0.1-0.3,0.2-0.7,0.4-1c2-3.2,1.4-6.5,0-9.7c-0.7-1.7-1.2-3.4-1-5.2 C265.8,84.7,266.6,83.5,267.6,82.3z M84.8,84c-0.4-0.3-0.8-0.5-1.2-0.8c-0.4-0.4-0.7-0.9-0.4-1.5c0.3-0.6,0.9-0.6,1.5-0.5 c2.2,0.5,4,3.5,3.3,5.7c-0.3,0.9-0.8,1.6-1.4,2.3c-0.7,0.9-1.2,1.9-1.4,3c-0.3,1.7,0.2,2.6,1.7,3.3c0.2,0.1,0.4,0.1,0.6,0.2 c1.8,0.7,2.2,2,1.1,3.6c-0.4,0.6-0.9,1.2-1.4,1.8c-0.5,0.7-1,1.4-1.2,2.2c-0.5,1.7,0.5,3.2,2.3,3.3c0.7,0,1.4-0.1,1.8,0.7 c0.3,0.8-0.1,1.3-0.5,1.9c-1.2,1.6-2.4,3.3-3.2,5.1c-0.6,1.3-1.2,2.7-0.9,4.2c0.7,0.3,1.2-0.3,1.7-0.5c1.5-0.4,2.9,0.2,3.4,1.6 c0.5,1.2-0.1,2.6-1.4,3.3c-0.8,0.4-1.6,0.8-2.6,0.5c-0.8-0.2-0.9,0.3-1,0.9c0,1.4,0.5,2.4,1.7,3.1c2.2,1.3,2.3,2.1,0.7,4.1 c-0.7,0.9-1.5,1.8-1.9,3c-0.4,1.3-0.1,1.7,1.3,1.5c0.7-0.1,1.3,0,1.5,0.7c0.2,0.7-0.1,1.2-0.7,1.6c-1.8,1.1-4.5,0.4-4.7-2.2 c-0.1-1.9,0.6-3.4,1.6-4.8c1-1.4,1.1-1.5-0.2-2.5c-1.9-1.7-2.1-3.8-1.7-6.1c0.1-0.6,0.3-1.2,0-1.8c-1-2.3-0.6-4.6,0.4-6.9 c0.7-1.7,1.7-3.3,2.8-4.9c-0.4-0.3-0.7-0.4-0.9-0.7c-2.5-2-3-4.4-1.4-7.2c0.6-1.1,1.4-2,2.2-3.1c-2.5-0.8-3.9-2.5-3.8-5.1 c0-1.6,0.5-3.1,1.5-4.5c0.3-0.4,0.7-0.9,1-1.3C86,85.8,85.9,85,84.8,84z M65.4,264.3c-19.9,0-39.8,0-59.7,0c-0.1,0-0.1,0-0.2,0 c0.8-0.6,1.7-0.4,2.6-0.4c18.1,0,36.2,0,54.3,0c0.7,0,1.5,0,2.7,0c-1-0.6-1.7-1-2.3-1.4c-5.5-3.7-8.5-8.8-8.7-15.5 c-0.1-3.7,0.1-7.5,0-11.2c-0.2-7.9,4.9-15.9,13.7-18.4c0.2-0.1,0.5-0.1,0.7-0.5c-3.3,0-6.7,0-10,0c-0.8,0-1.7,0.2-2.4-0.4 c5.3,0.1,10.5-0.3,15.8,0.2c1.1,0.1,2.2,0,3.3,0c107.2,0,214.4,0,321.6,0c0.7,0,1.4,0,2.1,0c0.5,0,1,0,1.1,0.7 c0.1,0.5,0.5,0.8,1,1c0.7,0.2,1.1,0.6,1,1.3c-0.1,0.8-0.7,1.4-1.5,1.6c-0.7,0.2-1.4,0.1-2.1,0.1c-39.5,0-79.1,0-118.6,0 c-1.5,0-3-0.1-4.5,0.4c-1.9,0.7-3.6,1.6-4.9,3c-3.4,3.6-5.5,7.8-6.3,12.6c-0.7,3.9-0.6,7.8,0.2,11.8c1.2,6.6,5.7,9.7,11.6,11.3 c1.6,0.4,3.1,0.5,4.7,0.5c39.7,0,79.4,0,119.1,0c0.9,0,1.8,0.1,2.6-0.5c1.1,0.8,1.2,1.9,0.9,3.1c0.7,0.4,1.4,0.2,2.1,0.2 c8.4,0,16.8,0,25.2,0c0.7,0,1.5-0.3,2.2,0.3c-9.2,0-18.3,0-27.5,0.1c-1.2,0-2.5-0.2-3.6,0.7c-0.3,0.3-0.9,0.2-1.4,0.2 c-0.8,0-1.7,0-2.5,0c-107.3,0-214.6,0-321.8,0c-3,0-6.1,0.2-9.1-0.9C66.4,264.2,65.9,264.3,65.4,264.3z M54.3,152.4 c0,2.2,0,4.4,0,6.6c0.3-0.2,0.7-0.3,1-0.5c-0.4,0.1-0.7,0.3-1,0.5c-0.1,0.4-0.1,0.9,0,1.3c0,2.2,0,4.4,0,6.6 c-0.2,0.9-0.1,1.7,0,2.6c0,2.2,0,4.4,0,6.6c16.7,0,33.4,0,50.2,0c6,0,11.9,0,17.9,0c0.6,0,1.1,0,1.7,0c0.5,0,0.9,0.3,0.9,0.9 c0,0.5-0.2,1-0.8,1.1c-0.7,0.1-1.4,0.1-2.1,0.1c-21.8,0-43.6,0-65.3,0c-0.8,0-1.7,0-2.5,0c0,7.6,0,15.2,0,22.8 c6.3,0,12.6,0,18.9,0c19.5,0,38.9,0,58.4,0c0.6,0,1.2,0,1.9,0.1c0.5,0,0.9,0.4,1,0.9c0,0.7-0.4,1-1,1.1c-0.4,0.1-0.8,0-1.2,0 c-25.2,0-50.3,0-75.5,0c-0.9,0-1.6-0.3-2.4-0.4c0,1.9,0,3.9,0,5.8c0.3,0,0.5,0.1,0.8,0.1c35,0,69.9,0,104.9,0.1 c4.5,0,9.5-4,9.5-9.8c0-12.3,0-24.7,0-37c0-5.6-4.8-10-10.1-10c-34.1,0.1-68.2,0-102.4,0c-0.8,0-1.7,0.1-2.5,0.1 c-0.1,0-0.3,0-0.4,0C54.2,152.2,54.2,152.3,54.3,152.4L54.3,152.4z M68.6,186.5c-0.6,0-1.1,0-1.7,0c-0.5,0-1-0.2-1-0.8 c-0.1-0.6,0.2-1.1,0.8-1.2c0.5-0.1,1-0.1,1.4-0.1c24.6,0,49.1,0,73.7,0c0.5,0,1.1,0,1.6,0.2c0.5,0.1,0.7,0.6,0.6,1.2 c-0.1,0.5-0.4,0.7-0.8,0.8c-0.6,0-1.2,0-1.9,0c-12.2,0-24.4,0-36.6,0C92.7,186.5,80.7,186.5,68.6,186.5z M157.2,194.5 c-0.3,0.2-0.6,0.3-1,0.3c-0.4,0.1-0.8,0-1.2,0c-20.9,0-41.9,0-62.8,0c-0.6,0-1.1,0-1.7-0.1c-0.6-0.1-0.9-0.6-0.8-1.2 c0.1-0.6,0.5-0.8,1-0.8c0.6,0,1.1,0,1.7,0c10.5,0,20.9,0,31.4,0c10.4,0,20.8,0,31.2,0c0.6,0,1.2,0,1.9,0c0.4,0,0.8,0.3,0.9,0.7 C157.8,193.9,157.5,194.3,157.2,194.5z M382.4,235.7c-0.6,0-1.2,0-1.9,0c-37,0-73.9,0-110.9,0c-0.5,0-1,0-1.5,0 c-0.8-0.1-1.3,0.3-1.4,1.1c-0.9,4.7-1,9.4,0.5,14c0.7,2.2,0.7,2.2,3.1,2.2c14.4,0,28.9,0,43.3,0c26.1,0,52.2,0,78.2,0 c1.2,0,2.4-0.2,3.4,0.6c0.3-0.3,0.3-0.6,0.3-1c0-3.5,0-6.9,0-10.4c0-0.4,0-0.8-0.3-1.1c-0.6,0.6-1.4,0.9-2.3,0.8 c-0.3,0-0.6,0-0.8,0c-37.1,0-74.2,0-111.3,0c-0.6,0-1.3,0-1.9-0.1c-0.6-0.1-1-0.5-1-1.1c0-0.7,0.5-1,1-1.1 c0.5-0.1,1.1-0.1,1.7-0.1c37.3,0,74.6,0,111.9,0c1,0,1.9,0.1,2.7,0.8c0.2-0.2,0.3-0.4,0.3-0.7c0-3.4,0.2-6.9-0.1-10.3 c-0.9,0.8-1.9,0.6-3,0.6c-40.1,0-80.2,0-120.3,0c-0.6,0-1.2,0-1.9,0c-0.4,0-0.7,0-0.9,0.4c-0.6,1-1.4,1.9-1.4,3.2 c0.9,0,1.7,0,2.4,0c36.7,0,73.4,0,110.1,0c0.6,0,1.3,0,1.9,0c0.8,0.1,1.6,0.1,1.6,1.2C383.9,235.5,383.1,235.7,382.4,235.7z M294.4,246c0.7-0.1,1.4-0.1,2.1-0.1c15.9,0,31.8,0,47.7,0c15.9,0,31.8,0,47.7,0c0.7,0,1.4,0,2.1,0.1c0.6,0.1,1,0.5,1,1.1 c0,0.5-0.4,0.9-0.9,1c-0.5,0.1-1,0.1-1.5,0.1c-32.2,0-64.4,0-96.6,0c-0.5,0-1,0-1.4-0.1c-0.5-0.1-0.9-0.5-0.9-1 C293.6,246.5,293.9,246.1,294.4,246z M46.5,287.3c-6.5,0-12.9,0-19.4,0c-0.6-0.4-0.6-1-0.5-1.7c1-0.6,2-0.4,3.1-0.4 c53.9,0,107.8,0,161.7,0c79.2,0,158.4,0,237.7,0c0.8,0,1.5,0,2.3,0.1c0.6,0.1,1.1,0.5,1.1,1.1c0,0.7-0.6,0.9-1.2,0.9 c-0.8,0-1.5,0-2.3,0C301.5,287.3,174,287.3,46.5,287.3z M31,298.4c-0.2-0.3-0.4-0.7-0.3-1.1c1-0.8,2.2-0.9,3.5-0.9 c90.9,0,181.9,0,272.8,0c0.7,0,1.4,0,2.1,0.1c0.5,0.1,1,0.5,1,1.2c0,0.5-0.5,0.8-0.9,1c-0.3,0.1-0.7,0.1-1,0.1c-0.5,0-1,0-1.5,0 c-90.7,0-181.5,0-272.2,0C33.3,298.9,32.1,298.9,31,298.4z M280.3,258.8c-3.6,0-6.8-1.2-9.8-3.3c0.8-0.4,1.5-0.3,2.2-0.3 c39.8,0,79.6,0,119.4,0c1,0,2.1,0.1,3-0.4c0.6,0.6,0.3,1.3,0.3,1.9c0.1,1.7,0.1,1.7,1.9,1.8c1,0,2.1,0,3.1,0 c0.3,0,0.7,0.1,0.9,0.4c-2.7,0.2-5.4-0.1-8.1-0.1C355.6,258.8,318,258.8,280.3,258.8z M299.8,77c28.2,0,56.4,0,84.7,0 c0.3,0,0.7,0,1,0.1c0.3,0.7,0.5,1.3,0,2c-0.8,0-1.7,0.1-2.5,0.1c-27.5,0-55.1,0-82.6,0c-0.6,0-1.1,0-1.7,0c-0.7,0-1.1-0.3-1.1-1 c0-0.6,0.4-1,1-1.1C299.1,77,299.5,77,299.8,77z M385.5,104.4c-0.8,0-1.7,0.1-2.5,0.1c-24.5,0-49.1,0-73.6,0 c-0.7,0-1.4,0-2.1-0.1c-0.5-0.1-0.8-0.5-0.8-1.1c0-0.5,0.3-0.8,0.8-0.9c0.5-0.1,1-0.1,1.4-0.1c25.1,0,50.2,0,75.3,0 c0.5,0,1,0,1.5,0.1C385.8,103.1,385.8,103.8,385.5,104.4z M385.5,85.4c0.2,0.6,0.2,1.3,0,1.9c-0.9,0-1.8,0.1-2.7,0.1 c-24,0-48,0-72,0c-0.7,0-1.4,0-2.1-0.1c-0.5-0.1-0.9-0.4-0.9-1c0-0.6,0.4-0.9,0.9-1c0.5-0.1,1-0.1,1.5-0.1c24.4,0,48.8,0,73.2,0 C384.1,85.3,384.8,85.4,385.5,85.4z M384,94.1c0.5,0,1,0,1.5,0.1c0.2,0.7,0.3,1.3,0.1,2c-0.9,0.3-1.9,0.4-2.9,0.4 c-18.5,0-37,0-55.5,0c-0.6,0-1.1,0-1.7-0.1c-0.6-0.1-1.2-0.4-1.2-1.2c0-0.8,0.5-1.1,1.2-1.1c0.3,0,0.7,0,1,0 C345.8,94.1,364.9,94.1,384,94.1z M343.5,125.8c0-0.6,0.2-1.1,0.9-1.2c0.5-0.1,1-0.1,1.4-0.1c12.3,0,24.5,0,36.8,0 c1,0,1.9,0.3,2.8,0.5c0,0.5,0,1,0,1.5c-0.9,0.4-1.8,0.5-2.8,0.5c-12.2,0-24.4,0-36.6,0c-0.6,0-1.1,0-1.7-0.1 C343.9,126.8,343.6,126.4,343.5,125.8z M401.4,223.6c-0.7,0.6-1.5,0.4-2.3,0.4c-1.1,0-2.3,0-3.4,0c-1,0-1.9-0.1-2.9-0.1 c-37.5,0-75,0-112.5,0c-1,0-1.9,0-2.9,0c0.7-0.4,1.5-0.2,2.2-0.2c37.8,0,75.7,0,113.5,0C395.9,223.7,398.7,223.6,401.4,223.6z M385.2,144c6.5,0,13,0,19.5,0c0.6,0,1.3-0.2,1.8,0.3c-6.7,0-13.4,0-20.2,0C385.9,144.4,385.4,144.5,385.2,144z M73.9,144.4 c-5.9,0-11.8,0-17.6,0c0.3-0.3,0.7-0.4,1.2-0.4c5.9,0,11.8,0.1,17.6,0.1C74.8,144.5,74.3,144.4,73.9,144.4z M52.3,208.9 c-2,0.1-3.9,0.1-5.9,0.1c0.1-0.6,0.6-0.5,0.9-0.5c2.3,0,4.6,0,6.9,0.1C53.7,209.2,53,208.9,52.3,208.9z M486.7,339.3 c-1,12.8-5.6,24.2-14,34c-8.3,9.6-18.8,15.8-31.2,18.7c-2.1,0.5-4.2,0.9-6.3,1c1.3-3.4,3.8-5.7,6.6-7.8c2.9-2.2,6-3.9,8.7-6.3 c1.2-1.1,2.1-2.3,2.9-3.8c-0.7-0.5-1.5-0.3-2.2-0.3c-17.4,0-34.8,0-52.2,0c-19.6,0-39.1,0-58.7,0c-0.7,0-1.4,0-2.1-0.1 c-0.6-0.1-0.9-0.6-0.9-1.2c0.1-0.6,0.5-0.8,1-0.8c0.7,0,1.4,0,2.1,0c36.9,0,73.8,0,110.7,0c0.5,0,1,0,1.5,0 c1.2,0.1,1.8-0.3,2.4-1.5c1.3-2.9,3.8-4.9,6.3-6.8c3.8-2.8,5.5-6.4,5.5-11c0-2.8-0.3-5.5,0.9-8.2c0.8-1.7,1.8-3.3,2.7-4.9 c0.7-1.1,1.2-2.3,1.4-3.6c0.1-0.9-0.1-1.5-1.2-1.4c-0.6,0-1.2,0-1.9,0c-48.8,0-97.5,0-146.3,0c-0.8,0-1.5,0-2.3,0 c-0.6,0-1-0.4-1.1-1c-0.1-0.7,0.4-1,0.9-1.2c0.7-0.3,1.5-0.1,2.3-0.1c15.5,0,31.1,0,46.6,0c33.2,0,66.3,0,99.5,0 c2.9,0,2.9,0,1.8-2.8c-0.9-2.1-2.1-4.1-2.7-6.3c-0.2-0.7-0.6-1-1.4-1c-0.6,0-1.2,0-1.9,0c-83.2,0-166.3,0-249.5,0 c-0.8,0-1.7,0-2.5-0.1c-0.6-0.1-1-0.5-1-1.1c0-0.7,0.5-0.9,1.1-0.9c0.8,0,1.5,0,2.3,0c82.8,0,165.7,0,248.5,0c0.5,0,1,0,1.5,0 c2.2,0,2.2,0,1.9-2.2c-0.1-0.5-0.1-1,0-1.5c0.4-3.2-1.4-5.2-3.9-6.7c-1.5-0.9-3-1.7-4.6-2.5c-4.6-2.2-6.7-5.9-6.5-10.9 c0.1-3.1-1.3-4.9-3.9-6.2c-2.1-1.1-4.3-1.9-6.3-3.1c-3.4-2.2-5-5.4-5.2-9.4c4.6,0.1,8.9,1.4,13.1,3.1 c17.1,6.8,28.8,18.9,34.7,36.3C486.3,324.4,487.2,331.8,486.7,339.3z M227.6,310.2c-60.6,0-121.1,0-181.7,0c-0.7,0-1.4,0-2.1,0 c-0.6,0-1.1-0.3-1.1-1c0-0.8,0.5-1.1,1.2-1.1c0.7,0,1.4,0,2.1,0c65.8,0,131.7,0,197.5,0c55.4,0,110.9,0,166.3,0 c0.7,0,1.4,0,2.1,0c0.6,0,1.1,0.3,1.1,1c0,0.8-0.5,1.1-1.2,1.1c-0.7,0-1.4,0-2.1,0C349,310.2,288.3,310.2,227.6,310.2z M385.1,384.3c0,0.7-0.4,1-1,1.1c-0.7,0.1-1.4,0.1-2.1,0.1c-55.1,0-110.2,0-165.2,0c-55,0-110,0-165,0c-0.8,0-1.5,0-2.3-0.1 c-0.5,0-0.9-0.4-1-0.9c0-0.7,0.4-1,1-1.1c0.8-0.1,1.5-0.1,2.3-0.1c59.8,0,119.6,0,179.4,0c50.2,0,100.4,0,150.7,0 c0.8,0,1.5,0,2.3,0.1C384.7,383.5,385.1,383.8,385.1,384.3z M240.5,346.7c0.1,0.7-0.7,1.2-1.8,1.3c-0.6,0-1.1,0-1.7,0 c-30.5,0-61,0-91.6,0c-2.6,0-5.1,0-7.7,0c-33.2,0-66.3,0-99.5,0c-0.7,0-1.4,0-2.1,0c-0.5,0-0.9-0.3-1-0.9 c-0.1-0.6,0.2-0.9,0.6-1.2c0.3-0.3,0.8-0.3,1.2-0.3c0.6,0,1.1,0,1.7,0c66.2,0,132.4,0,198.5,0c0.5,0,1,0,1.5,0 C239.5,345.5,240.3,345.7,240.5,346.7z M126.6,373.8c-30.7,0-61.5,0-92.2,0c-0.7,0-1.4,0-2.1-0.1c-0.6-0.1-1-0.5-1-1.1 c0-0.6,0.3-0.9,0.8-1.1c0.4-0.1,0.8-0.2,1.2-0.2c0.6,0,1.1,0,1.7,0c61.2,0,122.5,0,183.7,0c0.8,0,1.7,0,2.5,0.1 c0.6,0.1,1.2,0.4,1.1,1.2c-0.1,0.8-0.6,1.1-1.3,1.1c-0.6,0-1.2,0-1.9,0C188.4,373.8,157.5,373.8,126.6,373.8z M203,358.5 c22.3,0,44.7,0,67,0c27.7,0,55.5,0,83.2,0c0.8,0,1.5-0.1,2.3,0.1c0.5,0.2,1,0.5,0.9,1.2c-0.1,0.6-0.5,1-1.1,1.1 c-0.5,0.1-1,0-1.5,0c-55.9,0-111.8,0-167.7,0c-0.6,0-1.3,0-1.9-0.1c-0.5-0.1-0.9-0.5-0.9-1c0-0.6,0.4-0.9,0.8-1.1 c0.6-0.3,1.2-0.2,1.8-0.2C191.7,358.5,197.4,358.5,203,358.5z M435.5,277.7c0.2-0.1,0.4,0,0.5,0.2 C435.8,278,435.6,277.9,435.5,277.7z M190.3,201.9c0.4-9.4,0.1-18.8-0.3-28.3c-0.2-5.3-0.3-10.7-0.9-16c-0.3-2.8-0.8-5.5-2.8-7.7 c-0.5-0.6-0.8-1.2-0.1-1.8c0.7-0.5,1.3,0,1.8,0.5c1.1,1.2,1.9,2.7,2.3,4.4c1.1,3.6,1.3,7.2,1.4,10.9c0.3,5.9,0.7,11.8,0.6,17.1 c0.2,6.5,0.4,12.5,0.2,18.4c-0.1,2.4-0.2,4.7-0.7,7c-0.4,1.7-1,3.3-2.3,4.6c-0.4,0.3-0.7,0.7-1.2,0.8c-0.4,0.1-0.8,0.1-1.1-0.3 c-0.3-0.4-0.3-0.7-0.1-1.1c0.1-0.1,0.1-0.3,0.2-0.3C190.1,207.9,190.2,204.9,190.3,201.9z M405.6,148.5c1,1.1,1.6,2.4,2.1,3.8 c0.8,2.6,1.1,5.3,1.2,8c0.2,6.4,0.3,12.9,0.4,19.6c-0.1,6.2-0.3,12.7-0.5,19.2c-0.1,2.7-0.4,5.4-1.1,8c-0.5,1.7-1.4,3.2-2.8,4.3 c-0.5,0.4-1.1,0.7-1.7,0.1c-0.6-0.6-0.4-1.2,0.2-1.6c2.7-2.2,2.8-5.3,3-8.3c0.8-9.3,0.5-18.7,0.5-28.1c0-5.2,0.1-10.4-0.4-15.6 c-0.3-2.9-0.7-5.8-2.6-8.2c-0.4-0.5-0.6-1.1,0-1.7C404.5,147.5,405.1,148,405.6,148.5z M397.4,166.3c0.1-3.9,0.1-7.9-0.9-11.8 c-0.4-1.7-0.8-3.4-2.4-4.4c-0.5-0.3-0.7-0.9-0.2-1.4c0.4-0.5,0.9-0.5,1.5-0.3c1.2,0.6,1.9,1.6,2.3,2.8c1,2.4,1.5,4.9,1.7,7.5 c0.6,6.8,0.1,13.6,0,18.1c-0.2,8.6-0.4,14.9-0.6,21.2c-0.1,2-0.2,4-0.7,6c-0.4,1.8-1.2,3.4-2.3,4.8c-0.6,0.8-1.3,1.5-2.2,1.8 c-0.6,0.2-1.3,0.3-1.6-0.5c-0.3-0.6,0.1-1.1,0.5-1.4c2.8-1.9,3.6-4.8,3.9-7.9c0.2-2.3,0.3-4.7,0.3-7.1 C396.9,184.6,397.2,175.5,397.4,166.3z M182.7,181.9c0,5.3,0,10.7,0,16c0,2.2-0.1,4.4-0.6,6.6c-0.4,1.6-1.1,3.1-2,4.5 c-0.5,0.8-1.1,1.4-1.9,1.8c-0.6,0.3-1.2,0.5-1.7-0.1c-0.6-0.7-0.2-1.3,0.5-1.7c1.3-0.8,2-2.1,2.5-3.5c0.6-1.4,0.9-2.9,1-4.4 c0-1.3,0.1-2.6,0.1-4c0-10.3,0-20.5-0.1-30.8c0-3.7-0.2-7.3-1.2-10.9c-0.5-1.9-0.8-3.8-2.7-5c-0.4-0.3-0.6-0.8-0.3-1.3 c0.3-0.6,0.8-0.7,1.4-0.5c1.3,0.5,1.9,1.5,2.5,2.7c1.1,2.4,1.7,5,2,7.6c0.7,6.1,0.5,12.3,0.6,18.5 C182.7,179,182.7,180.4,182.7,181.9z M271.7,227.3c-0.1-0.2,0.1-0.4,0.3-0.4c0,0.1,0,0.3,0,0.4 C271.8,227.4,271.7,227.5,271.7,227.3z M312.8,118.1c0-0.7,0.4-1,1-1.1c0.4,0,0.8,0,1.2,0c18.9,0,37.7,0,56.6,0 c1.7,0,2.4,0.3,2.3,1.1c-0.3,1.4-1.5,1-2.4,1c-9.4,0-18.9,0-28.3,0c-9.2,0-18.4,0-27.7,0c-0.6,0-1.1,0-1.7,0 C313.2,119,312.8,118.7,312.8,118.1z M326.6,112c-8.7,0-17.5,0-26.2,0c-0.6,0-1.1,0-1.7,0c-0.7,0-1.3-0.2-1.3-1 c0-0.9,0.7-1.1,1.4-1.1c0.3,0,0.6,0,0.8,0c17.9,0,35.7,0,53.6,0c0.5,0,1,0,1.4,0.1c0.5,0.1,0.9,0.5,0.8,1c0,0.6-0.4,0.9-0.9,1 c-0.6,0.1-1.2,0.1-1.9,0.1C344.1,112,335.3,112,326.6,112z M87.3,120.8c0.1-0.3,0.3-0.4,0.6-0.4c0.1,0,0.2,0.1,0.3,0.2 c-0.1,0.3-0.3,0.4-0.6,0.4C87.5,121,87.3,120.8,87.3,120.8z" fill="#3f3f3f"/></g></g></g></g></svg>