<?xml version="1.0" encoding="UTF-8"?><svg xmlns="http://www.w3.org/2000/svg" xmlns:xlink="http://www.w3.org/1999/xlink" height="419.8" preserveAspectRatio="xMidYMid meet" version="1.0" viewBox="-2.3 -1.5 505.2 419.8" width="505.2" zoomAndPan="magnify"><g id="change1_1"><path d="M13.71,81.23c0.01-1.41-0.98-29.32-0.15-30.17c0.84-0.85,91.63-1.41,93.88,0c0.46,0.29,0.92,1.83,1.35,4.1 c-6.8,6.61,1.37,9.54,1.88,14.89c0.67,7.06,1.1,13.39,1.1,13.39" fill="#F6BC2D"/></g><g id="change2_1"><path d="M113.09,98.38c0.37,5.35,0.59,9.53,0.59,9.53l-87.22,1.87l-12.36-6.24c0.58-1.06-1.11-26.15,0-27.76 c1.11-1.61,94.27-2.14,96.14,0c0.4,0.46,0.79,2.2,1.15,4.66C112.08,85.14,104.97,92.07,113.09,98.38z M368.73,136.4h96.2 c0,0-4.04-15.02-8.08-18.3c-1.55-1.26-13.9-1.97-28.65-2.2c-6.47-43.14-27.12-80.79-38.5-98.22l-19.24,2.65 c31.7,28.54,40.94,77.43,43.34,95.49c-19.9,0.07-39.42,0.89-40.62,2.29C370.74,120.92,368.73,136.4,368.73,136.4z" fill="#2B3244"/></g><g id="change3_1"><path d="M14.68,131.23c0,0-2.52-27.31,0-28.75c2.52-1.44,95.59,1.44,98.11,3.23c0.6,0.43,1,2.25,1.25,4.77 c0.39,3.85-4.66,8.29,0.4,13.99c-0.05,5.06-0.22,9.16-0.22,9.16 M413.73,37.84c1.79,0.1,0.16-25.7-7.53-30.07 c-12.68-7.22-68.32-9.27-75.46-6.7c-7.14,2.57-12.79,31.99-12.79,31.99S398.66,36.98,413.73,37.84z M414.39,115.81 c-0.44,1.45,12.82,2.06,12.82,0.83S414.81,114.43,414.39,115.81z" fill="#378F81"/></g><g id="change4_1"><path d="M494.21,172.78c-0.74,0.25-4.92,0.47-11.96,0.67c-1.18,54.3-5.11,231.28-6.57,235.81 c-1.73,5.35-156.47,9.01-157.34,2.27c-0.74-5.77-0.21-183.57-0.05-236.68c-81.06,0.2-173.19,0.06-237.05-0.42 c0.42,61.38,1.42,228.39-0.16,231.21c-1.93,3.45-40.39,6.05-43.84,0c-2.92-5.12-0.9-178.51-0.21-231.67 c-22.01-0.32-35.17-0.72-35.17-1.19c0-2.88-4.19-40.38,0-41.35c12.5-2.88,485.61-2.88,492.35,0 C500.94,134.31,502.86,169.89,494.21,172.78z" fill="#D35B38"/></g><g id="change5_1"><path d="M110.68,70.05c-21.74-0.11-86.99-0.48-87.59-1.24c-0.73-0.91-1.64-10.75,0-12.03 c1.46-1.13,70.43-1.55,85.71-1.63C109.52,58.93,110.17,64.69,110.68,70.05z M113.09,98.38c-0.41-5.91-1-13.23-1.7-17.94 c-13.6-0.19-83.51-1.12-84.66,0.03c-1.28,1.28,0,14.58,0,14.94C26.73,95.72,95.28,97.83,113.09,98.38z M114.04,110.48 c-16.3-0.24-88.73-1.24-89.86,0.05c-1.28,1.46-1.28,16.25-0.73,15.96c0.47-0.25,71.9-1.65,91-2.02 C114.49,119.8,114.43,114.33,114.04,110.48z M377.33,7.97c-1.07,2.26,17.67,2.7,22.18,6.08c4.51,3.37,7.13,13.4,9.27,11.92 c2.14-1.48-0.61-13.62-5.34-15.84S378.14,6.27,377.33,7.97z" fill="#FFF6E1"/></g><g id="change2_2"><path d="M482.13,178.95c0,0-16.65,0.31-39.26,0.63c0,24.33,0,204.34,0,215.3c0,11.77-0.89,14.21-2.89,11.1 c-1.87-2.91-2.18-200.42-2.22-226.33c-47.79,0.65-117.06,1.25-117.06-0.71c0-2.99,161.55-5.5,161.55-5.5L482.13,178.95z M319.65,240.58c1.44,2.09,29.61,1.46,57.7,1.54c26.9,0.07,53.73,0.93,56.96-0.77C446.33,235.01,316.74,236.36,319.65,240.58z M370.62,295.57c-18.55-0.33-37.06-1.63-42.51-1.27c-5.84,0.39-8.43,1.41,1.38,3.59c9.8,2.18,91.1,3.58,99.7,0.31 C437.8,294.93,393.88,295.98,370.62,295.57z M417.96,354.81c-7.72-0.23-87.22-1.17-91.66,0c-2.26,0.6-1.4,2.34,3.27,3.04 s91.43,3.27,96.57,1.4C431.29,357.38,425.68,355.04,417.96,354.81z M399.23,212.63c0.94-2.07,1.89-7.92,0-9.62 c-1.89-1.7-38.48-2.07-39.99-0.75c-1.11,0.97-1.13,9.43,0,10.37C360.37,213.57,398.28,214.7,399.23,212.63z M399.71,275.03 c1.29-1.29,0.74-9.21,0-9.95c-0.74-0.74-39.2-1.07-39.51,0c-0.24,0.84-1.93,10.13,0,11.24 C362.12,277.42,398.42,276.32,399.71,275.03z M399.96,330.96c0.59,0.19,0.97-9.81-0.73-10.37c-1.7-0.57-38.95-1.09-39.42,0 c-0.75,1.71-0.57,9.81,0,10.37S399.36,330.77,399.96,330.96z M358.76,383.33c-0.82,0.6,0.55,10.56,0.55,10.56s39.25-0.2,40.76-1.33 c1.51-1.13,0.38-8.11,0-9.05C399.7,382.56,359.79,382.57,358.76,383.33z M39.22,175.3c-0.09,0.5,39.41,1.44,39.66-0.36 C79.13,173.15,39.72,172.62,39.22,175.3z M68.78,84.3c-0.61,0.95,43.1,0,43.1,0l-0.2-1.68C111.68,82.62,69.39,83.35,68.78,84.3z M44.98,89.14c0.36,1.23,38.78,2.18,38.54,1.46C83.28,89.89,44.62,87.91,44.98,89.14z M44.98,118.8c0.6,0.83,37.36,0.83,37.59,0 C82.81,117.96,44.38,117.96,44.98,118.8z M50.81,60.74c-0.59-1.08-28.63,0-28.63,0v1.6C22.18,62.34,51.4,61.81,50.81,60.74z M89.35,65.03c-0.36-0.95-38.9,0.61-37.95,1.79C51.73,67.23,89.71,65.98,89.35,65.03z M109.73,61.3c0,0-9.67,0.85-9.79,1.04 s9.95,0.27,9.95,0.27L109.73,61.3z" fill="#2B3244"/></g></svg>