<?xml version="1.0" encoding="UTF-8"?><svg xmlns="http://www.w3.org/2000/svg" xmlns:xlink="http://www.w3.org/1999/xlink" height="355.4" preserveAspectRatio="xMidYMid meet" version="1.0" viewBox="0.0 0.0 520.9 355.4" width="520.9" zoomAndPan="magnify"><g id="change1_1"><path d="M69.604,226.873c-0.308,0-30.896,0.017-38.111,1.46c-3.727,0.745-9.976,0.933-15.309,0.933 c-5.145,0-9.438-0.174-9.793-0.188l-0.45-0.02l-0.028-0.45c-0.029-0.478-2.94-47.928-2.94-61.018c0-13.058-2.909-55.384-2.938-55.81 L0,111.286l0.493-0.039c0.195-0.015,13.773-1.089,23.665-1.982l-2.873-24.424l17.169-1.561L41,108.226 c9.795,0.302,24.855,1.484,25.704,1.551l0.46,0.037v62.185c0,8.7,2.909,53.888,2.938,54.343l0.034,0.532H69.604z M432.478,43.917 H414.32l-0.511-27.63l-17.155,0.78v0.478c0,4.615,0.309,16.814,0.573,26.373h-28.071v96.361h63.322V43.917z M497.274,103.986 l-2.757-27.023l-17.169,1.561l2.995,25.463h-22.773v85.6h-17.683l1.629-23.354l-17.19-0.792l-1.053,24.146h-22.018v96.36h63.322 v-85.599h56.315v-96.361H497.274z M330.22,96.319l0.005-0.532l-0.531,0.028c-0.14,0.007-14.134,0.752-27.948,2.207 c-1.362,0.143-2.757,0.331-4.169,0.536l-0.432-23.34l-17.156,0.78v0.478c0,4.394,0.281,15.664,0.535,24.984 c-9.246,1.534-19.68,2.836-32.35,2.438c-10.732-0.336-30.06-1.138-47.82-1.908c0.86-33.01,0.563-75.739,0.543-78.423l-0.004-0.622 l-0.606,0.138c-6.696,1.522-24.923,2.54-44.975,3.21L156.091,0l-18.543,2.458l0.79,24.315c-22.51,0.54-43.944,0.705-51.1,0.705h-0.5 v41.648c0,10.88-4.364,78.643-4.408,79.326l-0.034,0.525l0.526,0.007c0.544,0.007,54.513,0.735,66.138,0.735 c2.679,0,6.61-0.559,11.086-1.421c-0.107,14.227-0.281,27.401-0.563,32.49c-0.321,5.766-0.078,24.26,0.295,43.223 c-11.398-0.219-24.688-0.24-31.218,0.596c-12.604,1.615-37.265,3.252-37.513,3.269l-0.467,0.031v12.018 c-19.699,1.106-37.466,2.202-37.825,2.224l-0.48,0.029l0.474,20.074c-0.004,0-0.016,0.002-0.019,0.002l0.024,0.247l1.796,76.031 l0.512-0.025c0.766-0.037,76.737-3.763,89.359-4.505c5.011-0.295,18.888,0.233,33.818,0.978c-0.479,1.503-0.742,3.101-0.742,4.76 c0,8.66,7.045,15.705,15.705,15.705s15.705-7.045,15.705-15.705c0-1.053-0.108-2.081-0.307-3.076 c10.138,0.607,17.381,1.077,17.604,1.092l0.545,0.035l-1.476-63.457c12.449,0.326,24.482,0.604,33.199,0.604 c4.9,0,8.752-0.088,11.041-0.306c15.247-1.452,58.336-4.379,58.77-4.408l0.44-0.03l0.024-0.44c0.037-0.646,3.66-64.899,2.204-82.367 C329.502,169.978,330.212,97.054,330.22,96.319z" fill="#fff"/></g><g id="change2_1"><path d="M398.578,56.126c-0.117-3.912-0.892-30.06-0.923-38.105l15.174-0.689l0.716,38.661L398.578,56.126z M35.987,127.743c7.102,0.366,12.201,5.195,13.99,13.249c4.674,21.03,4.659,65.041,4.642,69.981l-38.566,3.78 c-0.328-6.081-3.292-63.049,0.003-72.937c2.725-8.174,10.809-14.096,19.052-14.096C35.4,127.72,35.694,127.728,35.987,127.743z M27.395,198.889c0.436-0.176,0.874-0.456,1.28-0.803c1.89,0.849,4.212,0.797,5.985-0.274c0.37-0.223,0.763-0.538,1.144-0.912 c1.355,0.647,2.955,0.868,4.361,0.648c0.916-0.144,2.023-0.595,2.963-1.257c1.809,0.629,3.992,0.248,5.518-0.939 c1.269-0.986-0.512-2.744-1.768-1.768c-0.528,0.411-1.231,0.585-1.922,0.549c0.28-0.726,0.293-1.524-0.135-2.358 c-0.579-1.13-2.003-1.838-3.226-1.362c-1.618,0.629-1.725,2.588-0.925,3.912c0.087,0.144,0.183,0.275,0.281,0.405 c-1.121,0.515-2.47,0.553-3.625,0.117c0.668-1.31,0.861-2.759-0.091-3.857c-0.778-0.897-2.113-0.917-3.083-0.329 c-1.259,0.765-1.532,2.285-1.005,3.585c0.167,0.412,0.404,0.772,0.669,1.108c-0.512,0.406-1.114,0.696-1.762,0.8 c-0.598,0.096-1.234,0.043-1.822-0.13c0.564-1.272,0.556-2.687-0.609-3.719c-0.935-0.829-2.296-0.702-3.169,0.166 c-1.138,1.131-0.869,2.825,0.055,3.989c0.018,0.023,0.042,0.039,0.061,0.062c-0.226,0.101-0.459,0.181-0.698,0.213 c-1.683,0.227-3.136-1.102-3.961-2.418c-0.853-1.36-3.017-0.107-2.159,1.262C21.333,198.097,24.368,200.114,27.395,198.889z M48.769,183.6l-0.103-8.565l-27.243,2.454l-0.013,8.848L48.769,183.6z M47.347,203.476c-0.929,0.769-2.607,2.069-3.986,1.818 c0.456-0.883,0.635-1.88,0.158-2.79c-0.969-1.845-3.428-1.041-3.93,0.723c-0.232,0.813-0.096,1.593,0.266,2.272 c-0.257,0.159-0.523,0.301-0.795,0.402c-0.544,0.202-1.137,0.295-1.72,0.258c0.227-0.782,0.093-1.635-0.6-2.315 c-1.341-1.316-3.4-0.188-3.522,1.543c-0.022,0.318,0.028,0.603,0.108,0.873c-0.863,0.199-1.999,0.348-2.785,0.175 c0.024-0.119,0.049-0.238,0.058-0.36c0.088-1.161-0.474-2.435-1.733-2.625c-0.717-0.108-1.277,0.175-1.538,0.873 c-0.312,0.836-0.211,1.694,0.144,2.448c-0.409,0.331-0.93,0.539-1.453,0.54c-1.071,0.001-1.821-0.741-2.226-1.666 c-0.643-1.47-2.798-0.199-2.159,1.262c1.134,2.592,4.321,3.669,6.781,2.247c0.279-0.161,0.551-0.356,0.803-0.578 c0.116,0.06,0.228,0.129,0.349,0.177c1.712,0.682,4.096,0.264,5.807-0.523c0.505,0.204,1.036,0.341,1.535,0.398 c1.694,0.191,3.412-0.338,4.762-1.361c0.342,0.182,0.703,0.322,1.067,0.41c2.432,0.586,4.609-0.967,6.376-2.431 C50.355,204.217,48.578,202.457,47.347,203.476z M36.736,159.444l0.781-21.077l-14.803,15.214l0.349,0.349 c2.381,2.381,7.786,3.272,9.312,3.481l0.275,2.471l-14.23,0.769l6.238,10.397l18.636-1.941l6.264-10.44L36.736,159.444z M504.15,127.417c-7.291,6.665-13.588,12.421-13.073,15.403c0.12,0.694,0.648,1.229,1.615,1.637c1.072,0.452,1.693,1.091,1.846,1.9 c0.358,1.908-1.987,4.183-4.471,6.593c-2.027,1.966-4.324,4.195-4.045,5.461c0.097,0.441,0.558,0.809,1.37,1.093 c1.948,0.682,3.907,1.004,5.719,1.183c1.079,0.107,2.105,0.163,3.046,0.215c2.69,0.147,4.634,0.254,5.5,1.353 c0.39,0.494,0.514,1.15,0.368,1.952c-0.671,3.694-12.288,12.621-16.314,15.618h26.298v-59.737c-0.285,0.276-0.572,0.538-0.858,0.812 C508.805,123.146,506.444,125.32,504.15,127.417z M153.882,40.667l1.175-39.521l-16.48,2.185l1.178,36.249L153.882,40.667z M156.47,224.954c-0.639-0.01-1.282-0.018-1.926-0.026c-0.043,0-0.085-0.001-0.128-0.002c-0.624-0.008-1.249-0.014-1.875-0.02 c-0.047,0-0.094-0.001-0.142-0.001c-0.626-0.006-1.253-0.011-1.878-0.014c-0.036,0-0.073,0-0.109-0.001 c-2.447-0.014-4.871-0.011-7.202,0.013c-0.192,0.002-0.386,0.003-0.577,0.006c-0.374,0.005-0.74,0.011-1.108,0.016 c-0.29,0.004-0.581,0.009-0.867,0.014c-0.33,0.006-0.654,0.013-0.979,0.021c-0.314,0.007-0.628,0.014-0.936,0.022 c-0.304,0.008-0.601,0.017-0.899,0.026c-0.318,0.009-0.633,0.019-0.943,0.03c-0.28,0.01-0.555,0.02-0.828,0.031 c-0.316,0.012-0.626,0.025-0.933,0.039c-0.257,0.011-0.511,0.023-0.761,0.036c-0.311,0.016-0.612,0.032-0.912,0.049 c-0.23,0.013-0.461,0.026-0.684,0.04c-0.308,0.019-0.602,0.041-0.896,0.062c-0.198,0.014-0.401,0.028-0.593,0.043 c-0.314,0.025-0.611,0.052-0.907,0.08c-0.153,0.014-0.315,0.027-0.464,0.042c-0.433,0.044-0.847,0.09-1.234,0.139 c-11.67,1.495-33.629,3.008-37.107,3.243v20.771c4.053-0.543,28.798-3.793,44.537-4.29c0.839-0.026,1.708-0.055,2.594-0.083 c0.245-0.008,0.498-0.016,0.746-0.025c0.637-0.021,1.279-0.042,1.935-0.064c0.326-0.011,0.655-0.022,0.985-0.033 c0.583-0.02,1.168-0.04,1.761-0.06c0.418-0.014,0.836-0.029,1.258-0.043c0.448-0.015,0.898-0.031,1.35-0.047 c0.536-0.019,1.072-0.037,1.613-0.056c0.298-0.01,0.598-0.021,0.897-0.032c2.383-0.084,4.789-0.171,7.159-0.257L156.47,224.954z" fill="#adcd6b"/></g><g id="change3_1"><path d="M26.685,122.175l-4.286-36.431l15.162-1.379l3.577,35.057L26.685,122.175z M378.04,119.755h45.554V54.678 h-9.074l0.043,2.306l-16.955,0.151l-0.015-0.489c-0.001-0.046-0.023-0.768-0.058-1.968H378.04V119.755z M440.449,167.184 l-15.167-0.699l-1.421,32.589l14.146,3.124L440.449,167.184z M153.026,305.202c0.449,4.407,0.904,8.92,1.316,13.013 c6.059,0.302,12.563,0.668,18.435,1.015c-0.61-4.55-1.272-9.531-1.862-14.078C165.313,305.206,159.066,305.237,153.026,305.202z M131.139,287.99c5.962-0.109,12.541-0.232,19.054-0.354c-0.284-2.624-0.494-4.449-0.588-5.042c-0.21-1.331-0.268-5.301-0.257-9.811 c-5.557,0.081-12.198,0.216-18.819,0.442C130.735,278.562,130.957,284.062,131.139,287.99z M173.93,320.3 c0.897,6.677,1.648,12.173,1.838,13.557c0.94,0.046,1.884,0.092,2.834,0.14c2.118-5.364,7.096-9.296,13.052-9.883 c-0.08-0.804-0.172-1.722-0.274-2.729C189.535,321.265,182.52,320.811,173.93,320.3z M149.352,271.784 c0.03-6.52,0.188-13.813,0.234-15.851c-3.938,0.019-7.415,0.071-10.2,0.167c-2.599,0.09-5.823,0.261-9.478,0.492 c0.063,1.747,0.305,8.426,0.582,15.635C137.128,272,143.785,271.864,149.352,271.784z M132.059,304.635 c0.233,4.716,0.454,9.693,0.571,13.044c2.59-0.09,4.763-0.123,6.374-0.085c3.797,0.09,8.851,0.302,14.327,0.571 c-0.411-4.085-0.865-8.582-1.312-12.969c-7.4-0.051-14.415-0.204-19.459-0.533C132.399,304.653,132.227,304.644,132.059,304.635z M191.045,318.106c-0.405-3.968-0.883-8.656-1.331-13.247c-1.534,0.034-8.723,0.188-17.791,0.282 c0.594,4.576,1.26,9.587,1.872,14.148c8.463,0.503,15.414,0.951,17.482,1.086C191.203,319.652,191.126,318.895,191.045,318.106z M152.924,304.201c6.024,0.035,12.26,0.006,17.861-0.049c-0.825-6.387-1.483-11.745-1.609-13.506 c-0.039-0.544-0.074-1.36-0.105-2.365c-5.427,0.103-11.548,0.218-17.767,0.335C151.743,292.701,152.324,298.317,152.924,304.201z M131.397,292.833c0.149,2.018,0.383,6.216,0.612,10.797c0.209,0.011,0.419,0.022,0.616,0.035 c5.001,0.326,11.951,0.478,19.292,0.529c-0.601-5.888-1.181-11.502-1.617-15.559c-6.532,0.122-13.134,0.245-19.115,0.355 C131.269,290.73,131.341,292.082,131.397,292.833z M70.432,277.311c-8.146,0.654-14.436,1.174-16.295,1.328l0.314,13.31 c1.859-0.146,8.008-0.622,16.046-1.189L70.432,277.311z M70.503,291.763c-8.084,0.57-14.245,1.048-16.028,1.187l0.376,15.924 c1.862-0.192,7.81-0.799,15.728-1.539L70.503,291.763z M70.355,261.571c-8.154,0.765-14.321,1.365-16.583,1.586l0.342,14.48 c1.937-0.161,8.215-0.679,16.313-1.329L70.355,261.571z M71.498,290.69c5.539-0.388,11.894-0.813,18.328-1.2 c0.012-4.133,0.072-9.046,0.147-13.716c-6.448,0.495-12.899,1.005-18.541,1.457L71.498,290.69z M89.989,274.77 c0.113-6.822,0.249-12.93,0.297-15.021c-6.785,0.603-13.294,1.201-18.932,1.729l0.072,14.751 C77.079,275.775,83.537,275.265,89.989,274.77z M111.276,305.117c0.121,4.385,0.244,9.25,0.355,13.767 c7.602-0.534,14.613-0.961,20-1.169c-0.117-3.363-0.341-8.383-0.575-13.126C126.358,304.416,119.276,304.657,111.276,305.117z M91.678,321.408c0.181,6.741,0.327,12.614,0.368,14.272c6.262-0.311,12.746-0.635,18.957-0.947 c-0.031-1.388-0.169-7.516-0.346-14.777C104.501,320.393,97.994,320.897,91.678,321.408z M55.222,324.568l0.305,12.916 c1.692-0.083,7.406-0.364,15.196-0.748l-0.066-13.553C62.766,323.873,56.932,324.409,55.222,324.568z M154.443,319.221 c0.68,6.768,1.221,12.213,1.381,13.826c5.391,0.152,11.975,0.426,18.929,0.76c-0.236-1.721-0.973-7.113-1.84-13.568 C167.04,319.892,160.522,319.525,154.443,319.221z M71.657,323.095l0.067,13.591c5.664-0.28,12.336-0.61,19.323-0.957 c-0.04-1.621-0.186-7.493-0.367-14.24C83.845,322.045,77.272,322.605,71.657,323.095z M131.664,318.715 c-5.381,0.207-12.397,0.635-20.008,1.17c0.176,7.23,0.314,13.348,0.347,14.798c7.404-0.372,14.377-0.726,20.066-1.02 c-0.083-2.184-0.352-9.539-0.352-12.557C131.716,320.599,131.697,319.768,131.664,318.715z M138.981,318.594 c-1.597-0.038-3.751-0.004-6.318,0.084c0.034,1.071,0.053,1.915,0.053,2.427c0,2.995,0.268,10.309,0.351,12.505 c5.147-0.267,9.146-0.48,11.297-0.607c2.113-0.125,5.792-0.104,10.452,0.016c-0.169-1.703-0.71-7.134-1.384-13.849 C147.907,318.899,142.805,318.685,138.981,318.594z M70.584,308.338c-7.979,0.747-13.947,1.356-15.709,1.538l0.323,13.689 c1.796-0.166,7.616-0.701,15.453-1.387L70.584,308.338z M91.651,320.406c6.317-0.511,12.824-1.015,18.982-1.452 c-0.111-4.519-0.234-9.388-0.355-13.779c-6.069,0.36-12.619,0.839-19.027,1.355C91.384,310.765,91.524,315.744,91.651,320.406z M90.927,297.738c0.083,1.651,0.184,4.445,0.291,7.793c6.408-0.516,12.958-0.994,19.031-1.354 c-0.136-4.868-0.267-9.038-0.369-11.285c-0.042-0.922-0.084-2.091-0.125-3.422c-5.834,0.227-12.402,0.573-18.932,0.962 C90.821,293.57,90.849,296.178,90.927,297.738z M90.826,289.43c6.519-0.388,13.074-0.733,18.9-0.96 c-0.115-3.955-0.226-9.13-0.32-14.125c-5.554,0.383-11.969,0.858-18.432,1.352C90.899,280.37,90.838,285.291,90.826,289.43z M110.755,289.432c0.041,1.329,0.083,2.496,0.125,3.415c0.102,2.246,0.233,6.41,0.368,11.272c7.967-0.458,15.033-0.7,19.757-0.533 c-0.227-4.534-0.458-8.679-0.606-10.679c-0.056-0.761-0.13-2.132-0.214-3.899c-4.596,0.084-8.794,0.16-12.267,0.221 C115.734,289.267,113.321,289.337,110.755,289.432z M117.881,272.795c3.682-0.217,7.632-0.391,11.61-0.533 c-0.276-7.177-0.517-13.821-0.581-15.606c-5.541,0.359-11.999,0.848-18.774,1.398c0.027,1.892,0.121,8.265,0.25,15.222 C113.156,273.087,115.693,272.924,117.881,272.795z M188.263,287.916c-1.374,0.026-8.596,0.164-18.193,0.346 c0.031,0.983,0.065,1.781,0.103,2.314c0.124,1.733,0.789,7.133,1.62,13.566c8.986-0.093,16.145-0.244,17.823-0.281 C189.002,297.516,188.459,291.473,188.263,287.916z M110.405,274.277c0.094,5.005,0.205,10.194,0.321,14.156 c2.57-0.095,4.987-0.166,7.176-0.204c3.465-0.061,7.653-0.136,12.237-0.22c-0.181-3.934-0.403-9.424-0.609-14.748 c-3.972,0.141-7.915,0.316-11.59,0.532C115.741,273.922,113.191,274.087,110.405,274.277z M71.652,322.091 c5.614-0.49,12.176-1.049,19.001-1.604c-0.126-4.659-0.267-9.639-0.4-13.876c-6.649,0.541-13.104,1.116-18.669,1.634L71.652,322.091 z M71.579,307.242c5.56-0.517,12.005-1.091,18.642-1.63c-0.108-3.362-0.209-6.168-0.292-7.823c-0.078-1.562-0.107-4.166-0.104-7.297 c-6.434,0.388-12.788,0.813-18.321,1.2L71.579,307.242z M109.387,273.344c-0.128-6.894-0.221-13.227-0.25-15.209 c-5.871,0.48-11.949,1.002-17.848,1.525c-0.046,1.959-0.184,8.119-0.299,15.033C97.443,274.2,103.845,273.726,109.387,273.344z M22.422,178.402l-0.01,6.828l25.346-2.535l-0.079-6.567L22.422,178.402z M27.395,198.889c0.436-0.176,0.874-0.456,1.28-0.803 c1.89,0.849,4.212,0.797,5.985-0.274c0.37-0.223,0.763-0.538,1.144-0.912c1.355,0.647,2.955,0.868,4.361,0.648 c0.916-0.144,2.023-0.595,2.963-1.257c1.809,0.629,3.992,0.248,5.518-0.939c1.269-0.986-0.512-2.744-1.768-1.768 c-0.528,0.411-1.231,0.585-1.922,0.549c0.28-0.726,0.293-1.524-0.135-2.358c-0.579-1.13-2.003-1.838-3.226-1.362 c-1.618,0.629-1.725,2.588-0.925,3.912c0.087,0.144,0.183,0.275,0.281,0.405c-1.121,0.515-2.47,0.553-3.625,0.117 c0.668-1.31,0.861-2.759-0.091-3.857c-0.778-0.897-2.113-0.917-3.083-0.329c-1.259,0.765-1.532,2.285-1.005,3.585 c0.167,0.412,0.404,0.772,0.669,1.108c-0.512,0.406-1.114,0.696-1.762,0.8c-0.598,0.096-1.234,0.043-1.822-0.13 c0.564-1.272,0.556-2.687-0.609-3.719c-0.935-0.829-2.296-0.702-3.169,0.166c-1.138,1.131-0.869,2.825,0.055,3.989 c0.018,0.023,0.042,0.039,0.061,0.062c-0.226,0.101-0.459,0.181-0.698,0.213c-1.683,0.227-3.136-1.102-3.961-2.418 c-0.853-1.36-3.017-0.107-2.159,1.262C21.333,198.097,24.368,200.114,27.395,198.889z M47.347,203.476 c-0.929,0.769-2.607,2.069-3.986,1.818c0.456-0.883,0.635-1.88,0.158-2.79c-0.969-1.845-3.428-1.041-3.93,0.723 c-0.232,0.813-0.096,1.593,0.266,2.272c-0.257,0.159-0.523,0.301-0.795,0.402c-0.544,0.202-1.137,0.295-1.72,0.258 c0.227-0.782,0.093-1.635-0.6-2.315c-1.341-1.316-3.4-0.188-3.522,1.543c-0.022,0.318,0.028,0.603,0.108,0.873 c-0.863,0.199-1.999,0.348-2.785,0.175c0.024-0.119,0.049-0.238,0.058-0.36c0.088-1.161-0.474-2.435-1.733-2.625 c-0.717-0.108-1.277,0.175-1.538,0.873c-0.312,0.836-0.211,1.694,0.144,2.448c-0.409,0.331-0.93,0.539-1.453,0.54 c-1.071,0.001-1.821-0.741-2.226-1.666c-0.643-1.47-2.798-0.199-2.159,1.262c1.134,2.592,4.321,3.669,6.781,2.247 c0.279-0.161,0.551-0.356,0.803-0.578c0.116,0.06,0.228,0.129,0.349,0.177c1.712,0.682,4.096,0.264,5.807-0.523 c0.505,0.204,1.036,0.341,1.535,0.398c1.694,0.191,3.412-0.338,4.762-1.361c0.342,0.182,0.703,0.322,1.067,0.41 c2.432,0.586,4.609-0.967,6.376-2.431C50.355,204.217,48.578,202.457,47.347,203.476z M501.041,164.028 c0.094-0.514,0.038-0.891-0.169-1.154c-0.587-0.744-2.525-0.85-4.77-0.973c-1.05-0.058-2.208-0.125-3.426-0.256l-8.04,17.731 C489.618,175.693,500.481,167.107,501.041,164.028z M149.343,75.388l-0.143-1.05c-0.021-0.152-2.155-15.267-10.431-21.118 c-2.982-2.108-6.442-2.773-10.28-1.973c-3.742,0.78-6.39,2.658-7.87,5.583c-4.267,8.432,2.278,22.965,2.344,23.111l1.027,2.248 l-1.82-1.672c-0.074-0.068-7.475-6.771-13.905-4.637c-4.253,1.412-7.207,6.34-8.779,14.649c-1.445,7.639-0.435,13.011,3.001,15.966 c6.168,5.305,18.265,1.148,18.386,1.105l0.937-0.329l-0.293,0.948c-0.032,0.104-3.187,10.528,1.201,17.007 c2.051,3.027,5.455,4.751,10.118,5.125c4.834,0.388,8.467-0.762,10.795-3.416c4.658-5.31,2.658-14.989,2.637-15.086l-0.3-1.406 l1.108,0.916c0.115,0.095,11.606,9.487,20.598,7.426c3.482-0.797,6.181-3.236,8.021-7.25c1.965-4.287,2.075-7.89,0.325-10.708 c-4.036-6.5-16.659-6.951-16.786-6.954l-1.585-0.047l1.326-0.871c0.231-0.152,23.021-15.296,16.016-26.504 c-1.304-2.086-3.069-3.249-5.248-3.455c-8.086-0.765-19.564,11.488-19.679,11.612L149.343,75.388z M189.168,283.841 c0.006,0.355,0.01,0.687,0.013,0.995c0,0.021,0,0.04,0,0.061c0.003,0.298,0.005,0.575,0.005,0.82c0,4.307,1.717,21.146,2.854,32.288 c0.245,2.399,0.456,4.467,0.613,6.058c0.184-0.006,0.365-0.028,0.551-0.028c7.242,0,13.337,4.934,15.145,11.612 c8.798,0.526,15.473,0.953,17.377,1.076l-1.216-52.268L189.168,283.841z M188.187,285.717c0-0.246-0.002-0.526-0.005-0.826 c0-0.021,0-0.04-0.001-0.062c-0.003-0.31-0.008-0.645-0.014-1.004c0-0.001,0-0.001,0-0.002l-18.2-0.316 c0.008,0.512,0.017,1.003,0.026,1.482c0.004,0.212,0.008,0.423,0.012,0.628c0.003,0.167,0.007,0.328,0.01,0.489 c0.009,0.402,0.018,0.793,0.027,1.157c9.533-0.181,16.727-0.318,18.174-0.346C188.197,286.453,188.187,286.045,188.187,285.717z M153.343,271.732c0.062-0.001,0.128-0.001,0.189-0.002c0.997-0.011,1.936-0.02,2.809-0.028l0.043-15.772c-0.004,0-0.008,0-0.013,0 c-0.93-0.003-1.843-0.005-2.742-0.006c-0.094,0-0.19,0-0.284,0c-0.941,0-1.863,0.001-2.759,0.004 c-0.044,1.947-0.202,9.3-0.233,15.842C151.398,271.755,152.394,271.743,153.343,271.732z M150.592,282.438 c0.097,0.615,0.313,2.49,0.605,5.179c6.246-0.117,12.396-0.233,17.846-0.336c-0.009-0.36-0.018-0.746-0.027-1.142 c-0.004-0.174-0.008-0.349-0.011-0.529c-0.004-0.186-0.007-0.379-0.011-0.572c-0.009-0.495-0.018-1.005-0.027-1.535 c0-0.004,0-0.009,0-0.013l-12.657-0.22l0.029-10.567c-0.869,0.008-1.804,0.017-2.794,0.028c-0.146,0.002-0.301,0.003-0.449,0.005 c-0.877,0.01-1.789,0.021-2.746,0.034C150.337,277.241,150.391,281.163,150.592,282.438z M492.676,161.645 c-1.779-0.191-3.69-0.523-5.614-1.197c-1.162-0.407-1.84-1.02-2.017-1.822c-0.399-1.811,1.896-4.037,4.325-6.394 c2.083-2.021,4.443-4.311,4.184-5.69c-0.083-0.447-0.473-0.814-1.173-1.124h-25.861v-0.461l-0.066-0.003v34.871h17.572 c0.191-0.139,0.396-0.29,0.61-0.448L492.676,161.645z" fill="#ff867a"/></g><g id="change4_1"><path d="M453.245,235.063c1.268-0.126,2.132-0.198,2.449-0.224v30.585h-45.555v-17.759l0.153,0.279 c0.033-0.019,0.813-0.445,2.11-1.116L453.245,235.063z M193.204,325.035c-8.108,0-14.705,6.597-14.705,14.705 s6.597,14.705,14.705,14.705s14.705-6.597,14.705-14.705S201.312,325.035,193.204,325.035z M435.56,237.643 c-7.884,1.577-18.658,6.86-23.157,9.185l40.842-11.765C449.612,235.423,442.645,236.226,435.56,237.643z M455.792,234.329 L455.792,234.329L455.792,234.329L455.792,234.329z M410.051,247.505L410.051,247.505L410.051,247.505L410.051,247.505z M246.273,182.477c-0.848,1.055-0.957,2.593-0.76,4.072c0.016-0.022,0.036-0.042,0.052-0.065c0.662-0.931,1.381-2.015,1.669-3.131 C247.477,182.412,247.205,181.318,246.273,182.477z M210.985,192.902c-0.506-0.765-1.57-1.152-2.454-1.115 c-2.699,0.113-3.04,3.67-1.962,5.545c0.42,0.73,1.021,1.295,1.711,1.744c0.648-0.691,1.234-1.437,1.73-2.226 C210.677,195.786,211.808,194.147,210.985,192.902z M273.487,222.671c-1.202,0.124-0.777,1.839-0.423,2.766 c0.272-0.338,0.509-0.702,0.676-1.1C273.922,223.904,274.354,222.581,273.487,222.671z M235.232,223.118 c-0.253,1.093,0.204,2.14,0.931,3.032c0.831-0.836,1.487-1.82,1.671-2.978C238.162,221.123,235.562,221.691,235.232,223.118z M216.261,224.057c0.151-0.393,0.235-0.884,0.197-1.353c-0.18,0.485-0.27,0.991-0.278,1.507 C216.203,224.158,216.24,224.112,216.261,224.057z M219.15,152.868c1.063-1.85,1.811-4.43,0.238-5.94 C217.283,148.034,217.682,151.324,219.15,152.868z M244.692,140.685c-0.533-1.142-1.796-1.307-2.856-0.811 c-1.154,0.54-1.751,1.644-1.845,2.88c-0.148,1.944,0.77,3.846,2.055,5.388c0.065-0.077,0.133-0.151,0.197-0.23 C243.654,146.17,245.797,143.053,244.692,140.685z M263.075,187.203c-1.598,1.339-0.527,4.094,0.668,5.653 c0.132-0.184,0.265-0.366,0.376-0.566C265.026,190.66,264.809,188.168,263.075,187.203z M203.423,149.322 c0.458-0.307,0.91-0.624,1.358-0.946C204.283,148.601,203.823,148.926,203.423,149.322z M283.453,186.444 c0.276,1.023,0.744,1.992,1.37,2.847c0.004-0.111,0.019-0.221,0.012-0.334C284.775,187.95,284.253,186.983,283.453,186.444z M258.519,149.391c0.01,0.116,0.031,0.228,0.048,0.342c1.769-1.535,3.098-3.587,3.765-5.861 C259.982,144.263,258.312,147.111,258.519,149.391z M284.403,149.465c-0.445-2.563-3.133-2.373-4.744-1.036 c-1.891,1.569-1.976,3.951-0.47,5.84c0.491,0.617,1.101,1.127,1.77,1.555C282.925,154.367,284.843,151.997,284.403,149.465z M297.898,115.915l-0.302-16.349c1.443-0.211,2.868-0.404,4.256-0.55c12.268-1.291,24.679-2.022,27.364-2.173 c-0.062,6.706-0.646,73.963,0.742,90.628c1.387,16.637-1.862,76.053-2.182,81.786c-4.613,0.314-43.928,3.006-58.356,4.38 c-7.215,0.688-30.275,0.069-52.573-0.527c-15.987-0.428-31.438-0.842-42.061-0.842c-6.24,0-10.815,0.143-12.85,0.51 c-0.202-7.409-2.145-79.49-1.454-91.935c0.017-0.311,0.034-0.654,0.051-1.024c0.005-0.12,0.01-0.258,0.016-0.384 c0.011-0.261,0.022-0.522,0.032-0.809c0.006-0.172,0.013-0.362,0.019-0.543c0.009-0.261,0.018-0.52,0.027-0.799 c0.007-0.216,0.013-0.448,0.02-0.675c0.008-0.273,0.016-0.544,0.024-0.831c0.006-0.236,0.013-0.485,0.019-0.731 c0.008-0.305,0.015-0.612,0.023-0.931c0.006-0.251,0.012-0.51,0.017-0.769c0.007-0.327,0.014-0.656,0.022-0.996 c0.006-0.285,0.012-0.576,0.017-0.87c0.007-0.339,0.013-0.682,0.02-1.033c0.005-0.299,0.011-0.603,0.016-0.91 c0.006-0.363,0.013-0.732,0.019-1.105c0.005-0.325,0.011-0.652,0.016-0.984c0.006-0.368,0.011-0.743,0.017-1.12 c0.005-0.334,0.01-0.669,0.015-1.009c0.006-0.408,0.011-0.823,0.017-1.239c0.005-0.345,0.009-0.689,0.014-1.039 c0.005-0.395,0.01-0.797,0.015-1.199c0.005-0.377,0.009-0.751,0.014-1.134c0.005-0.409,0.009-0.825,0.014-1.24 c0.004-0.387,0.009-0.77,0.013-1.162c0.004-0.357,0.007-0.721,0.011-1.082c0.005-0.48,0.01-0.957,0.015-1.443 c0.002-0.205,0.004-0.415,0.006-0.621c0.006-0.594,0.011-1.189,0.017-1.791c0.007-0.825,0.014-1.656,0.021-2.493l39.237-5.395 c0.746-18.528,0.506-31.575,0.004-40.38c0.02-0.702,0.041-1.401,0.06-2.113c17.759,0.77,37.083,1.572,47.815,1.908 c12.702,0.398,23.151-0.897,32.409-2.428c0.198,7.185,0.373,12.975,0.376,13.108l0.015,0.489L297.898,115.915z M293.39,222.712 c-0.696,3.984-3.574,7.437-7.468,8.666c-3.919,1.237-8.277-0.16-11.039-3.132c-0.168-0.181-0.309-0.384-0.463-0.576 c1.436-1.536,2.63-3.652,1.85-5.694c-1.052-2.753-4.735-2.044-5.751,0.349c-0.677,1.595-0.26,3.362,0.59,4.95 c-2.465,1.806-5.647,2.528-8.676,2.28c-1.894-0.155-3.762-0.755-5.377-1.756c-0.835-0.517-1.599-1.149-2.247-1.889 c-0.061-0.069-0.133-0.166-0.209-0.276c0.635-1.117,1.111-2.347,1.381-3.67c0.178-0.873-0.369-1.475-1.205-1.582 c-1.406-0.18-2.649,0.729-3.215,1.979c-0.479,1.057-0.346,2.186,0.086,3.209c-1.547,2.062-3.826,3.544-6.477,3.906 c-2.199,0.301-4.507-0.143-6.44-1.227c-0.231-0.13-0.476-0.282-0.723-0.45c1.557-1.617,2.784-3.741,2.281-5.948 c-0.562-2.466-3.374-3.052-5.402-1.988c-2.666,1.399-2.618,4.734-1.202,7.039c0.17,0.277,0.362,0.539,0.561,0.795 c-0.151,0.101-0.303,0.203-0.452,0.296c-3.752,2.357-8.893,4.382-13.276,2.626c-1.419-0.569-2.712-1.816-3.514-3.29 c2.167-2.292,2.883-5.913,0.105-8.057c-0.421-0.325-1.171-0.17-1.515,0.195c-1.9,2.023-2.227,4.687-1.53,7.149 c-0.03,0.023-0.06,0.05-0.089,0.073c-1.941,1.52-4.135,3.156-6.55,3.799c-1.873,0.498-3.767,0.231-4.816-1.519 c-0.688-1.146-1.013-2.835,0.374-3.558c1.427-0.744,0.165-2.902-1.262-2.159c-2.448,1.276-2.63,4.231-1.528,6.499 c1.342,2.763,4.141,3.837,7.084,3.324c1.87-0.326,3.61-1.232,5.188-2.255c0.878-0.569,1.773-1.175,2.625-1.826 c0.792,1.324,1.884,2.477,3.17,3.277c5.418,3.37,13.038,0.649,17.788-2.793c1.451,1.117,3.191,1.894,4.932,2.272 c4.598,0.997,9.187-0.702,12.115-4.015c1.511,1.672,3.533,2.881,5.654,3.594c4.547,1.528,9.851,0.794,13.757-1.998 c0.407,0.49,0.831,0.937,1.242,1.318c2.181,2.022,4.982,3.305,7.939,3.619c6.659,0.708,12.973-4.368,14.113-10.89 C296.075,221.803,293.667,221.127,293.39,222.712z M299.023,187.556c-1.504,3.358-5.161,5.623-8.881,5.063 c-1.17-0.176-2.26-0.631-3.217-1.284c0.306-0.858,0.469-1.763,0.383-2.71c-0.247-2.735-2.517-5.266-5.381-5.116 c-0.649,0.034-1.284,0.545-1.25,1.25c0.131,2.684,1.302,5.272,3.145,7.197c-0.46,0.644-1.018,1.222-1.578,1.7 c-2.549,2.172-5.988,3.166-9.3,3.084c-2.437-0.06-5.185-0.74-7.3-2.164c0.689-0.9,1.197-1.94,1.425-3.142 c0.431-2.273-0.431-4.841-2.363-6.187c-0.934-0.65-1.836-0.934-2.852-0.292c-0.916,0.579-1.583,1.497-1.872,2.54 c-0.734,2.646,0.278,5.113,1.998,7.052c-1.196,0.812-2.62,1.328-4.006,1.55c-4.946,0.79-9.833-1.948-11.679-6.589 c0.506-0.561,0.991-1.142,1.429-1.762c1.264-1.789,2.949-4.627,1.744-6.841c-1.285-2.361-4.082-1.532-5.361,0.309 c-1.443,2.077-1.297,4.98-0.738,7.336c0.025,0.106,0.06,0.209,0.087,0.314c-2.629,2.447-6.093,4.064-9.654,4.312 c-2.48,0.173-5.276-0.259-7.223-1.909c0.695-2.758,0.611-5.677-0.513-8.355c-0.349-0.83-1.362-1.288-2.089-0.552 c-2.71,2.746-2.268,6.672-0.183,9.46c-0.676,1.926-1.808,3.713-3.287,5.17c-1.721,1.696-3.939,2.94-6.357,3.255 c-1.078,0.141-2.28,0.092-3.43-0.167c0.167-0.201,0.34-0.396,0.498-0.603c2.046-2.683,4.087-6.819,0.554-9.227 c-2.82-1.922-6.596-0.797-7.848,2.372c-1.19,3.011,0.044,6.252,2.465,8.156c-3.071,2.291-7.006,3.239-10.671,1.286 c-2.537-1.352-4.488-3.99-3.938-6.978c0.517-2.806,2.858-5.311,5.835-5.172c1.608,0.075,1.605-2.425,0-2.5 c-3.522-0.164-6.501,2.307-7.774,5.469c-1.357,3.369-0.425,7.086,2.185,9.577c2.594,2.476,6.315,3.575,9.84,3.016 c2.592-0.412,4.938-1.678,6.9-3.391c2.99,1.133,6.397,0.892,9.306-0.411c3.406-1.526,6.153-4.486,7.669-7.944 c0.399,0.285,0.815,0.545,1.259,0.754c4.863,2.294,10.858,1.203,15.286-1.583c0.739-0.465,1.428-0.994,2.094-1.551 c1.913,3.88,5.648,6.65,10.052,7.242c3.07,0.413,6.827-0.334,9.471-2.292c0.873,0.649,1.809,1.187,2.735,1.582 c5.314,2.268,11.843,1.712,16.517-1.77c0.949-0.707,1.852-1.58,2.583-2.567c1.121,0.732,2.379,1.257,3.739,1.489 c4.741,0.807,9.738-1.81,11.71-6.212C301.834,187.362,299.681,186.089,299.023,187.556z M299.296,148.171 c-1.948,5.407-7.513,9.311-13.284,9.158c-0.82-0.022-1.664-0.154-2.488-0.38c1.857-1.69,3.233-3.905,3.407-6.44 c0.234-3.416-2.507-6.203-5.942-5.467c-2.867,0.614-5.429,3.383-5.415,6.382c0.01,2.337,1.297,4.323,3.052,5.754 c-4.446,1.997-9.959,1.584-14.222-0.645c-1.868-0.976-3.809-2.441-4.936-4.324c2.939-2.208,5.058-5.516,5.626-9.196 c0.097-0.63-0.151-1.392-0.873-1.538c-3.592-0.726-6.705,1.795-7.824,5.108c-0.53,1.568-0.473,3.162-0.022,4.66 c-1.43,0.757-3.024,1.216-4.712,1.265c-2.679,0.078-5.342-0.789-7.504-2.368c-0.104-0.076-0.205-0.166-0.308-0.247 c1.218-1.414,2.267-3,2.927-4.707c0.875-2.259,1.073-5.206-0.868-6.986c-1.861-1.706-4.695-1.263-6.488,0.303 c-2.198,1.919-2.306,5.131-1.341,7.707c0.519,1.385,1.29,2.64,2.237,3.746c-3.375,3.121-7.842,5.1-12.432,5.354 c-2.136,0.118-4.611-0.048-6.643-0.992c0.998-1.575,1.594-3.362,1.527-5.307c-0.061-1.768-1.46-5.348-3.79-4.634 c-2.23,0.683-3.436,3.015-3.563,5.213c-0.131,2.275,0.776,4.008,2.214,5.287c-2.177,2.222-5.515,3.686-8.535,3.685 c-3.159-0.001-6.622-2.102-7.104-5.435c2.508-1.461,4.905-3.116,7.166-4.976c0.591-0.487,0.433-1.639-0.253-1.963 c-4.203-1.987-8.685,1.294-9.332,5.463c-2.443,1.334-4.992,2.475-7.627,3.392c-1.51,0.525-0.861,2.941,0.665,2.411 c2.454-0.854,4.824-1.887,7.11-3.074c1.43,5.702,8.256,7.713,13.374,6.021c2.36-0.78,4.789-2.221,6.624-4.14 c2.184,1.096,4.833,1.58,7.067,1.581c5.594,0.002,11.109-2.261,15.214-6.034c0.035-0.033,0.07-0.068,0.105-0.101 c2.987,2.425,6.977,3.67,10.789,3.205c1.583-0.193,3.099-0.682,4.496-1.398c0.652,1.088,1.489,2.078,2.425,2.902 c5.48,4.822,14.235,5.996,20.729,2.609c0.19-0.099,0.38-0.204,0.568-0.313c0.1,0.045,0.199,0.092,0.299,0.134 c8.097,3.376,17.472-2.178,20.294-10.01C302.253,147.319,299.838,146.666,299.296,148.171z M466.455,144.953l0.066,0.003v-0.539 h24.315c-0.397-0.41-0.651-0.885-0.745-1.427c-0.608-3.521,5.566-9.166,13.384-16.312c2.58-2.358,5.247-4.796,7.875-7.344 l0.659,0.68v-5.268H493.92l-12.041,2.294l-0.27-2.294h-15.155V144.953z" fill="#72dad5"/></g><g id="change5_1"><path d="M70.137,226.873l-0.034-0.532c-0.029-0.455-2.938-45.643-2.938-54.343v-62.185l-0.46-0.037 c-0.849-0.066-15.908-1.249-25.704-1.551L38.455,83.28l-17.169,1.561l2.873,24.424c-9.892,0.893-23.47,1.967-23.665,1.982L0,111.286 l0.034,0.494c0.03,0.426,2.938,42.752,2.938,55.81c0,13.09,2.911,60.541,2.94,61.018l0.028,0.45l0.45,0.02 c0.355,0.015,4.648,0.188,9.793,0.188c5.333,0,11.582-0.188,15.309-0.933c7.216-1.443,37.803-1.46,38.111-1.46H70.137z M16.056,141.816c2.725-8.174,10.809-14.096,19.052-14.096c0.292,0,0.586,0.007,0.879,0.022c7.102,0.366,12.201,5.195,13.99,13.249 c4.674,21.03,4.659,65.041,4.642,69.981l-38.566,3.78C15.725,208.672,12.76,151.704,16.056,141.816z M22.398,85.744l15.162-1.379 l3.577,35.057l-14.453,2.753L22.398,85.744z M432.478,43.917H414.32l-0.511-27.63l-17.155,0.78v0.478 c0,4.615,0.309,16.814,0.573,26.373h-28.071v96.361h63.322V43.917z M412.829,17.332l0.716,38.661l-14.967,0.134 c-0.117-3.912-0.892-30.06-0.923-38.105L412.829,17.332z M397.592,56.646l0.015,0.489l16.955-0.151l-0.043-2.306h9.074v65.077 H378.04V54.678h19.494C397.569,55.878,397.591,56.6,397.592,56.646z M431.478,139.277h-61.322V44.917h27.099 c0.098,3.532,0.188,6.635,0.25,8.761H377.04v67.077h47.554V53.678h-10.092l-0.162-8.761h17.139V139.277z M497.274,103.986 l-2.757-27.023l-17.169,1.561l2.995,25.463h-22.773v85.6h-17.683l1.629-23.354l-17.19-0.792l-1.053,24.146h-22.018v96.36h63.322 v-85.599h56.315v-96.361H497.274z M512.009,114.748v5.268l-0.659-0.68c-2.628,2.547-5.295,4.986-7.875,7.344 c-7.817,7.146-13.992,12.79-13.384,16.312c0.094,0.543,0.348,1.017,0.745,1.427h-24.315v0.539v0.461h25.861 c0.7,0.31,1.089,0.677,1.173,1.124c0.26,1.379-2.101,3.67-4.184,5.69c-2.43,2.357-4.725,4.583-4.325,6.394 c0.177,0.802,0.854,1.416,2.017,1.822c1.924,0.673,3.835,1.005,5.614,1.197c1.218,0.131,2.376,0.198,3.426,0.256 c2.244,0.123,4.183,0.229,4.77,0.973c0.207,0.263,0.263,0.64,0.169,1.154c-0.56,3.079-11.423,11.665-16.404,15.348 c-0.214,0.158-0.419,0.309-0.61,0.448h-17.572v-34.871v-30.206h15.155l0.27,2.294l12.041-2.294H512.009z M501.657,162.255 c-0.866-1.098-2.81-1.205-5.5-1.353c-0.941-0.052-1.967-0.108-3.046-0.215c-1.812-0.18-3.771-0.501-5.719-1.183 c-0.812-0.284-1.273-0.652-1.37-1.093c-0.279-1.266,2.018-3.495,4.045-5.461c2.483-2.41,4.829-4.685,4.471-6.593 c-0.152-0.81-0.773-1.449-1.846-1.9c-0.967-0.407-1.495-0.942-1.615-1.637c-0.515-2.982,5.782-8.738,13.073-15.403 c2.294-2.096,4.655-4.271,7.001-6.518c0.286-0.274,0.573-0.536,0.858-0.812v59.737h-26.298c4.025-2.997,15.642-11.924,16.314-15.618 C502.17,163.405,502.046,162.749,501.657,162.255z M425.282,166.485l15.167,0.699l-2.442,35.014l-14.146-3.124L425.282,166.485z M410.051,247.505L410.051,247.505L410.051,247.505L410.051,247.505z M410.139,247.665l0.153,0.279 c0.033-0.019,0.813-0.445,2.11-1.116c4.499-2.326,15.273-7.609,23.157-9.185c7.085-1.417,14.052-2.219,17.685-2.58 c1.268-0.126,2.132-0.198,2.449-0.224v30.585h-45.555V247.665z M455.792,234.329L455.792,234.329L455.792,234.329L455.792,234.329z M463.578,284.946h-61.322v-94.36h20.975l-0.382,8.762h-13.709v67.076h47.555v-67.076h-17.487l0.611-8.762h23.76V284.946z M519.893,199.348h-53.007l-2.309-9.762h-6.007v-84.6h21.89l1.031,8.761h-16.037v67.077h47.555v-67.077H498.27l-0.894-8.761h22.517 V199.348z M21.423,177.488l-0.013,8.848l27.359-2.736l-0.103-8.565L21.423,177.488z M22.412,185.23l0.01-6.828l25.257-2.274 l0.079,6.567L22.412,185.23z M24.657,171.048l-6.238-10.397l14.23-0.769l-0.275-2.471c-1.525-0.209-6.931-1.1-9.312-3.481 l-0.349-0.349l14.803-15.214l-0.781,21.077l12.82-0.777l-6.264,10.44L24.657,171.048z M330.22,96.319l0.005-0.532l-0.531,0.028 c-0.14,0.007-14.134,0.752-27.948,2.207c-1.362,0.143-2.757,0.331-4.169,0.536l-0.432-23.34l-17.156,0.78v0.478 c0,4.394,0.281,15.664,0.535,24.984c-9.246,1.534-19.68,2.836-32.35,2.438c-10.732-0.336-30.06-1.138-47.82-1.908 c0.86-33.01,0.563-75.739,0.543-78.423l-0.004-0.622l-0.606,0.138c-6.696,1.522-24.923,2.54-44.975,3.21L156.091,0l-18.543,2.458 l0.79,24.315c-22.51,0.54-43.944,0.705-51.1,0.705h-0.5v41.648c0,10.88-4.364,78.643-4.408,79.326l-0.034,0.525l0.526,0.007 c0.544,0.007,54.513,0.735,66.138,0.735c2.679,0,6.61-0.559,11.086-1.421c-0.107,14.227-0.281,27.401-0.563,32.49 c-0.321,5.766-0.078,24.26,0.295,43.223c-11.398-0.219-24.688-0.24-31.218,0.596c-12.604,1.615-37.265,3.252-37.513,3.269 l-0.467,0.031v12.018c-19.699,1.106-37.466,2.202-37.825,2.224l-0.48,0.029l0.474,20.074c-0.004,0-0.016,0.002-0.019,0.002 l0.024,0.247l1.796,76.031l0.512-0.025c0.766-0.037,76.737-3.763,89.359-4.505c5.011-0.295,18.888,0.233,33.818,0.978 c-0.479,1.503-0.742,3.101-0.742,4.76c0,8.66,7.045,15.705,15.705,15.705s15.705-7.045,15.705-15.705 c0-1.053-0.108-2.081-0.307-3.076c10.138,0.607,17.381,1.077,17.604,1.092l0.545,0.035l-1.476-63.457 c12.449,0.326,24.482,0.604,33.199,0.604c4.9,0,8.752-0.088,11.041-0.306c15.247-1.452,58.336-4.379,58.77-4.408l0.44-0.03 l0.024-0.44c0.037-0.646,3.66-64.899,2.204-82.367C329.502,169.978,330.212,97.054,330.22,96.319z M296.165,76.263l0.716,38.66 l-14.967,0.134c-0.117-3.912-0.893-30.059-0.924-38.104L296.165,76.263z M155.057,1.146l-1.175,39.521l-14.127-1.087l-1.178-36.249 L155.057,1.146z M148.961,148.72c-11,0-59.957-0.652-65.599-0.728c0.41-6.382,4.376-68.464,4.376-78.865V28.478 c7.615-0.007,28.602-0.177,50.632-0.708l0.414,12.738l16.066,1.235l0.429-14.454c19.566-0.654,37.427-1.64,44.62-3.102 c0.053,8.344,0.532,98.199-2.865,113.614C193.616,138.817,159.974,148.72,148.961,148.72z M54.875,309.876 c1.762-0.182,7.73-0.791,15.709-1.538l0.068,13.841c-7.838,0.686-13.657,1.221-15.453,1.387L54.875,309.876z M54.475,292.95 c1.783-0.14,7.944-0.617,16.028-1.187l0.076,15.572c-7.918,0.74-13.866,1.347-15.728,1.539L54.475,292.95z M54.137,278.639 c1.859-0.154,8.149-0.674,16.295-1.328l0.066,13.449c-8.038,0.567-14.187,1.043-16.046,1.189L54.137,278.639z M53.772,263.157 c2.262-0.222,8.43-0.822,16.583-1.586l0.072,14.737c-8.099,0.65-14.377,1.169-16.313,1.329L53.772,263.157z M71.498,290.69 l-0.066-13.459c5.641-0.452,12.092-0.962,18.541-1.457c-0.075,4.67-0.135,9.583-0.147,13.716 C83.392,289.878,77.037,290.302,71.498,290.69z M89.824,290.492c-0.003,3.131,0.026,5.735,0.104,7.297 c0.083,1.654,0.184,4.461,0.292,7.823c-6.637,0.539-13.081,1.113-18.642,1.63l-0.076-15.549 C77.036,291.305,83.39,290.88,89.824,290.492z M89.989,274.77c-6.453,0.495-12.911,1.005-18.562,1.458l-0.072-14.751 c5.638-0.527,12.147-1.126,18.932-1.729C90.238,261.84,90.102,267.948,89.989,274.77z M71.584,308.245 c5.564-0.518,12.02-1.093,18.669-1.634c0.133,4.237,0.274,9.217,0.4,13.876c-6.824,0.555-13.387,1.114-19.001,1.604L71.584,308.245z M168.968,283.49c0-0.002,0-0.004,0-0.005c0,0.006,0,0.012,0,0.018c0.008,0.53,0.017,1.039,0.027,1.535 c0.004,0.192,0.007,0.386,0.011,0.572c0.004,0.181,0.007,0.355,0.011,0.529c0.009,0.394,0.017,0.783,0.027,1.142 c-5.45,0.103-11.6,0.219-17.846,0.336c-0.292-2.689-0.508-4.565-0.605-5.179c-0.201-1.276-0.255-5.197-0.243-9.669 c0.957-0.013,1.868-0.024,2.746-0.034c0.148-0.002,0.303-0.004,0.449-0.005c1-0.011,1.92-0.02,2.794-0.027l-0.029,10.567 L168.968,283.49z M188.168,283.823c0,0.001,0,0.001,0,0.002c0.006,0.358,0.011,0.695,0.014,1.004c0,0.021,0,0.041,0.001,0.062 c0.003,0.3,0.005,0.58,0.005,0.826c0,0.329,0.011,0.736,0.029,1.2c-1.447,0.028-8.64,0.165-18.174,0.346 c-0.009-0.364-0.018-0.755-0.027-1.157c-0.003-0.16-0.007-0.323-0.01-0.489c-0.004-0.204-0.008-0.416-0.012-0.628 c-0.009-0.471-0.017-0.977-0.025-1.482L188.168,283.823z M188.093,280.445c0.015,0.569,0.028,1.11,0.039,1.626 C188.121,281.554,188.108,281.013,188.093,280.445z M188.139,282.357c0.011,0.52,0.021,1.011,0.028,1.464 C188.16,283.369,188.15,282.877,188.139,282.357z M170.785,304.152c-5.601,0.054-11.837,0.084-17.861,0.049 c-0.6-5.884-1.181-11.5-1.619-15.585c6.219-0.117,12.34-0.232,17.767-0.335c0.031,1.005,0.066,1.822,0.105,2.365 C169.302,292.407,169.96,297.766,170.785,304.152z M169.902,278.294c0.003,0.325,0.007,0.642,0.01,0.962 C169.908,278.936,169.905,278.62,169.902,278.294z M169.925,280.387c0.004,0.303,0.007,0.6,0.011,0.896 C169.932,280.987,169.928,280.69,169.925,280.387z M169.952,282.482c0.004,0.248,0.007,0.498,0.011,0.739 C169.959,282.98,169.956,282.73,169.952,282.482z M156.921,272.698c0.095-0.001,0.193-0.002,0.286-0.002 C157.114,272.696,157.016,272.697,156.921,272.698z M158.513,272.685c0.096-0.001,0.188-0.001,0.281-0.002 C158.701,272.684,158.608,272.685,158.513,272.685z M156.342,271.702c-0.873,0.008-1.812,0.017-2.809,0.028 c-0.061,0.001-0.127,0.001-0.189,0.002c-0.949,0.011-1.945,0.023-2.99,0.037c0.032-6.542,0.189-13.894,0.233-15.842 c0.896-0.003,1.821-0.004,2.759-0.004c0.094,0,0.19,0,0.284,0c0.897,0.001,1.812,0.003,2.742,0.006c0.004,0,0.008,0,0.013,0 L156.342,271.702z M149.605,282.595c0.093,0.592,0.303,2.418,0.588,5.042c-6.513,0.122-13.092,0.244-19.054,0.354 c-0.181-3.928-0.403-9.428-0.61-14.764c6.621-0.226,13.263-0.362,18.819-0.442C149.337,277.294,149.395,281.263,149.605,282.595z M149.352,271.784c-5.566,0.081-12.224,0.217-18.862,0.443c-0.278-7.209-0.519-13.888-0.582-15.635 c3.655-0.231,6.879-0.403,9.478-0.492c2.785-0.096,6.262-0.148,10.2-0.167C149.54,257.97,149.382,265.264,149.352,271.784z M128.91,256.656c0.064,1.785,0.305,8.429,0.581,15.606c-3.978,0.142-7.928,0.316-11.61,0.533c-2.188,0.129-4.725,0.293-7.495,0.481 c-0.128-6.957-0.222-13.33-0.25-15.222C116.911,257.504,123.369,257.016,128.91,256.656z M109.726,288.471 c-5.826,0.226-12.381,0.572-18.9,0.96c0.012-4.139,0.073-9.06,0.148-13.733c6.463-0.494,12.878-0.969,18.432-1.352 C109.5,279.341,109.61,284.516,109.726,288.471z M109.137,258.135c0.029,1.982,0.122,8.315,0.25,15.209 c-5.542,0.382-11.944,0.855-18.397,1.349c0.115-6.914,0.253-13.074,0.299-15.033C97.188,259.138,103.266,258.615,109.137,258.135z M109.756,289.47c0.042,1.332,0.083,2.5,0.125,3.422c0.102,2.247,0.233,6.417,0.369,11.285c-6.073,0.36-12.623,0.838-19.031,1.354 c-0.107-3.348-0.209-6.142-0.291-7.793c-0.078-1.56-0.107-4.168-0.104-7.306C97.354,290.043,103.922,289.697,109.756,289.47z M91.25,306.531c6.408-0.516,12.958-0.995,19.027-1.355c0.121,4.391,0.245,9.26,0.355,13.779 c-6.158,0.438-12.665,0.941-18.982,1.452C91.524,315.744,91.384,310.765,91.25,306.531z M110.405,274.277 c2.786-0.19,5.336-0.355,7.535-0.484c3.675-0.216,7.619-0.391,11.59-0.532c0.206,5.324,0.428,10.813,0.609,14.748 c-4.584,0.084-8.773,0.159-12.237,0.22c-2.189,0.038-4.606,0.109-7.176,0.204C110.609,284.471,110.499,279.282,110.405,274.277z M117.919,289.229c3.472-0.061,7.671-0.137,12.267-0.221c0.084,1.767,0.158,3.138,0.214,3.899c0.148,2,0.379,6.145,0.606,10.679 c-4.724-0.167-11.79,0.075-19.757,0.533c-0.136-4.861-0.266-9.025-0.368-11.272c-0.042-0.92-0.084-2.086-0.125-3.415 C113.321,289.337,115.734,289.267,117.919,289.229z M111.276,305.117c8-0.461,15.082-0.701,19.78-0.528 c0.234,4.743,0.458,9.763,0.575,13.126c-5.387,0.207-12.397,0.634-20,1.169C111.521,314.367,111.397,309.503,111.276,305.117z M131.397,292.833c-0.056-0.751-0.128-2.103-0.211-3.843c5.982-0.11,12.583-0.232,19.115-0.355 c0.436,4.057,1.016,9.671,1.617,15.559c-7.34-0.052-14.29-0.204-19.292-0.529c-0.198-0.013-0.407-0.024-0.616-0.035 C131.78,299.049,131.546,294.851,131.397,292.833z M132.56,304.663c5.044,0.329,12.059,0.482,19.459,0.533 c0.447,4.387,0.901,8.884,1.312,12.969c-5.476-0.269-10.53-0.481-14.327-0.571c-1.612-0.038-3.785-0.004-6.374,0.085 c-0.117-3.351-0.338-8.328-0.571-13.044C132.227,304.644,132.399,304.653,132.56,304.663z M153.026,305.202 c6.04,0.034,12.287,0.004,17.889-0.05c0.59,4.546,1.251,9.528,1.862,14.078c-5.872-0.347-12.375-0.713-18.435-1.015 C153.93,314.122,153.475,309.61,153.026,305.202z M171.923,305.142c9.068-0.094,16.257-0.248,17.791-0.282 c0.448,4.591,0.926,9.279,1.331,13.247c0.08,0.788,0.158,1.546,0.231,2.269c-2.068-0.135-9.018-0.583-17.482-1.086 C173.183,314.729,172.517,309.718,171.923,305.142z M171.794,304.142c-0.832-6.433-1.497-11.833-1.62-13.566 c-0.038-0.533-0.072-1.331-0.103-2.314c9.596-0.182,16.818-0.32,18.193-0.346c0.195,3.557,0.739,9.601,1.354,15.945 C187.939,303.898,180.779,304.049,171.794,304.142z M156.6,244.616c1.22-0.044,2.434-0.089,3.623-0.133 C159.032,244.527,157.819,244.571,156.6,244.616z M159.799,225.011c-1.015-0.02-2.049-0.036-3.088-0.052 C157.75,224.974,158.784,224.991,159.799,225.011z M91.582,228.842c3.478-0.235,25.437-1.748,37.107-3.243 c0.387-0.05,0.801-0.096,1.234-0.139c0.148-0.015,0.31-0.028,0.464-0.042c0.296-0.027,0.592-0.055,0.907-0.08 c0.192-0.015,0.395-0.029,0.593-0.043c0.294-0.021,0.589-0.043,0.896-0.062c0.223-0.014,0.454-0.027,0.684-0.04 c0.3-0.017,0.601-0.034,0.912-0.049c0.25-0.013,0.504-0.024,0.761-0.036c0.307-0.014,0.617-0.027,0.933-0.039 c0.273-0.011,0.549-0.021,0.828-0.031c0.31-0.011,0.626-0.021,0.943-0.03c0.298-0.009,0.595-0.018,0.899-0.026 c0.308-0.008,0.622-0.015,0.936-0.022c0.325-0.007,0.648-0.015,0.979-0.021c0.286-0.005,0.577-0.009,0.867-0.014 c0.368-0.006,0.734-0.012,1.108-0.016c0.19-0.002,0.385-0.004,0.577-0.006c2.332-0.024,4.755-0.027,7.202-0.013 c0.036,0,0.073,0,0.109,0.001c0.626,0.004,1.251,0.009,1.878,0.014c0.047,0,0.094,0.001,0.142,0.001 c0.626,0.006,1.25,0.013,1.875,0.02c0.043,0,0.085,0.001,0.128,0.002c0.645,0.008,1.285,0.018,1.926,0.027l-0.054,19.667 c-2.37,0.086-4.774,0.173-7.159,0.257c-0.299,0.011-0.599,0.021-0.897,0.032c-0.541,0.019-1.076,0.038-1.613,0.056 c-0.452,0.016-0.902,0.031-1.35,0.047c-0.422,0.015-0.84,0.029-1.258,0.043c-0.593,0.02-1.179,0.04-1.761,0.06 c-0.33,0.011-0.659,0.022-0.985,0.033c-0.656,0.022-1.298,0.043-1.935,0.064c-0.248,0.008-0.501,0.017-0.746,0.025 c-0.885,0.029-1.755,0.057-2.594,0.083c-15.739,0.497-40.483,3.747-44.537,4.29V228.842z M53.298,243.117 c2.986-0.184,19.328-1.184,37.283-2.192v9.833l0.568-0.078c0.278-0.038,27.955-3.82,45-4.357c0.839-0.027,1.708-0.055,2.594-0.084 c0.268-0.009,0.546-0.018,0.818-0.027c0.58-0.019,1.166-0.039,1.762-0.059c0.417-0.014,0.84-0.028,1.264-0.043 c0.48-0.016,0.963-0.033,1.45-0.049c0.479-0.016,0.96-0.033,1.446-0.05c0.422-0.015,0.848-0.029,1.274-0.044 c0.53-0.018,1.059-0.037,1.594-0.056c0.272-0.01,0.547-0.019,0.82-0.029c2.41-0.085,4.846-0.173,7.244-0.26l-0.026,9.309 c-0.002,0-0.003,0-0.005,0c-2.476-0.009-4.84-0.008-7.059,0.003c-0.062,0-0.127,0-0.189,0.001c-0.52,0.003-1.02,0.007-1.523,0.011 c-0.328,0.003-0.658,0.005-0.979,0.008c-0.408,0.004-0.804,0.009-1.199,0.014c-0.4,0.005-0.793,0.01-1.178,0.016 c-0.332,0.005-0.662,0.01-0.983,0.016c-0.45,0.008-0.884,0.017-1.312,0.027c-0.241,0.005-0.489,0.01-0.723,0.016 c-0.657,0.017-1.291,0.035-1.887,0.055c-20.113,0.694-77.295,6.242-85.604,7.055L53.298,243.117z M55.527,337.483l-0.305-12.916 c1.71-0.158,7.544-0.694,15.435-1.385l0.066,13.553C62.933,337.12,57.22,337.4,55.527,337.483z M71.723,336.686l-0.067-13.591 c5.616-0.49,12.188-1.05,19.023-1.606c0.181,6.747,0.327,12.62,0.367,14.24C84.059,336.076,77.387,336.406,71.723,336.686z M92.046,335.679c-0.041-1.657-0.187-7.531-0.368-14.272c6.316-0.511,12.823-1.015,18.98-1.453 c0.177,7.261,0.315,13.389,0.346,14.777C104.792,335.045,98.308,335.368,92.046,335.679z M112.003,334.682 c-0.033-1.45-0.171-7.567-0.347-14.798c7.611-0.535,14.628-0.963,20.008-1.17c0.033,1.054,0.052,1.885,0.052,2.391 c0,3.018,0.27,10.373,0.352,12.557C126.379,333.957,119.407,334.31,112.003,334.682z M144.364,333.004 c-2.151,0.127-6.15,0.34-11.297,0.607c-0.083-2.197-0.351-9.51-0.351-12.505c0-0.513-0.02-1.356-0.053-2.427 c2.567-0.089,4.721-0.122,6.318-0.084c3.824,0.091,8.926,0.305,14.451,0.577c0.675,6.715,1.215,12.147,1.384,13.849 C150.156,332.9,146.477,332.879,144.364,333.004z M155.824,333.047c-0.16-1.613-0.702-7.058-1.381-13.826 c6.079,0.304,12.598,0.671,18.469,1.018c0.867,6.455,1.605,11.847,1.84,13.568C167.799,333.474,161.215,333.199,155.824,333.047z M175.768,333.857c-0.189-1.384-0.941-6.88-1.838-13.557c8.589,0.511,15.604,0.965,17.449,1.085 c0.102,1.007,0.195,1.925,0.274,2.729c-5.956,0.587-10.934,4.518-13.052,9.883C177.652,333.949,176.708,333.902,175.768,333.857z M193.204,354.445c-8.108,0-14.705-6.597-14.705-14.705s6.597-14.705,14.705-14.705s14.705,6.597,14.705,14.705 S201.312,354.445,193.204,354.445z M225.726,336.723c-1.904-0.123-8.579-0.55-17.377-1.076c-1.808-6.678-7.903-11.612-15.145-11.612 c-0.186,0-0.366,0.021-0.551,0.028c-0.158-1.591-0.369-3.659-0.613-6.058c-1.136-11.143-2.854-27.981-2.854-32.288 c0-0.245-0.002-0.522-0.005-0.82c0-0.021,0-0.04,0-0.061c-0.003-0.308-0.008-0.64-0.013-0.995l35.343,0.614l-0.236-10.147 L225.726,336.723z M327.776,269.257c-4.613,0.314-43.928,3.006-58.356,4.38c-7.215,0.688-30.275,0.069-52.573-0.527 c-15.987-0.428-31.438-0.842-42.061-0.842c-6.24,0-10.815,0.143-12.85,0.51c-0.202-7.409-2.145-79.49-1.454-91.935 c0.017-0.311,0.034-0.654,0.051-1.024c0.005-0.12,0.01-0.258,0.016-0.384c0.011-0.261,0.022-0.522,0.032-0.809 c0.006-0.172,0.013-0.362,0.019-0.543c0.009-0.261,0.018-0.52,0.027-0.799c0.007-0.216,0.013-0.448,0.02-0.675 c0.008-0.273,0.016-0.544,0.024-0.831c0.006-0.236,0.013-0.485,0.019-0.731c0.008-0.305,0.015-0.611,0.023-0.931 c0.006-0.251,0.012-0.51,0.017-0.769c0.007-0.327,0.014-0.656,0.022-0.996c0.006-0.285,0.012-0.576,0.017-0.87 c0.007-0.339,0.013-0.682,0.02-1.033c0.005-0.299,0.011-0.603,0.016-0.91c0.006-0.363,0.013-0.732,0.019-1.105 c0.005-0.325,0.011-0.652,0.016-0.984c0.006-0.368,0.011-0.743,0.017-1.12c0.005-0.334,0.01-0.669,0.015-1.009 c0.006-0.408,0.011-0.823,0.017-1.239c0.005-0.345,0.009-0.689,0.014-1.039c0.005-0.395,0.01-0.797,0.015-1.199 c0.005-0.377,0.009-0.751,0.014-1.134c0.005-0.409,0.009-0.825,0.014-1.24c0.004-0.387,0.009-0.77,0.013-1.162 c0.004-0.357,0.007-0.721,0.011-1.082c0.005-0.48,0.01-0.957,0.015-1.443c0.002-0.205,0.004-0.415,0.006-0.621 c0.006-0.594,0.011-1.189,0.017-1.791c0.007-0.834,0.015-1.675,0.022-2.522c0,0.01,0,0.019,0,0.029l39.237-5.395 c0.746-18.528,0.506-31.575,0.004-40.38c0.02-0.702,0.041-1.401,0.06-2.113c17.759,0.77,37.083,1.572,47.815,1.908 c12.702,0.398,23.151-0.897,32.409-2.428c0.198,7.185,0.373,12.975,0.376,13.108l0.015,0.489l16.955-0.151l-0.302-16.349 c1.443-0.211,2.868-0.404,4.256-0.55c12.268-1.291,24.679-2.022,27.364-2.173c-0.062,6.706-0.646,73.963,0.742,90.628 C331.344,204.107,328.095,263.523,327.776,269.257z M160.709,92.97c1.988-1.421,6.128-4.557,9.743-8.439 c6.661-7.154,8.523-13.588,5.385-18.608c-1.478-2.364-3.497-3.683-6.002-3.92c-7.489-0.718-17.126,8.473-19.804,11.196 c-0.626-3.57-3.227-15.522-10.683-20.795c-3.218-2.276-6.939-2.996-11.063-2.136c-4.055,0.845-6.935,2.901-8.559,6.112 c-3.596,7.108-0.106,17.844,1.561,22.132c-2.628-1.958-8.144-5.302-13.333-3.582c-4.625,1.533-7.805,6.719-9.45,15.414 c-1.517,8.017-0.395,13.707,3.334,16.912c5.662,4.866,15.459,2.474,18.475,1.573c-0.699,2.763-2.349,11.158,1.576,16.956 c2.229,3.293,5.885,5.165,10.868,5.564c0.638,0.051,1.257,0.077,1.857,0.077c4.257,0,7.54-1.286,9.772-3.833 c3.982-4.543,3.486-11.735,3.079-14.662c3.087,2.314,12.468,8.654,20.431,6.832c3.802-0.87,6.732-3.497,8.708-7.808 c2.114-4.612,2.203-8.533,0.264-11.654C173.354,94.645,164.272,93.288,160.709,92.97z M175.694,111.537 c-1.839,4.013-4.538,6.453-8.021,7.25c-8.991,2.061-20.483-7.331-20.598-7.426l-1.108-0.916l0.3,1.406 c0.021,0.097,2.021,9.776-2.637,15.086c-2.328,2.653-5.96,3.804-10.795,3.416c-4.663-0.373-8.067-2.097-10.118-5.125 c-4.388-6.479-1.233-16.903-1.201-17.007l0.293-0.948l-0.937,0.329c-0.121,0.043-12.217,4.2-18.386-1.105 c-3.437-2.955-4.447-8.327-3.001-15.966c1.572-8.309,4.526-13.237,8.779-14.649c6.431-2.134,13.832,4.569,13.905,4.637l1.82,1.672 l-1.027-2.248c-0.066-0.146-6.611-14.679-2.344-23.111c1.48-2.925,4.128-4.804,7.87-5.583c3.838-0.801,7.298-0.136,10.28,1.973 c8.276,5.851,10.411,20.966,10.431,21.118l0.143,1.05l0.72-0.777c0.115-0.124,11.593-12.377,19.679-11.612 c2.179,0.206,3.944,1.368,5.248,3.455c7.005,11.208-15.785,26.352-16.016,26.504l-1.326,0.871l1.585,0.047 c0.127,0.003,12.75,0.454,16.786,6.954C177.769,103.647,177.659,107.25,175.694,111.537z M299.296,148.171 c-1.948,5.407-7.513,9.311-13.284,9.158c-0.82-0.022-1.664-0.154-2.488-0.38c1.857-1.69,3.233-3.905,3.407-6.44 c0.234-3.416-2.507-6.203-5.942-5.467c-2.867,0.614-5.429,3.383-5.415,6.382c0.01,2.337,1.297,4.323,3.052,5.754 c-4.446,1.997-9.959,1.584-14.222-0.645c-1.868-0.976-3.809-2.441-4.936-4.324c2.939-2.208,5.058-5.516,5.626-9.196 c0.097-0.63-0.151-1.392-0.873-1.538c-3.592-0.726-6.705,1.795-7.824,5.108c-0.53,1.568-0.473,3.162-0.022,4.66 c-1.43,0.757-3.024,1.216-4.712,1.265c-2.679,0.078-5.342-0.789-7.504-2.368c-0.104-0.076-0.205-0.166-0.308-0.247 c1.218-1.414,2.267-3,2.927-4.707c0.875-2.259,1.073-5.206-0.868-6.986c-1.861-1.706-4.695-1.263-6.488,0.303 c-2.198,1.919-2.306,5.131-1.341,7.707c0.519,1.385,1.29,2.64,2.237,3.746c-3.375,3.121-7.842,5.1-12.432,5.354 c-2.136,0.118-4.611-0.048-6.643-0.992c0.998-1.575,1.594-3.362,1.527-5.307c-0.061-1.768-1.46-5.348-3.79-4.634 c-2.23,0.683-3.436,3.015-3.563,5.213c-0.131,2.275,0.776,4.008,2.214,5.287c-2.177,2.222-5.515,3.686-8.535,3.685 c-3.159-0.001-6.622-2.102-7.104-5.435c2.508-1.461,4.905-3.116,7.166-4.976c0.591-0.487,0.433-1.639-0.253-1.963 c-4.203-1.987-8.685,1.294-9.332,5.463c-2.443,1.334-4.992,2.475-7.627,3.392c-1.51,0.525-0.861,2.941,0.665,2.411 c2.454-0.854,4.824-1.887,7.11-3.074c1.43,5.702,8.256,7.713,13.374,6.021c2.36-0.78,4.789-2.221,6.624-4.14 c2.184,1.096,4.833,1.58,7.067,1.581c5.594,0.002,11.109-2.261,15.214-6.034c0.035-0.033,0.07-0.068,0.105-0.101 c2.987,2.425,6.977,3.67,10.789,3.205c1.583-0.193,3.099-0.682,4.496-1.398c0.652,1.088,1.489,2.078,2.425,2.902 c5.48,4.822,14.235,5.996,20.729,2.609c0.19-0.099,0.38-0.204,0.568-0.313c0.1,0.045,0.199,0.092,0.299,0.134 c8.097,3.376,17.472-2.178,20.294-10.01C302.253,147.319,299.838,146.666,299.296,148.171z M204.781,148.376 c-0.448,0.322-0.899,0.639-1.358,0.946C203.823,148.926,204.283,148.601,204.781,148.376z M219.15,152.868 c-1.468-1.544-1.867-4.834,0.238-5.94C220.961,148.438,220.213,151.018,219.15,152.868z M242.046,148.142 c-1.285-1.542-2.203-3.443-2.055-5.388c0.094-1.236,0.692-2.34,1.845-2.88c1.059-0.496,2.323-0.331,2.856,0.811 c1.105,2.368-1.038,5.485-2.449,7.227C242.179,147.991,242.111,148.065,242.046,148.142z M258.567,149.732 c-0.017-0.114-0.038-0.226-0.048-0.342c-0.206-2.28,1.464-5.128,3.813-5.52C261.665,146.145,260.336,148.197,258.567,149.732z M280.959,155.824c-0.669-0.428-1.279-0.938-1.77-1.555c-1.506-1.889-1.421-4.271,0.47-5.84c1.61-1.337,4.298-1.527,4.744,1.036 C284.843,151.997,282.925,154.367,280.959,155.824z M299.023,187.556c-1.504,3.358-5.161,5.623-8.881,5.063 c-1.17-0.176-2.26-0.631-3.217-1.284c0.306-0.858,0.469-1.763,0.383-2.71c-0.247-2.735-2.517-5.266-5.381-5.116 c-0.649,0.034-1.284,0.545-1.25,1.25c0.131,2.684,1.302,5.272,3.145,7.197c-0.46,0.644-1.018,1.222-1.578,1.7 c-2.549,2.172-5.988,3.166-9.3,3.084c-2.437-0.06-5.185-0.74-7.3-2.164c0.689-0.9,1.197-1.94,1.425-3.142 c0.431-2.273-0.431-4.841-2.363-6.187c-0.934-0.65-1.836-0.934-2.852-0.292c-0.916,0.579-1.583,1.497-1.872,2.54 c-0.734,2.646,0.278,5.113,1.998,7.052c-1.196,0.812-2.62,1.328-4.006,1.55c-4.946,0.79-9.833-1.948-11.679-6.589 c0.506-0.561,0.991-1.142,1.429-1.762c1.264-1.789,2.949-4.627,1.744-6.841c-1.285-2.361-4.082-1.532-5.361,0.309 c-1.443,2.077-1.297,4.98-0.738,7.336c0.025,0.106,0.06,0.209,0.087,0.314c-2.629,2.447-6.093,4.064-9.654,4.312 c-2.48,0.173-5.276-0.259-7.223-1.909c0.695-2.758,0.611-5.677-0.513-8.355c-0.349-0.83-1.362-1.288-2.089-0.552 c-2.71,2.746-2.268,6.672-0.183,9.46c-0.676,1.926-1.808,3.713-3.287,5.17c-1.721,1.696-3.939,2.94-6.357,3.255 c-1.078,0.141-2.28,0.092-3.43-0.167c0.167-0.201,0.34-0.396,0.498-0.603c2.046-2.683,4.087-6.819,0.554-9.227 c-2.82-1.922-6.596-0.797-7.848,2.372c-1.19,3.011,0.044,6.252,2.465,8.156c-3.071,2.291-7.006,3.239-10.671,1.286 c-2.537-1.352-4.488-3.99-3.938-6.978c0.517-2.806,2.858-5.311,5.835-5.172c1.608,0.075,1.605-2.425,0-2.5 c-3.522-0.164-6.501,2.307-7.774,5.469c-1.357,3.369-0.425,7.086,2.185,9.577c2.594,2.476,6.315,3.575,9.84,3.016 c2.592-0.412,4.938-1.678,6.9-3.391c2.99,1.133,6.397,0.892,9.306-0.411c3.406-1.526,6.153-4.486,7.669-7.944 c0.399,0.285,0.815,0.545,1.259,0.754c4.863,2.294,10.858,1.203,15.286-1.583c0.739-0.465,1.428-0.994,2.094-1.551 c1.913,3.88,5.648,6.65,10.052,7.242c3.07,0.413,6.827-0.334,9.471-2.292c0.873,0.649,1.809,1.187,2.735,1.582 c5.314,2.268,11.843,1.712,16.517-1.77c0.949-0.707,1.852-1.58,2.583-2.567c1.121,0.732,2.379,1.257,3.739,1.489 c4.741,0.807,9.738-1.81,11.71-6.212C301.834,187.362,299.681,186.089,299.023,187.556z M208.279,199.076 c-0.69-0.448-1.291-1.013-1.711-1.744c-1.078-1.875-0.738-5.432,1.962-5.545c0.884-0.037,1.948,0.35,2.454,1.115 c0.823,1.245-0.307,2.884-0.976,3.948C209.513,197.639,208.927,198.385,208.279,199.076z M245.514,186.549 c-0.197-1.479-0.088-3.016,0.76-4.072c0.932-1.16,1.204-0.065,0.961,0.876c-0.288,1.116-1.008,2.2-1.669,3.131 C245.549,186.507,245.53,186.527,245.514,186.549z M264.118,192.29c-0.111,0.199-0.244,0.382-0.376,0.566 c-1.194-1.559-2.266-4.314-0.668-5.653C264.809,188.168,265.026,190.66,264.118,192.29z M284.823,189.291 c-0.626-0.856-1.094-1.825-1.37-2.847c0.8,0.539,1.322,1.506,1.382,2.513C284.842,189.07,284.827,189.18,284.823,189.291z M293.39,222.712c-0.696,3.984-3.574,7.437-7.468,8.666c-3.919,1.237-8.277-0.16-11.039-3.132c-0.168-0.181-0.309-0.384-0.463-0.576 c1.436-1.536,2.63-3.652,1.85-5.694c-1.052-2.753-4.735-2.044-5.751,0.349c-0.677,1.595-0.26,3.362,0.59,4.95 c-2.465,1.806-5.647,2.528-8.676,2.28c-1.894-0.155-3.762-0.755-5.377-1.756c-0.835-0.517-1.599-1.149-2.247-1.889 c-0.061-0.069-0.133-0.166-0.209-0.276c0.635-1.117,1.111-2.347,1.381-3.67c0.178-0.873-0.369-1.475-1.205-1.582 c-1.406-0.18-2.649,0.729-3.215,1.979c-0.479,1.057-0.346,2.186,0.086,3.209c-1.547,2.062-3.826,3.544-6.477,3.906 c-2.199,0.301-4.507-0.143-6.44-1.227c-0.231-0.13-0.476-0.282-0.723-0.45c1.557-1.617,2.784-3.741,2.281-5.948 c-0.562-2.466-3.374-3.052-5.402-1.988c-2.666,1.399-2.618,4.734-1.202,7.039c0.17,0.277,0.362,0.539,0.561,0.795 c-0.151,0.101-0.303,0.203-0.452,0.296c-3.752,2.357-8.893,4.382-13.276,2.626c-1.419-0.569-2.712-1.816-3.514-3.29 c2.167-2.292,2.883-5.913,0.105-8.057c-0.421-0.325-1.171-0.17-1.515,0.195c-1.9,2.023-2.227,4.687-1.53,7.149 c-0.03,0.023-0.06,0.05-0.089,0.073c-1.941,1.52-4.135,3.156-6.55,3.799c-1.873,0.498-3.767,0.231-4.816-1.519 c-0.688-1.146-1.013-2.835,0.374-3.558c1.427-0.744,0.165-2.902-1.262-2.159c-2.448,1.276-2.63,4.231-1.528,6.499 c1.342,2.763,4.141,3.837,7.084,3.324c1.87-0.326,3.61-1.232,5.188-2.255c0.878-0.569,1.773-1.175,2.625-1.826 c0.792,1.324,1.884,2.477,3.17,3.277c5.418,3.37,13.038,0.649,17.788-2.793c1.451,1.117,3.191,1.894,4.932,2.272 c4.598,0.997,9.187-0.702,12.115-4.015c1.511,1.672,3.533,2.881,5.654,3.594c4.547,1.528,9.851,0.794,13.757-1.998 c0.407,0.49,0.831,0.937,1.242,1.318c2.181,2.022,4.982,3.305,7.939,3.619c6.659,0.708,12.973-4.368,14.113-10.89 C296.075,221.803,293.667,221.127,293.39,222.712z M216.261,224.057c-0.021,0.054-0.058,0.101-0.081,0.154 c0.009-0.516,0.098-1.022,0.278-1.507C216.496,223.173,216.412,223.664,216.261,224.057z M237.835,223.172 c-0.185,1.157-0.841,2.141-1.671,2.978c-0.727-0.891-1.184-1.939-0.931-3.032C235.562,221.691,238.162,221.123,237.835,223.172z M273.74,224.337c-0.167,0.398-0.404,0.761-0.676,1.1c-0.354-0.927-0.779-2.641,0.423-2.766 C274.354,222.581,273.922,223.904,273.74,224.337z" fill="#004f70"/></g></svg>