<?xml version="1.0" encoding="UTF-8" standalone="no"?>
<!-- Created with Inkscape (http://www.inkscape.org/) -->

<svg
   width="512"
   height="512"
   viewBox="0 0 512 512"
   version="1.1"
   id="svg5"
   inkscape:version="1.1.1 (3bf5ae0d25, 2021-09-20)"
   sodipodi:docname="countries.svg"
   inkscape:export-filename="/home/Savantac/Dropbox/Proyecto de grado/PROYECTO 2/img/countries.png"
   inkscape:export-xdpi="96"
   inkscape:export-ydpi="96"
   xmlns:inkscape="http://www.inkscape.org/namespaces/inkscape"
   xmlns:sodipodi="http://sodipodi.sourceforge.net/DTD/sodipodi-0.dtd"
   xmlns="http://www.w3.org/2000/svg"
   xmlns:svg="http://www.w3.org/2000/svg">
  <sodipodi:namedview
     id="namedview7"
     pagecolor="#505050"
     bordercolor="#eeeeee"
     borderopacity="1"
     inkscape:pageshadow="0"
     inkscape:pageopacity="0"
     inkscape:pagecheckerboard="0"
     inkscape:document-units="px"
     showgrid="false"
     inkscape:zoom="0.49649392"
     inkscape:cx="179.25698"
     inkscape:cy="538.778"
     inkscape:window-width="1280"
     inkscape:window-height="963"
     inkscape:window-x="0"
     inkscape:window-y="36"
     inkscape:window-maximized="1"
     inkscape:current-layer="layer1" />
  <defs
     id="defs2">
    <inkscape:path-effect
       effect="powerclip"
       id="path-effect14735"
       is_visible="true"
       lpeversion="1"
       inverse="true"
       flatten="false"
       hide_clip="false"
       message="Utilice la regla de relleno parimpar en el diálogo &lt;b&gt;Relleno y borde&lt;/b&gt; si el resultado no está aplanada después de convertir el recorte en trayectos." />
    <inkscape:path-effect
       effect="powerclip"
       id="path-effect11434"
       is_visible="true"
       lpeversion="1"
       inverse="true"
       flatten="false"
       hide_clip="false"
       message="Utilice la regla de relleno parimpar en el diálogo &lt;b&gt;Relleno y borde&lt;/b&gt; si el resultado no está aplanada después de convertir el recorte en trayectos." />
    <clipPath
       clipPathUnits="userSpaceOnUse"
       id="clipPath11416">
      <g
         id="g11432"
         style="display:block">
        <ellipse
           style="fill:#0300ff;fill-opacity:1;fill-rule:evenodd;stroke:none;stroke-width:1.14386;stroke-linecap:round;stroke-linejoin:round;stroke-opacity:1;paint-order:stroke fill markers"
           id="ellipse11418"
           ry="17.00139"
           rx="16.200277"
           cy="280.92737"
           cx="-362.78732" />
        <ellipse
           style="fill:#0300ff;fill-opacity:1;fill-rule:evenodd;stroke:none;stroke-width:1.14386;stroke-linecap:round;stroke-linejoin:round;stroke-opacity:1;paint-order:stroke fill markers"
           id="ellipse11420"
           ry="17.00139"
           rx="16.200277"
           cy="233.77136"
           cx="-383.85754" />
        <ellipse
           style="fill:#0300ff;fill-opacity:1;fill-rule:evenodd;stroke:none;stroke-width:1.14386;stroke-linecap:round;stroke-linejoin:round;stroke-opacity:1;paint-order:stroke fill markers"
           id="ellipse11422"
           ry="17.00139"
           rx="16.200277"
           cy="186.55109"
           cx="-362.84164" />
        <ellipse
           style="fill:#0300ff;fill-opacity:1;fill-rule:evenodd;stroke:none;stroke-width:1.14386;stroke-linecap:round;stroke-linejoin:round;stroke-opacity:1;paint-order:stroke fill markers"
           id="ellipse11424"
           ry="17.00139"
           rx="16.200277"
           cy="186.27277"
           cx="-310.76904" />
        <ellipse
           style="fill:#0300ff;fill-opacity:1;fill-rule:evenodd;stroke:none;stroke-width:1.15947;stroke-linecap:round;stroke-linejoin:round;stroke-opacity:1;paint-order:stroke fill markers"
           id="ellipse11426"
           ry="17.00139"
           rx="16.64534"
           cy="233.87076"
           cx="-289.65552" />
        <ellipse
           style="fill:#0300ff;fill-opacity:1;fill-rule:evenodd;stroke:none;stroke-width:1.14386;stroke-linecap:round;stroke-linejoin:round;stroke-opacity:1;paint-order:stroke fill markers"
           id="ellipse11428"
           ry="17.00139"
           rx="16.200277"
           cy="280.88181"
           cx="-310.58618" />
        <ellipse
           style="fill:#0300ff;fill-opacity:1;fill-rule:evenodd;stroke:none;stroke-width:1.52455;stroke-linecap:round;stroke-linejoin:round;stroke-opacity:1;paint-order:stroke fill markers"
           id="ellipse11430"
           cx="-336.7692"
           cy="233.73485"
           rx="21.986092"
           ry="22.253128" />
      </g>
    </clipPath>
    <clipPath
       clipPathUnits="userSpaceOnUse"
       id="clipPath14731">
      <path
         style="display:block;fill:#f700f5;fill-opacity:1;stroke:#000000;stroke-width:1px;stroke-linecap:butt;stroke-linejoin:miter;stroke-opacity:1"
         d="m -205.8523,217.82018 0.13666,58.71108 c 1.63984,5.50582 5.5656,8.47173 11.47756,9.23075 l 44.08023,0.38932 c 20.66384,-10.07063 3.88955,-27.153 0,-26.23551 l -29.27187,-0.0311 -0.0959,-41.78046 c -5.3419,-15.06425 -22.11222,-14.47349 -26.32668,-0.28408 z"
         id="path14733"
         sodipodi:nodetypes="cccccccc" />
    </clipPath>
  </defs>
  <g
     inkscape:label="Capa 1"
     inkscape:groupmode="layer"
     id="layer1"
     style="mix-blend-mode:normal">
    <path
       style="mix-blend-mode:normal;fill:#000000;stroke-width:0.801396"
       d="m 229.16323,511.22869 c -19.48396,-2.2496 -43.27293,-7.71492 -60.49935,-13.89924 -5.72942,-2.05686 -17.26836,-7.11061 -25.64212,-11.23055 C 91.748565,460.87217 51.234935,420.35044 26.013275,369.06693 17.370745,351.49398 12.302205,337.96158 8.001755,320.97832 1.9568,297.10574 0,281.22987 0,256.0587 c 0,-25.17118 1.9568,-41.04705 8.001755,-64.91963 4.30045,-16.98326 9.36899,-30.51566 18.01152,-48.08861 C 51.234935,91.766952 91.748565,51.245222 143.02176,26.018492 160.59119,17.374232 174.12087,12.304672 191.10071,8.003362 214.96851,1.957193 230.84121,0 256.00732,0 c 25.16612,0 41.03879,1.957193 64.90659,8.003362 16.97987,4.30131 30.50954,9.37087 48.07897,18.01513 51.2732,25.22673 91.78682,65.74846 117.00848,117.031968 8.64253,17.57295 13.71107,31.10535 18.01152,48.08861 6.01808,23.76642 7.98712,39.771 7.98712,64.91963 0,25.14862 -1.96904,41.1532 -7.98712,64.91962 -10.88956,43.00483 -35.96978,86.34099 -68.23792,117.90841 -25.65765,25.10046 -59.9494,46.78422 -92.42419,58.44272 -17.78396,6.38448 -41.138,11.67588 -61.70133,13.9799 -8.57101,0.96033 -43.94086,0.90597 -52.48621,-0.0806 z m 32.5704,-66.38803 c 13.57181,-6.72644 21.58294,-17.47894 26.34121,-35.35504 4.81856,-18.10253 8.26192,-24.91868 17.72147,-35.07966 4.53483,-4.87112 7.91286,-7.46598 16.34068,-12.55232 17.08098,-10.30866 23.46204,-17.29377 27.76496,-30.39327 1.92823,-5.87015 2.13222,-7.67194 2.18493,-19.2983 0.0547,-12.07117 -0.0737,-13.19985 -2.18964,-19.23543 -2.83286,-8.08074 -5.9085,-12.97299 -12.52844,-19.92835 -7.30278,-7.67277 -16.74692,-13.86713 -25.26935,-16.57401 -2.23741,-0.71065 -13.00474,-1.18164 -35.65856,-1.5598 -35.37978,-0.59058 -36.61023,-0.73883 -47.27765,-5.69624 -9.43639,-4.38531 -40.41528,-22.62008 -43.01069,-25.31691 -3.63405,-3.77605 -6.13917,-10.88357 -5.4544,-15.47522 1.2879,-8.63611 5.24018,-13.41792 14.80981,-17.91829 5.55974,-2.6146 7.91542,-3.26618 12.82106,-3.54634 5.59447,-0.31949 6.97622,-0.029 19.99021,4.20269 7.68919,2.50023 15.70393,4.75007 17.81052,4.99961 13.62077,1.61351 24.74448,-12.08672 20.38545,-25.10719 -0.92539,-2.76417 -3.89671,-6.96859 -10.12791,-14.33102 -12.83763,-15.16821 -15.68755,-22.06125 -13.76278,-33.28789 1.34055,-7.81901 3.56505,-11.73393 12.88561,-22.67751 13.78809,-16.189028 15.20574,-18.381778 16.82546,-26.025058 1.76865,-8.34607 0.64932,-15.62314 -3.60585,-23.44288 l -2.28932,-4.20712 -14.03101,0.50552 c -15.88653,0.57236 -24.73056,1.49414 -36.86853,3.8426 -32.48859,6.28594 -63.56726,20.67981 -89.65667,41.5239 -10.57869,8.451828 -27.093985,24.896348 -33.858145,33.713058 -14.27293,18.60396 -25.12951,38.07333 -32.21853,57.77836 l -2.76513,7.68606 5.63319,10.51894 c 6.58377,12.29401 11.91414,19.08543 19.8606,25.30434 9.26356,7.2497 14.65542,9.36749 49.267165,19.35097 32.05194,9.24512 39.49767,11.92487 44.90097,16.16013 5.27542,4.13499 10.57068,11.98417 13.41827,19.88992 0.51937,1.44196 1.04887,13.47278 1.32275,30.05539 l 0.45671,27.65093 2.24549,4.80888 c 2.78976,5.97441 6.54244,9.89003 13.22432,13.79854 6.08519,3.55947 10.50216,8.30277 13.55322,14.55451 4.57162,9.14817 2.47085,20.51742 2.64078,30.55549 0.4254,25.12867 0.50754,26.19734 2.32669,30.27934 2.23177,5.00789 8.21029,10.72074 13.10651,12.52408 2.28628,0.84206 5.40162,1.16501 9.59261,0.99444 5.42516,-0.22082 7.08004,-0.68546 13.14196,-3.68985 z M 463.46046,279.90264 c 1.16936,-8.53878 1.49134,-32.32418 0.55765,-41.1964 -2.96632,-28.18696 -8.84116,-49.56315 -20.18462,-73.44392 l -5.43888,-11.45017 -3.04889,1.29547 c -1.67689,0.71253 -7.51087,3.08543 -12.96438,5.27315 -13.08052,5.24734 -15.05729,6.30841 -19.95088,10.70905 -6.89974,6.2047 -11.46176,18.10854 -10.27415,26.80867 0.59206,4.33725 17.49668,55.63687 20.34279,61.73325 2.42717,5.199 9.24937,12.0448 14.48921,14.53933 3.01972,1.4376 31.82708,9.21948 35.05334,9.46912 0.49358,0.0383 1.13204,-1.64371 1.41881,-3.73755 z"
       id="path16654"
       sodipodi:nodetypes="ssssssssssssssssssssssssssssssssssssssssssssscssssscsssssscssccssssssscssssssss" />
  </g>
</svg>
