<?xml version="1.0" encoding="UTF-8" standalone="no"?>
<!-- Created with Inkscape (http://www.inkscape.org/) -->

<svg
   width="512"
   height="512"
   viewBox="0 0 135.46666 135.46667"
   version="1.1"
   id="svg5"
   inkscape:version="1.1.1 (3bf5ae0d25, 2021-09-20)"
   sodipodi:docname="family.svg"
   inkscape:export-filename="/home/Savantac/Dropbox/Proyecto de grado/PROYECTO 2/img/family.png"
   inkscape:export-xdpi="96"
   inkscape:export-ydpi="96"
   xmlns:inkscape="http://www.inkscape.org/namespaces/inkscape"
   xmlns:sodipodi="http://sodipodi.sourceforge.net/DTD/sodipodi-0.dtd"
   xmlns="http://www.w3.org/2000/svg"
   xmlns:svg="http://www.w3.org/2000/svg">
  <sodipodi:namedview
     id="namedview7"
     pagecolor="#ffffff"
     bordercolor="#666666"
     borderopacity="1.0"
     inkscape:pageshadow="2"
     inkscape:pageopacity="0.0"
     inkscape:pagecheckerboard="0"
     inkscape:document-units="mm"
     showgrid="false"
     units="px"
     width="512px"
     inkscape:zoom="0.45291836"
     inkscape:cx="220.79034"
     inkscape:cy="480.219"
     inkscape:window-width="1280"
     inkscape:window-height="963"
     inkscape:window-x="0"
     inkscape:window-y="36"
     inkscape:window-maximized="1"
     inkscape:current-layer="layer1" />
  <defs
     id="defs2" />
  <g
     inkscape:label="Capa 1"
     inkscape:groupmode="layer"
     id="layer1">
    <g
       id="g908"
       transform="matrix(1.0264526,0,0,1.0264526,-16.75303,-195.94282)"
       style="fill:#000000">
      <path
         style="fill:#000000;fill-opacity:1;stroke-width:0.264583"
         d="m 46.962475,322.89694 c 0.190995,-0.0764 0.419198,-0.067 0.507119,0.0209 0.08792,0.0879 -0.06835,0.15045 -0.347265,0.13896 -0.308227,-0.0127 -0.37092,-0.0754 -0.159854,-0.15985 z m 35.440717,-0.006 c 0.329117,-0.0633 0.805367,-0.0609 1.058333,0.005 0.252965,0.0662 -0.01632,0.11801 -0.598398,0.11507 -0.582083,-0.003 -0.789053,-0.0571 -0.459935,-0.12041 z M 58.430943,312.75893 c 0,-0.3638 0.06006,-0.51263 0.133454,-0.33073 0.0734,0.1819 0.0734,0.47956 0,0.66146 -0.0734,0.1819 -0.133454,0.0331 -0.133454,-0.33073 z m 74.886887,-3.57188 c 0.005,-0.43656 0.0647,-0.58312 0.13178,-0.32569 0.0671,0.25743 0.0627,0.61462 -0.01,0.79375 -0.0725,0.17913 -0.12736,-0.0315 -0.12197,-0.46806 z m -74.852988,-1.85208 c 0.0021,-0.7276 0.05337,-0.99386 0.114186,-0.59167 0.06082,0.40218 0.05919,0.99749 -0.0036,1.32291 -0.0628,0.32543 -0.112559,-0.004 -0.110575,-0.73124 z m 75.107768,-12.83229 c 0,-0.3638 0.0601,-0.51263 0.13346,-0.33073 0.0734,0.1819 0.0734,0.47956 0,0.66146 -0.0734,0.1819 -0.13346,0.0331 -0.13346,-0.33073 z M 27.499641,292.25372 c 0.0029,-0.58208 0.05712,-0.78905 0.120406,-0.45993 0.06329,0.32911 0.06088,0.80536 -0.0053,1.05833 -0.06622,0.25296 -0.118004,-0.0163 -0.115067,-0.5984 z m 69.096682,-29.03802 -0.504029,-0.59531 0.595313,0.50403 c 0.327422,0.27721 0.595312,0.5451 0.595312,0.59531 0,0.21173 -0.212934,0.0554 -0.686596,-0.50403 z M 37.702059,232.14485 c 0.190996,-0.0764 0.419199,-0.067 0.507118,0.0209 0.08792,0.0879 -0.06835,0.15045 -0.347266,0.13896 -0.308224,-0.0127 -0.370919,-0.0754 -0.159852,-0.15985 z m 3.175,0 c 0.190996,-0.0764 0.419199,-0.067 0.507118,0.0209 0.08792,0.0879 -0.06835,0.15045 -0.347266,0.13896 -0.308224,-0.0127 -0.370919,-0.0754 -0.159852,-0.15985 z m 72.743881,0.006 c 0.1819,-0.0734 0.47956,-0.0734 0.66146,0 0.1819,0.0734 0.0331,0.13345 -0.33073,0.13345 -0.3638,0 -0.51263,-0.06 -0.33073,-0.13345 z m -68.791668,-8.46667 c 0.181901,-0.0734 0.479558,-0.0734 0.661459,0 0.181901,0.0734 0.03307,0.13345 -0.33073,0.13345 -0.363802,0 -0.51263,-0.06 -0.330729,-0.13345 z m 70.781078,-0.008 c 0.25743,-0.0671 0.61462,-0.0627 0.79375,0.01 0.17913,0.0725 -0.0315,0.12736 -0.46806,0.12197 -0.43656,-0.005 -0.58312,-0.0647 -0.32569,-0.13177 z m -52.946073,-16.486 c 0,-0.36381 0.06005,-0.51263 0.133453,-0.33073 0.0734,0.1819 0.0734,0.47956 0,0.66146 -0.0734,0.1819 -0.133453,0.0331 -0.133453,-0.33073 z m -4.308859,-10.78177 c -0.329107,-0.41965 -0.319749,-0.42901 0.0999,-0.0999 0.44073,0.34564 0.580888,0.56292 0.363125,0.56292 -0.05494,0 -0.2633,-0.20836 -0.463021,-0.46302 z"
         id="path928" />
      <path
         style="fill:#000000;fill-opacity:1;stroke-width:0.264583"
         d="m 47.756225,322.89694 c 0.190995,-0.0764 0.419198,-0.067 0.507119,0.0209 0.08792,0.0879 -0.06835,0.15045 -0.347265,0.13896 -0.308227,-0.0127 -0.37092,-0.0754 -0.159854,-0.15985 z m 36.495965,-0.006 c 0.327422,-0.0631 0.863203,-0.0631 1.190625,0 0.327422,0.0631 0.05953,0.11466 -0.595313,0.11466 -0.654843,0 -0.922734,-0.0516 -0.595312,-0.11466 z m 6.945313,-2.29443 c 0,-0.0549 0.208359,-0.2633 0.46302,-0.46302 0.419645,-0.3291 0.429004,-0.31975 0.0999,0.0999 -0.345643,0.44073 -0.562916,0.58089 -0.562916,0.36312 z m 42.110527,-12.6001 c 0,-0.3638 0.06,-0.51263 0.13345,-0.33073 0.0734,0.1819 0.0734,0.47956 0,0.66146 -0.0734,0.1819 -0.13345,0.0331 -0.13345,-0.33073 z m -74.836875,-3.30729 c 0.0016,-0.87313 0.05088,-1.19842 0.109765,-0.72287 0.05889,0.47555 0.05767,1.18993 -0.0027,1.5875 -0.06037,0.39758 -0.10855,0.009 -0.107065,-0.86463 z m -0.0099,-3.30729 c 0,-0.65485 0.0516,-0.92274 0.114662,-0.59532 0.06307,0.32743 0.06307,0.86321 0,1.19063 -0.06306,0.32742 -0.114662,0.0595 -0.114662,-0.59531 z M 27.504981,294.2381 c 0,-0.65485 0.0516,-0.92274 0.114662,-0.59532 0.06306,0.32743 0.06306,0.86321 0,1.19063 -0.06306,0.32742 -0.114662,0.0595 -0.114662,-0.59531 z m 106.077439,-0.92605 c 0.005,-0.43656 0.0647,-0.58312 0.13177,-0.32569 0.0671,0.25743 0.0627,0.61462 -0.01,0.79375 -0.0725,0.17913 -0.12736,-0.0315 -0.12197,-0.46806 z m 1.22172,-3.22344 c 0.191,-0.0764 0.4192,-0.067 0.50712,0.0209 0.0879,0.0879 -0.0684,0.15045 -0.34726,0.13897 -0.30823,-0.0127 -0.37092,-0.0754 -0.15986,-0.15985 z M 62.622502,265.05114 c 0,-0.0455 0.386953,-0.43249 0.859896,-0.8599 l 0.859896,-0.7771 -0.777106,0.85989 c -0.724371,0.80155 -0.942686,0.98151 -0.942686,0.77711 z m 40.013468,-29.02138 c 0,-0.50932 0.0545,-0.71768 0.121,-0.46302 0.0666,0.25466 0.0666,0.67138 0,0.92604 -0.0665,0.25466 -0.121,0.0463 -0.121,-0.46302 z m 9.92664,-3.87939 c 0.1819,-0.0734 0.47955,-0.0734 0.66146,0 0.1819,0.0734 0.0331,0.13345 -0.33073,0.13345 -0.36381,0 -0.51263,-0.0601 -0.33073,-0.13345 z"
         id="path926" />
      <path
         style="fill:#000000;fill-opacity:1;stroke-width:0.264583"
         d="m 48.549975,322.89694 c 0.190995,-0.0764 0.419198,-0.067 0.507119,0.0209 0.08792,0.0879 -0.06835,0.15045 -0.347265,0.13896 -0.308227,-0.0127 -0.37092,-0.0754 -0.159854,-0.15985 z m 54.109295,-11.99009 c 0,-0.94589 0.048,-1.33284 0.10672,-0.8599 0.0587,0.47294 0.0587,1.24685 0,1.71979 -0.0587,0.47294 -0.10672,0.086 -0.10672,-0.85989 z m 30.64876,-3.96875 c 0,-0.36381 0.06,-0.51263 0.13345,-0.33073 0.0734,0.1819 0.0734,0.47955 0,0.66146 -0.0734,0.1819 -0.13345,0.0331 -0.13345,-0.33073 z m -74.897973,-4.12309 c 0.0127,-0.30823 0.07539,-0.37092 0.159851,-0.15986 0.07643,0.191 0.06703,0.4192 -0.02088,0.50712 -0.08792,0.0879 -0.150452,-0.0683 -0.138964,-0.34726 z m -30.905076,-6.46025 c 0,-0.65484 0.0516,-0.92273 0.114662,-0.59531 0.06306,0.32742 0.06306,0.8632 0,1.19063 -0.06306,0.32742 -0.114662,0.0595 -0.114662,-0.59532 z m 106.067629,-4.23333 c 0,-0.3638 0.0601,-0.51263 0.13346,-0.33073 0.0734,0.1819 0.0734,0.47956 0,0.66146 -0.0734,0.1819 -0.13346,0.0331 -0.13346,-0.33073 z M 58.440749,279.28914 c 0.0054,-0.43657 0.06469,-0.58313 0.131773,-0.3257 0.06708,0.25743 0.06267,0.61462 -0.0098,0.79375 -0.07248,0.17913 -0.127363,-0.0315 -0.12197,-0.46805 z m 37.651545,-28.44271 c 0.26339,-0.29104 0.538422,-0.52917 0.611183,-0.52917 0.07276,0 -0.08321,0.23813 -0.346599,0.52917 -0.26339,0.29104 -0.538422,0.52916 -0.611183,0.52916 -0.07276,0 0.08321,-0.23812 0.346599,-0.52916 z M 42.199975,232.14485 c 0.190996,-0.0764 0.419198,-0.067 0.507119,0.0209 0.08792,0.0879 -0.06835,0.15045 -0.347266,0.13896 -0.308225,-0.0127 -0.37092,-0.0754 -0.159853,-0.15985 z m 69.304295,0.006 c 0.1819,-0.0734 0.47956,-0.0734 0.66146,0 0.1819,0.0734 0.0331,0.13345 -0.33073,0.13345 -0.3638,0 -0.51263,-0.06 -0.33073,-0.13345 z M 57.330835,218.99653 c 0,-0.0549 0.208359,-0.2633 0.463021,-0.46302 0.419645,-0.32911 0.429003,-0.31975 0.0999,0.0999 -0.345644,0.44073 -0.562917,0.58088 -0.562917,0.36312 z"
         id="path924" />
      <path
         style="fill:#000000;fill-opacity:1;stroke-width:0.264583"
         d="m 49.459481,322.89529 c 0.254661,-0.0665 0.67138,-0.0665 0.926041,0 0.254662,0.0666 0.0463,0.12101 -0.46302,0.12101 -0.509323,0 -0.717683,-0.0544 -0.463021,-0.12101 z m -11.509376,-0.25742 c 0.181901,-0.0734 0.479558,-0.0734 0.661459,0 0.181901,0.0734 0.03307,0.13345 -0.330729,0.13345 -0.363803,0 -0.512631,-0.06 -0.33073,-0.13345 z m 55.690031,-8.29144 c 0,-0.50932 0.05445,-0.71768 0.121002,-0.46302 0.06655,0.25466 0.06655,0.67138 0,0.92604 -0.06655,0.25466 -0.121002,0.0463 -0.121002,-0.46302 z m 8.976224,-5.55625 c 0,-0.3638 0.0601,-0.51263 0.13345,-0.33073 0.0734,0.1819 0.0734,0.47956 0,0.66146 -0.0734,0.1819 -0.13345,0.0331 -0.13345,-0.33073 z m 30.70147,-3.04271 c 0.005,-0.43656 0.0647,-0.58312 0.13178,-0.32569 0.0671,0.25743 0.0627,0.61462 -0.01,0.79375 -0.0725,0.17913 -0.12736,-0.0315 -0.12197,-0.46806 z M 27.499641,298.33914 c 0.0029,-0.58209 0.05712,-0.78906 0.120406,-0.45994 0.06329,0.32912 0.06088,0.80537 -0.0053,1.05834 -0.06622,0.25296 -0.118004,-0.0163 -0.115067,-0.5984 z m 76.927029,0.29698 c 0,-0.0549 0.20836,-0.2633 0.46302,-0.46302 0.41965,-0.32911 0.429,-0.31975 0.0999,0.0999 -0.34565,0.44073 -0.56292,0.58089 -0.56292,0.36313 z m -36.73531,-0.69386 c 0,-0.3638 0.06005,-0.51263 0.133454,-0.33073 0.0734,0.1819 0.0734,0.47956 0,0.66146 -0.0734,0.1819 -0.133454,0.0331 -0.133454,-0.33073 z m 65.88125,-6.87916 c 0,-0.36381 0.0601,-0.51263 0.13346,-0.33073 0.0734,0.1819 0.0734,0.47955 0,0.66146 -0.0734,0.1819 -0.13346,0.0331 -0.13346,-0.33073 z M 93.599641,236.14001 c 0.0127,-0.30823 0.07539,-0.37092 0.159851,-0.15986 0.07643,0.191 0.06703,0.4192 -0.02087,0.50712 -0.08792,0.0879 -0.150453,-0.0683 -0.138965,-0.34726 z m 16.320219,-4.00154 c 0.32912,-0.0633 0.80537,-0.0609 1.05833,0.005 0.25297,0.0662 -0.0163,0.118 -0.5984,0.11507 -0.58208,-0.003 -0.78905,-0.0571 -0.45993,-0.12041 z m 23.40778,-24.94829 c 0,-0.50933 0.0545,-0.71769 0.121,-0.46302 0.0665,0.25466 0.0665,0.67138 0,0.92604 -0.0666,0.25466 -0.121,0.0463 -0.121,-0.46302 z m -4.84391,-11.31094 -0.64143,-0.7276 0.7276,0.64143 c 0.40018,0.35279 0.7276,0.68021 0.7276,0.7276 0,0.20751 -0.21426,0.0386 -0.81377,-0.64143 z"
         id="path922" />
      <path
         style="fill:#000000;fill-opacity:1;stroke-width:0.264583"
         d="m 50.931226,322.89694 c 0.190994,-0.0764 0.419197,-0.067 0.507118,0.0209 0.08792,0.0879 -0.06835,0.15045 -0.347265,0.13896 -0.308227,-0.0127 -0.37092,-0.0754 -0.159853,-0.15985 z m -11.906251,-0.26458 c 0.190996,-0.0764 0.419199,-0.067 0.507118,0.0209 0.08792,0.0879 -0.06835,0.15046 -0.347265,0.13897 -0.308225,-0.0127 -0.37092,-0.0754 -0.159853,-0.15985 z m 63.570505,-9.23402 c 0.0127,-0.30823 0.0754,-0.37092 0.15985,-0.15985 0.0764,0.19099 0.067,0.4192 -0.0209,0.50712 -0.0879,0.0879 -0.15045,-0.0684 -0.13896,-0.34727 z m -8.920094,-2.3592 c 7.94e-4,-1.45521 0.04512,-2.01677 0.09873,-1.2479 0.05362,0.76886 0.05305,1.95948 -0.0013,2.64583 -0.05423,0.68634 -0.0981,0.0573 -0.09741,-1.39793 z m 8.940974,-3.30729 c 0,-0.36381 0.0601,-0.51263 0.13345,-0.33073 0.0734,0.1819 0.0734,0.47955 0,0.66146 -0.0734,0.1819 -0.13345,0.0331 -0.13345,-0.33073 z m 30.69167,-3.175 c 0,-0.36381 0.06,-0.51263 0.13345,-0.33073 0.0734,0.1819 0.0734,0.47955 0,0.66146 -0.0734,0.1819 -0.13345,0.0331 -0.13345,-0.33073 z M 27.504981,300.32351 c 0,-0.65484 0.0516,-0.92273 0.114662,-0.59531 0.06306,0.32742 0.06306,0.8632 0,1.19063 -0.06306,0.32742 -0.114662,0.0595 -0.114662,-0.59532 z m 70.042522,-7.24364 c 0,-0.0549 0.208359,-0.2633 0.463021,-0.46302 0.419645,-0.32911 0.429003,-0.31975 0.0999,0.0999 -0.345644,0.44073 -0.562917,0.58089 -0.562917,0.36313 z m 26.127607,-60.66492 c 0.1819,-0.0734 0.47955,-0.0734 0.66146,0 0.1819,0.0734 0.0331,0.13345 -0.33073,0.13345 -0.36381,0 -0.51263,-0.06 -0.33073,-0.13345 z m -15.20851,-0.27271 c 0.25743,-0.0671 0.61462,-0.0627 0.79375,0.01 0.17913,0.0725 -0.0315,0.12736 -0.46806,0.12197 -0.43656,-0.005 -0.58312,-0.0647 -0.32569,-0.13178 z M 98.402636,207.19018 c 0,-0.50933 0.05445,-0.71769 0.121002,-0.46302 0.06655,0.25466 0.06655,0.67138 0,0.92604 -0.06655,0.25466 -0.121002,0.0463 -0.121002,-0.46302 z m 4.436534,-10.94781 c 0,-0.0549 0.20836,-0.26331 0.46302,-0.46303 0.41965,-0.3291 0.429,-0.31974 0.0999,0.0999 -0.34565,0.44073 -0.56292,0.58089 -0.56292,0.36313 z"
         id="path920" />
      <path
         style="fill:#000000;fill-opacity:1;stroke-width:0.264583"
         d="m 39.818725,322.63236 c 0.190996,-0.0764 0.419199,-0.067 0.507118,0.0209 0.08792,0.0879 -0.06835,0.15046 -0.347265,0.13897 -0.308225,-0.0127 -0.37092,-0.0754 -0.159853,-0.15985 z m 62.776755,-8.44027 c 0.0127,-0.30823 0.0754,-0.37092 0.15985,-0.15985 0.0764,0.19099 0.067,0.4192 -0.0209,0.50712 -0.0879,0.0879 -0.15045,-0.0684 -0.13896,-0.34727 z m -8.918842,-8.31233 c 0,-1.52797 0.04373,-2.15304 0.09718,-1.38906 0.05345,0.76398 0.05345,2.01414 0,2.77813 -0.05345,0.76398 -0.09718,0.1389 -0.09718,-1.38907 z m 8.939722,0.79375 c 0,-0.3638 0.0601,-0.51263 0.13345,-0.33073 0.0734,0.1819 0.0734,0.47956 0,0.66146 -0.0734,0.1819 -0.13345,0.0331 -0.13345,-0.33073 z m 30.70147,-3.30729 c 0.005,-0.43656 0.0647,-0.58312 0.13178,-0.32569 0.0671,0.25743 0.0627,0.61462 -0.01,0.79375 -0.0725,0.17913 -0.12736,-0.0315 -0.12197,-0.46806 z M 27.504981,302.44018 c 0,-0.65484 0.0516,-0.92273 0.114662,-0.59531 0.06306,0.32742 0.06306,0.8632 0,1.19062 -0.06306,0.32742 -0.114662,0.0595 -0.114662,-0.59531 z M 89.610003,244.9257 c 0,-0.0549 0.208359,-0.2633 0.46302,-0.46302 0.419645,-0.32911 0.429004,-0.31975 0.0999,0.0999 -0.345643,0.44073 -0.562916,0.58089 -0.562916,0.36313 z m 33.006767,-12.51075 c 0.18191,-0.0734 0.47956,-0.0734 0.66146,0 0.1819,0.0734 0.0331,0.13345 -0.33073,0.13345 -0.3638,0 -0.51263,-0.06 -0.33073,-0.13345 z m 5.35782,-13.41842 c 0,-0.0549 0.20836,-0.2633 0.46302,-0.46302 0.41964,-0.32911 0.429,-0.31975 0.0999,0.0999 -0.34564,0.44073 -0.56291,0.58088 -0.56291,0.36312 z"
         id="path918" />
      <path
         style="fill:#000000;fill-opacity:1;stroke-width:0.264583"
         d="m 40.612475,322.63236 c 0.190996,-0.0764 0.419199,-0.067 0.507118,0.0209 0.08792,0.0879 -0.06835,0.15046 -0.347265,0.13897 -0.308225,-0.0127 -0.37092,-0.0754 -0.159853,-0.15985 z m 62.003885,-17.01718 c 0,-0.3638 0.0601,-0.51263 0.13345,-0.33073 0.0734,0.1819 0.0734,0.47956 0,0.66146 -0.0734,0.1819 -0.13345,0.0331 -0.13345,-0.33073 z m -75.116719,-1.19063 c 0.0029,-0.58208 0.05712,-0.78905 0.120406,-0.45993 0.06329,0.32912 0.06088,0.80537 -0.0053,1.05833 -0.06622,0.25297 -0.118004,-0.0163 -0.115067,-0.5984 z m 66.175745,-3.70416 c 7.94e-4,-1.45521 0.04512,-2.01677 0.09873,-1.2479 0.05362,0.76886 0.05305,1.95948 -0.0013,2.64583 -0.05431,0.68634 -0.09817,0.0573 -0.09748,-1.39793 z m 39.632644,1.45521 c 0,-0.36381 0.06,-0.51263 0.13345,-0.33073 0.0734,0.1819 0.0734,0.47955 0,0.66146 -0.0734,0.1819 -0.13345,0.0331 -0.13345,-0.33073 z M 23.464168,238.04653 c 0,-0.0549 0.208359,-0.2633 0.46302,-0.46302 0.419644,-0.32911 0.429003,-0.31975 0.0999,0.0999 -0.345643,0.44073 -0.562915,0.58088 -0.562915,0.36312 z m 98.094272,-5.63158 c 0.1819,-0.0734 0.47956,-0.0734 0.66146,0 0.1819,0.0734 0.0331,0.13345 -0.33073,0.13345 -0.3638,0 -0.51263,-0.06 -0.33073,-0.13345 z"
         id="path916" />
      <path
         style="fill:#000000;fill-opacity:1;stroke-width:0.264583"
         d="m 119.98748,322.89694 c 0.19099,-0.0764 0.4192,-0.067 0.50712,0.0209 0.0879,0.0879 -0.0684,0.15045 -0.34727,0.13896 -0.30823,-0.0127 -0.37092,-0.0754 -0.15985,-0.15985 z m -78.597791,-0.25907 c 0.181901,-0.0734 0.479557,-0.0734 0.661458,0 0.181901,0.0734 0.03307,0.13345 -0.330729,0.13345 -0.363802,0 -0.51263,-0.06 -0.330729,-0.13345 z m 25.751618,-11.62078 c 0.0127,-0.30823 0.07539,-0.37092 0.159851,-0.15985 0.07643,0.19099 0.06703,0.4192 -0.02088,0.50712 -0.08792,0.0879 -0.150453,-0.0684 -0.138965,-0.34727 z m 0.02089,-3.54983 c 0,-0.3638 0.06006,-0.51263 0.133453,-0.33073 0.0734,0.1819 0.0734,0.47956 0,0.66146 -0.0734,0.1819 -0.133453,0.0331 -0.133453,-0.33073 z m -39.657213,-1.05833 c 0,-0.65484 0.0516,-0.92273 0.114662,-0.59531 0.06306,0.32742 0.06306,0.8632 0,1.19062 -0.06306,0.32742 -0.114662,0.0595 -0.114662,-0.59531 z m 75.121186,-1.98438 c 0.005,-0.43656 0.0647,-0.58312 0.13177,-0.32569 0.0671,0.25743 0.0627,0.61462 -0.01,0.79375 -0.0725,0.17913 -0.12736,-0.0315 -0.12197,-0.46806 z m 30.68186,-3.30729 c 0,-0.3638 0.06,-0.51263 0.13345,-0.33073 0.0734,0.1819 0.0734,0.47956 0,0.66146 -0.0734,0.1819 -0.13345,0.0331 -0.13345,-0.33073 z m -39.657212,-3.96875 c 0,-0.65484 0.0516,-0.92273 0.114662,-0.59531 0.06307,0.32742 0.06307,0.8632 0,1.19063 -0.06306,0.32742 -0.114662,0.0595 -0.114662,-0.59532 z M 27.718389,281.11917 c 0.0127,-0.30822 0.07539,-0.37092 0.159853,-0.15985 0.07643,0.19099 0.06703,0.4192 -0.02089,0.50712 -0.08792,0.0879 -0.150453,-0.0683 -0.138965,-0.34727 z m 21.431251,-1.85208 c 0.0127,-0.30823 0.07539,-0.37092 0.159851,-0.15985 0.07643,0.19099 0.06703,0.4192 -0.02088,0.50712 -0.08792,0.0879 -0.150452,-0.0684 -0.138964,-0.34727 z m 71.35047,-46.85214 c 0.1819,-0.0734 0.47955,-0.0734 0.66146,0 0.1819,0.0734 0.0331,0.13345 -0.33073,0.13345 -0.36381,0 -0.51263,-0.06 -0.33073,-0.13345 z m -88.569276,-35.908 c 0,-0.0549 0.20836,-0.2633 0.463021,-0.46302 0.419644,-0.32911 0.429003,-0.31975 0.09989,0.0999 -0.345643,0.44073 -0.562916,0.58089 -0.562916,0.36313 z"
         id="path914" />
      <path
         style="fill:#000000;fill-opacity:1;stroke-width:0.264583"
         d="m 113.35636,322.90245 c 0.1819,-0.0734 0.47955,-0.0734 0.66146,0 0.1819,0.0734 0.0331,0.13345 -0.33073,0.13345 -0.36381,0 -0.51263,-0.0601 -0.33073,-0.13345 z m 5.83737,-0.005 c 0.19099,-0.0764 0.4192,-0.067 0.50712,0.0209 0.0879,0.0879 -0.0684,0.15046 -0.34727,0.13897 -0.30823,-0.0127 -0.37092,-0.0754 -0.15985,-0.15985 z m -76.608381,-0.2672 c 0.257432,-0.0671 0.614619,-0.0627 0.79375,0.01 0.179131,0.0725 -0.03149,0.12736 -0.468056,0.12197 -0.436563,-0.005 -0.583125,-0.0647 -0.325694,-0.13178 z m 24.555958,-12.4064 c 0.0127,-0.30823 0.07539,-0.37092 0.159851,-0.15986 0.07643,0.191 0.06703,0.41921 -0.02088,0.50712 -0.08792,0.0879 -0.150453,-0.0684 -0.138965,-0.34726 z M 27.499641,308.3933 c 0.0029,-0.58208 0.05712,-0.78905 0.120406,-0.45993 0.06329,0.32912 0.06088,0.80537 -0.0053,1.05833 -0.06622,0.25297 -0.118004,-0.0163 -0.115067,-0.5984 z m 39.641666,-0.022 c 0.0127,-0.30822 0.07539,-0.37091 0.159851,-0.15985 0.07643,0.191 0.06703,0.4192 -0.02088,0.50712 -0.08792,0.0879 -0.150453,-0.0684 -0.138965,-0.34727 z m 35.520103,-6.32796 c 10e-4,-1.01864 0.049,-1.40294 0.10627,-0.85399 0.0573,0.54895 0.0563,1.38239 -0.002,1.85208 -0.0584,0.4697 -0.10531,0.0206 -0.10413,-0.99809 z m 30.64662,-1.98437 c 0,-0.3638 0.06,-0.51263 0.13345,-0.33073 0.0734,0.1819 0.0734,0.47956 0,0.66146 -0.0734,0.1819 -0.13345,0.0331 -0.13345,-0.33073 z M 27.769564,282.59643 c 0,-0.65484 0.0516,-0.92274 0.114662,-0.59531 0.06306,0.32742 0.06306,0.8632 0,1.19062 -0.06306,0.32742 -0.114662,0.0595 -0.114662,-0.59531 z m 21.410768,-2.24896 c 0.0054,-0.43656 0.06469,-0.58313 0.131773,-0.32569 0.06708,0.25743 0.06267,0.61462 -0.0098,0.79375 -0.07248,0.17913 -0.127363,-0.0315 -0.121971,-0.46806 z m 8.150503,-22.1755 c 0,-0.0455 0.386953,-0.43249 0.859896,-0.85989 l 0.859896,-0.77711 -0.777105,0.8599 c -0.724371,0.80154 -0.942687,0.98151 -0.942687,0.7771 z m 22.559368,-1.1654 c 0.402182,-0.0608 0.997495,-0.0592 1.322916,0.004 0.325422,0.0628 -0.0036,0.11256 -0.731242,0.11057 -0.727604,-0.002 -0.993857,-0.0534 -0.591674,-0.11418 z m 39.025487,-24.60352 c 0.32912,-0.0633 0.80537,-0.0609 1.05834,0.005 0.25296,0.0662 -0.0163,0.11801 -0.5984,0.11507 -0.58209,-0.003 -0.78906,-0.0571 -0.45994,-0.12041 z m -73.276131,-0.2582 c 0.190994,-0.0764 0.419198,-0.067 0.507119,0.0209 0.08792,0.0879 -0.06835,0.15045 -0.347266,0.13896 -0.308226,-0.0127 -0.370919,-0.0754 -0.159853,-0.15985 z m -13.601572,-14.1729 -0.504028,-0.59531 0.595313,0.50402 c 0.559447,0.47367 0.715762,0.6866 0.504028,0.6866 -0.05021,0 -0.318097,-0.26789 -0.595313,-0.59531 z m -4.29871,-10.78177 c 0,-0.36381 0.06005,-0.51263 0.133452,-0.33073 0.0734,0.1819 0.0734,0.47956 0,0.66146 -0.0734,0.1819 -0.133452,0.0331 -0.133452,-0.33073 z"
         id="path912" />
      <path
         style="fill:#000000;fill-opacity:1;stroke-width:0.264583"
         d="m 111.96729,322.82052 c -3.97314,-0.36175 -7.00089,-1.36715 -8.94126,-2.96906 l -0.73917,-0.61024 0.27398,-2.38125 c 0.15069,-1.30969 0.27496,-5.57775 0.27616,-9.48458 l 0.002,-7.10333 1.31059,-1.17834 c 2.72958,-2.45413 4.94527,-6.0738 6.34833,-10.37101 1.00799,-3.08718 1.36186,-5.59994 1.35502,-9.62149 -0.0188,-11.04676 -5.35114,-20.645 -14.407223,-25.93312 -1.035519,-0.60467 -1.931491,-1.13541 -1.991048,-1.17941 -0.05956,-0.044 0.542901,-0.76551 1.338802,-1.60333 3.946499,-4.15431 6.045579,-9.13864 6.045579,-14.35527 v -1.80521 l 1.19219,-0.57713 c 2.27266,-1.10017 3.71297,-1.31705 8.59739,-1.29455 2.54662,0.0117 6.54437,0.0996 8.8839,0.1953 l 4.25369,0.17397 2.26688,1.12349 c 1.55242,0.76939 2.88853,1.70403 4.23927,2.96548 3.68808,3.44425 3.24457,2.35279 9.99706,24.60253 l 6.02743,19.86065 -0.39337,1.50639 c -0.81711,3.12904 -2.31439,5.13297 -4.58425,6.13546 -1.37613,0.60777 -4.77608,1.08829 -7.70023,1.08829 h -2.02664 l -0.15785,9.72344 c -0.18903,11.64409 -0.38198,13.78586 -1.447,16.06176 -1.41822,3.03067 -3.53558,4.81554 -7.37472,6.21665 -1.88567,0.68819 -2.52876,0.78171 -6.18444,0.89938 -2.24396,0.0722 -5.1515,0.0338 -6.46119,-0.0855 z m -71.70208,-0.26427 c -2.927518,-0.13687 -3.656227,-0.26171 -4.894792,-0.83858 -3.372648,-1.57083 -5.732331,-4.32412 -7.020182,-8.19118 l -0.716811,-2.15239 0.03564,-12.86748 c 0.0196,-7.07712 0.10918,-14.00817 0.199065,-15.40234 l 0.163427,-2.53486 -1.524643,-0.61881 c -3.790217,-1.53834 -7.389992,-4.69948 -8.828502,-7.75275 -1.623253,-3.44539 -1.655299,-4.03651 -0.805199,-14.85206 l 0.759587,-9.66397 1.227931,-2.4526 c 3.181711,-6.35495 6.61487,-9.72405 11.482604,-11.26832 4.232034,-1.3426 6.787481,-1.62503 15.345834,-1.69606 6.89754,-0.0572 8.415703,0.002 10.451042,0.40928 l 2.38125,0.47624 0.01431,3.35792 c 0.01233,2.88741 0.110665,3.64629 0.70186,5.41587 0.895832,2.68143 2.356835,5.10653 4.733073,7.85639 1.05731,1.22355 1.799313,2.26566 1.6489,2.3158 -0.809467,0.26982 -4.283665,2.543 -5.797077,3.79304 -4.049503,3.3448 -7.577071,8.94108 -9.221444,14.62926 -0.990325,3.42572 -1.273812,5.46279 -1.275776,9.16736 -0.0039,7.41794 2.653793,14.18074 7.428014,18.90119 l 1.588876,1.57099 0.145669,8.88006 c 0.08011,4.88403 0.17998,9.28318 0.221914,9.7759 0.06969,0.81884 -0.04883,0.98235 -1.378961,1.90226 -2.541874,1.75796 -4.095975,2.10404 -9.199828,2.04867 -2.434418,-0.0264 -5.974027,-0.12038 -7.865798,-0.20883 z m 33.3375,0.0233 c -3.720835,-0.64677 -5.760699,-4.01883 -6.180852,-10.21749 -0.184107,-2.71624 -0.120544,-4.94147 0.370631,-12.97474 l 0.194747,-3.18516 -2.2108,-1.57734 c -2.359766,-1.68362 -3.46355,-2.95998 -5.201751,-6.01505 -0.944692,-1.66039 -1.149855,-2.3213 -1.538703,-4.95677 -0.854242,-5.78977 -0.164547,-11.05536 2.034111,-15.52972 1.30437,-2.65446 2.526062,-4.07484 5.307574,-6.17077 2.45876,-1.85274 4.846534,-3.11766 7.489627,-3.96764 2.809139,-0.90338 9.252135,-1.06237 12.257156,-0.30246 4.538605,1.14772 9.102747,3.89368 11.725731,7.05465 1.574866,1.89788 3.757839,6.25921 4.237819,8.46667 0.51652,2.37552 0.43251,10.1162 -0.13353,12.30313 -0.9711,3.75196 -3.357384,7.10437 -6.595815,9.26625 l -1.647611,1.0999 -0.142618,10.36119 c -0.123534,8.97478 -0.204179,10.5225 -0.602694,11.56664 -0.700678,1.83584 -1.857206,3.04694 -3.832141,4.01295 l -1.772547,0.86702 -6.35,0.0414 c -3.4925,0.0227 -6.82625,-0.0414 -7.408334,-0.14262 z m 3.601596,-74.79713 c -3.021978,-0.81271 -6.051079,-2.99597 -7.632629,-5.50131 -1.7283,-2.7378 -2.173004,-6.73879 -1.101624,-9.91131 1.558417,-4.61473 6.114825,-7.89567 11.363243,-8.18236 4.021633,-0.21967 7.138236,0.86271 9.93216,3.44939 6.974115,6.4568 3.834315,17.70382 -5.630556,20.16911 -1.888641,0.49193 -5.053907,0.48119 -6.930594,-0.0235 z M 41.720418,223.21654 c -4.942591,-1.04746 -9.180523,-3.97461 -11.65479,-8.05 -1.454787,-2.39619 -1.904133,-4.0234 -2.040349,-7.3887 -0.108192,-2.67295 -0.04896,-3.21459 0.567866,-5.19298 2.818385,-9.03954 13.492745,-14.00944 22.818805,-10.62427 7.019091,2.5478 11.653774,9.37364 11.097908,16.34472 -0.325374,4.08046 -2.314305,8.05274 -5.41033,10.80546 -1.65573,1.47214 -4.953495,3.23432 -7.177026,3.8351 -2.121401,0.57317 -6.147682,0.70604 -8.202084,0.27067 z m 72.098962,0.21222 c -0.29104,-0.0573 -1.18401,-0.23462 -1.98438,-0.39401 -6.00446,-1.19577 -11.45536,-6.36836 -12.822383,-12.16769 -0.471093,-1.99853 -0.521597,-4.94477 -0.118361,-6.90501 0.912238,-4.43463 4.474834,-8.9375 8.716374,-11.01687 3.05906,-1.49967 5.12317,-1.99405 8.32541,-1.99405 7.75842,0 14.27176,4.57908 16.70073,11.74113 0.75144,2.21569 0.69513,6.95674 -0.11038,9.29358 -2.07527,6.0205 -7.25218,10.26111 -13.82952,11.32828 -1.66857,0.27072 -3.82721,0.32146 -4.87749,0.11464 z"
         id="path910" />
    </g>
  </g>
</svg>
