<?xml version="1.0" encoding="UTF-8" standalone="no"?>
<!-- Created with Inkscape (http://www.inkscape.org/) -->

<svg
   width="512"
   height="512"
   viewBox="0 0 512 512"
   version="1.1"
   id="svg5"
   inkscape:version="1.1.1 (3bf5ae0d25, 2021-09-20)"
   sodipodi:docname="future.svg"
   inkscape:export-filename="/home/Savantac/Dropbox/Proyecto de grado/PROYECTO 2/img/future.png"
   inkscape:export-xdpi="96"
   inkscape:export-ydpi="96"
   xmlns:inkscape="http://www.inkscape.org/namespaces/inkscape"
   xmlns:sodipodi="http://sodipodi.sourceforge.net/DTD/sodipodi-0.dtd"
   xmlns="http://www.w3.org/2000/svg"
   xmlns:svg="http://www.w3.org/2000/svg">
  <sodipodi:namedview
     id="namedview7"
     pagecolor="#505050"
     bordercolor="#eeeeee"
     borderopacity="1"
     inkscape:pageshadow="0"
     inkscape:pageopacity="0"
     inkscape:pagecheckerboard="0"
     inkscape:document-units="px"
     showgrid="false"
     inkscape:zoom="0.06206174"
     inkscape:cx="1144.0221"
     inkscape:cy="1007.0617"
     inkscape:window-width="1280"
     inkscape:window-height="963"
     inkscape:window-x="0"
     inkscape:window-y="36"
     inkscape:window-maximized="1"
     inkscape:current-layer="layer1" />
  <defs
     id="defs2">
    <inkscape:path-effect
       effect="powerclip"
       id="path-effect11434"
       is_visible="true"
       lpeversion="1"
       inverse="true"
       flatten="false"
       hide_clip="false"
       message="Utilice la regla de relleno parimpar en el diálogo &lt;b&gt;Relleno y borde&lt;/b&gt; si el resultado no está aplanada después de convertir el recorte en trayectos." />
    <clipPath
       clipPathUnits="userSpaceOnUse"
       id="clipPath11416">
      <g
         id="g11432"
         style="display:none">
        <ellipse
           style="fill:#0300ff;fill-opacity:1;fill-rule:evenodd;stroke:none;stroke-width:1.14386;stroke-linecap:round;stroke-linejoin:round;stroke-opacity:1;paint-order:stroke fill markers"
           id="ellipse11418"
           ry="17.00139"
           rx="16.200277"
           cy="280.92737"
           cx="-362.78732"
           d="m -346.58705,280.92737 a 16.200277,17.00139 0 0 1 -16.20027,17.00139 16.200277,17.00139 0 0 1 -16.20028,-17.00139 16.200277,17.00139 0 0 1 16.20028,-17.00139 16.200277,17.00139 0 0 1 16.20027,17.00139 z" />
        <ellipse
           style="fill:#0300ff;fill-opacity:1;fill-rule:evenodd;stroke:none;stroke-width:1.14386;stroke-linecap:round;stroke-linejoin:round;stroke-opacity:1;paint-order:stroke fill markers"
           id="ellipse11420"
           ry="17.00139"
           rx="16.200277"
           cy="233.77136"
           cx="-383.85754"
           d="m -367.65727,233.77136 a 16.200277,17.00139 0 0 1 -16.20027,17.00139 16.200277,17.00139 0 0 1 -16.20028,-17.00139 16.200277,17.00139 0 0 1 16.20028,-17.00139 16.200277,17.00139 0 0 1 16.20027,17.00139 z" />
        <ellipse
           style="fill:#0300ff;fill-opacity:1;fill-rule:evenodd;stroke:none;stroke-width:1.14386;stroke-linecap:round;stroke-linejoin:round;stroke-opacity:1;paint-order:stroke fill markers"
           id="ellipse11422"
           ry="17.00139"
           rx="16.200277"
           cy="186.55109"
           cx="-362.84164"
           d="m -346.64137,186.55109 a 16.200277,17.00139 0 0 1 -16.20027,17.00139 16.200277,17.00139 0 0 1 -16.20028,-17.00139 16.200277,17.00139 0 0 1 16.20028,-17.00139 16.200277,17.00139 0 0 1 16.20027,17.00139 z" />
        <ellipse
           style="fill:#0300ff;fill-opacity:1;fill-rule:evenodd;stroke:none;stroke-width:1.14386;stroke-linecap:round;stroke-linejoin:round;stroke-opacity:1;paint-order:stroke fill markers"
           id="ellipse11424"
           ry="17.00139"
           rx="16.200277"
           cy="186.27277"
           cx="-310.76904"
           d="m -294.56877,186.27277 a 16.200277,17.00139 0 0 1 -16.20027,17.00139 16.200277,17.00139 0 0 1 -16.20028,-17.00139 16.200277,17.00139 0 0 1 16.20028,-17.00139 16.200277,17.00139 0 0 1 16.20027,17.00139 z" />
        <ellipse
           style="fill:#0300ff;fill-opacity:1;fill-rule:evenodd;stroke:none;stroke-width:1.15947;stroke-linecap:round;stroke-linejoin:round;stroke-opacity:1;paint-order:stroke fill markers"
           id="ellipse11426"
           ry="17.00139"
           rx="16.64534"
           cy="233.87076"
           cx="-289.65552"
           d="m -273.01018,233.87076 a 16.64534,17.00139 0 0 1 -16.64534,17.00139 16.64534,17.00139 0 0 1 -16.64534,-17.00139 16.64534,17.00139 0 0 1 16.64534,-17.00139 16.64534,17.00139 0 0 1 16.64534,17.00139 z" />
        <ellipse
           style="fill:#0300ff;fill-opacity:1;fill-rule:evenodd;stroke:none;stroke-width:1.14386;stroke-linecap:round;stroke-linejoin:round;stroke-opacity:1;paint-order:stroke fill markers"
           id="ellipse11428"
           ry="17.00139"
           rx="16.200277"
           cy="280.88181"
           cx="-310.58618"
           d="m -294.3859,280.88181 a 16.200277,17.00139 0 0 1 -16.20028,17.00139 16.200277,17.00139 0 0 1 -16.20028,-17.00139 16.200277,17.00139 0 0 1 16.20028,-17.0014 16.200277,17.00139 0 0 1 16.20028,17.0014 z" />
        <ellipse
           style="fill:#0300ff;fill-opacity:1;fill-rule:evenodd;stroke:none;stroke-width:1.52455;stroke-linecap:round;stroke-linejoin:round;stroke-opacity:1;paint-order:stroke fill markers"
           id="ellipse11430"
           cx="-336.7692"
           cy="233.73485"
           rx="21.986092"
           ry="22.253128"
           d="m -314.7831,233.73485 a 21.986092,22.253128 0 0 1 -21.9861,22.25313 21.986092,22.253128 0 0 1 -21.98609,-22.25313 21.986092,22.253128 0 0 1 21.98609,-22.25313 21.986092,22.253128 0 0 1 21.9861,22.25313 z" />
      </g>
      <path
         id="lpe_path-effect11434"
         class="powerclip"
         d="m -436.6173,142.54655 h 199.26904 V 325.59704 H -436.6173 Z m 90.03025,138.38082 a 16.200277,17.00139 0 0 0 -16.20027,-17.00139 16.200277,17.00139 0 0 0 -16.20028,17.00139 16.200277,17.00139 0 0 0 16.20028,17.00139 16.200277,17.00139 0 0 0 16.20027,-17.00139 z m -21.07022,-47.15601 a 16.200277,17.00139 0 0 0 -16.20027,-17.00139 16.200277,17.00139 0 0 0 -16.20028,17.00139 16.200277,17.00139 0 0 0 16.20028,17.00139 16.200277,17.00139 0 0 0 16.20027,-17.00139 z m 21.0159,-47.22027 a 16.200277,17.00139 0 0 0 -16.20027,-17.00139 16.200277,17.00139 0 0 0 -16.20028,17.00139 16.200277,17.00139 0 0 0 16.20028,17.00139 16.200277,17.00139 0 0 0 16.20027,-17.00139 z m 52.0726,-0.27832 a 16.200277,17.00139 0 0 0 -16.20027,-17.00139 16.200277,17.00139 0 0 0 -16.20028,17.00139 16.200277,17.00139 0 0 0 16.20028,17.00139 16.200277,17.00139 0 0 0 16.20027,-17.00139 z m 21.55859,47.59799 a 16.64534,17.00139 0 0 0 -16.64534,-17.00139 16.64534,17.00139 0 0 0 -16.64534,17.00139 16.64534,17.00139 0 0 0 16.64534,17.00139 16.64534,17.00139 0 0 0 16.64534,-17.00139 z m -21.37572,47.01105 a 16.200277,17.00139 0 0 0 -16.20028,-17.0014 16.200277,17.00139 0 0 0 -16.20028,17.0014 16.200277,17.00139 0 0 0 16.20028,17.00139 16.200277,17.00139 0 0 0 16.20028,-17.00139 z m -20.3972,-47.14696 a 21.986092,22.253128 0 0 0 -21.9861,-22.25313 21.986092,22.253128 0 0 0 -21.98609,22.25313 21.986092,22.253128 0 0 0 21.98609,22.25313 21.986092,22.253128 0 0 0 21.9861,-22.25313 z" />
    </clipPath>
  </defs>
  <g
     inkscape:label="Capa 1"
     inkscape:groupmode="layer"
     id="layer1"
     style="mix-blend-mode:normal">
    <path
       style="fill:#030000;fill-opacity:1;stroke:#000000;stroke-width:2.33854px;stroke-linecap:round;stroke-linejoin:round;stroke-opacity:1"
       d="M 89.00654,46.09185 C 89.88343,19.327264 119.03955,7.5557009 143.47497,1.1692699 l 235.6506,1.699448 C 416.50428,10.44997 419.87851,31.8306 425.7808,47.50802 Z"
       id="path5463"
       sodipodi:nodetypes="ccccc"
       inkscape:export-filename="/home/savantac/Dropbox/Proyecto de grado/Proyecto/img/future2.png"
       inkscape:export-xdpi="96"
       inkscape:export-ydpi="96" />
    <path
       style="fill:#030000;fill-opacity:1;stroke:#000000;stroke-width:2.33854px;stroke-linecap:round;stroke-linejoin:round;stroke-opacity:1"
       d="m 88.63364,463.12521 338.48545,1.00843 c 0,0 -2.87699,35.26698 -54.69725,46.46055 L 139.84476,510.47716 C 91.43558,498.77474 90.08132,474.10038 88.63364,463.12522 Z"
       id="path5859"
       sodipodi:nodetypes="ccccc"
       inkscape:export-filename="/home/savantac/Dropbox/Proyecto de grado/Proyecto/img/future2.png"
       inkscape:export-xdpi="96"
       inkscape:export-ydpi="96" />
    <path
       style="fill:#030001;fill-opacity:1;stroke:#000000;stroke-width:1px;stroke-linecap:butt;stroke-linejoin:miter;stroke-opacity:1"
       d="m -430.73093,283.02625 c 2.25591,17.89921 10.35467,32.3901 35.27141,37.07049 l 118.94622,-0.75529 c 25.57661,-5.63319 28.90984,-18.91254 33.66501,-31.7031 l -0.0376,-108.77847 c -7.77894,-23.53096 -19.39788,-26.46555 -30.7534,-30.81307 l -126.11754,0.36042 c -18.97227,4.20956 -27.98757,17.59725 -31.36029,36.18615 z"
       id="path9052"
       sodipodi:nodetypes="ccccccccc"
       clip-path="url(#clipPath11416)"
       inkscape:path-effect="#path-effect11434"
       inkscape:original-d="m -430.73093,283.02625 c 2.25591,17.89921 10.35467,32.3901 35.27141,37.07049 l 118.94622,-0.75529 c 25.57661,-5.63319 28.90984,-18.91254 33.66501,-31.7031 l -0.0376,-108.77847 c -7.77894,-23.53096 -19.39788,-26.46555 -30.7534,-30.81307 l -126.11754,0.36042 c -18.97227,4.20956 -27.98757,17.59725 -31.36029,36.18615 z"
       transform="matrix(2.705144,0,0,2.0216293,1167.5869,-215.62212)"
       inkscape:export-filename="/home/savantac/Dropbox/Proyecto de grado/Proyecto/img/future2.png"
       inkscape:export-xdpi="96"
       inkscape:export-ydpi="96" />
  </g>
</svg>
