<?xml version="1.0" encoding="UTF-8"?><svg xmlns="http://www.w3.org/2000/svg" xmlns:xlink="http://www.w3.org/1999/xlink" height="267.1" preserveAspectRatio="xMidYMid meet" version="1.0" viewBox="0.0 0.0 200.0 267.1" width="200.0" zoomAndPan="magnify"><g><g id="change1_1"><path d="M2.04,0.32v266.5H200V0.32H2.04z M18.86,226.82c-3.91,0-7.08-3.2-7.08-7.16c0-3.95,3.17-7.16,7.08-7.16 s7.08,3.2,7.08,7.16C25.95,223.62,22.78,226.82,18.86,226.82z M18.86,140.41c-3.91,0-7.08-3.2-7.08-7.16 c0-3.95,3.17-7.16,7.08-7.16s7.08,3.2,7.08,7.16C25.95,137.2,22.78,140.41,18.86,140.41z M18.86,53.99c-3.91,0-7.08-3.2-7.08-7.16 s3.17-7.16,7.08-7.16s7.08,3.2,7.08,7.16S22.78,53.99,18.86,53.99z" fill="#AFAEAE"/></g><g id="change2_1"><path d="M0,0v267.14h200V0H0z M17,227.05c-3.95,0-7.16-3.21-7.16-7.17c0-3.96,3.2-7.17,7.16-7.17 s7.16,3.21,7.16,7.17C24.16,223.84,20.95,227.05,17,227.05z M17,140.42c-3.95,0-7.16-3.21-7.16-7.17c0-3.96,3.2-7.17,7.16-7.17 s7.16,3.21,7.16,7.17C24.16,137.21,20.95,140.42,17,140.42z M17,53.8c-3.95,0-7.16-3.21-7.16-7.17s3.2-7.17,7.16-7.17 s7.16,3.21,7.16,7.17S20.95,53.8,17,53.8z" fill="#EAEAEA"/></g><g id="change3_1"><path d="M0 34.12H200V35.82H0z" fill="#83D1DC"/></g><g id="change3_2"><path d="M0 63.04H200V64.74H0z" fill="#83D1DC"/></g><g id="change3_3"><path d="M0 72.68H200V74.38000000000001H0z" fill="#83D1DC"/></g><g id="change3_4"><path d="M0 82.32H200V84.02H0z" fill="#83D1DC"/></g><g id="change3_5"><path d="M0 91.95H200V93.65H0z" fill="#83D1DC"/></g><g id="change3_6"><path d="M0 101.59H200V103.29H0z" fill="#83D1DC"/></g><g id="change3_7"><path d="M0 111.23H200V112.93H0z" fill="#83D1DC"/></g><g id="change3_8"><path d="M0 120.87H200V122.57000000000001H0z" fill="#83D1DC"/></g><g id="change3_9"><path d="M0 149.79H200V151.48999999999998H0z" fill="#83D1DC"/></g><g id="change3_10"><path d="M0 159.42H200V161.11999999999998H0z" fill="#83D1DC"/></g><g id="change3_11"><path d="M0 169.06H200V170.76H0z" fill="#83D1DC"/></g><g id="change3_12"><path d="M0 178.7H200V180.39999999999998H0z" fill="#83D1DC"/></g><g id="change3_13"><path d="M0 188.34H200V190.04H0z" fill="#83D1DC"/></g><g id="change3_14"><path d="M0 197.98H200V199.67999999999998H0z" fill="#83D1DC"/></g><g fill="#83D1DC" id="change3_23"><path d="M10.7,43.76H0v1.7h10.06C10.2,44.86,10.41,44.29,10.7,43.76z"/><path d="M23.3,43.76c0.29,0.53,0.5,1.1,0.64,1.7H200v-1.7H23.3z"/></g><g id="change3_15"><path d="M20.49,53.4c-1.03,0.58-2.22,0.91-3.49,0.91s-2.46-0.33-3.49-0.91H0v1.7h200v-1.7H20.49z" fill="#83D1DC"/></g><g fill="#83D1DC" id="change3_24"><path d="M10.54,130.51H0v1.7h9.98C10.09,131.61,10.29,131.04,10.54,130.51z"/><path d="M23.46,130.51c0.25,0.53,0.45,1.1,0.56,1.7H200v-1.7H23.46z"/></g><g id="change3_16"><path d="M19.83,140.15c-0.87,0.37-1.82,0.58-2.83,0.58s-1.96-0.21-2.83-0.58H0v1.7h200v-1.7H19.83z" fill="#83D1DC"/></g><g fill="#83D1DC" id="change3_22"><path d="M10.39,217.26H0v1.7h9.93C10.01,218.36,10.16,217.79,10.39,217.26z"/><path d="M23.61,217.26c0.22,0.53,0.37,1.1,0.46,1.7H200v-1.7H23.61z"/></g><g id="change3_17"><path d="M18.85,226.89c-0.59,0.16-1.21,0.25-1.85,0.25s-1.26-0.09-1.85-0.25H0v1.7h200v-1.7H18.85z" fill="#83D1DC"/></g><g id="change3_18"><path d="M0 207.62H200V209.32H0z" fill="#83D1DC"/></g><g id="change3_19"><path d="M0 236.53H200V238.23H0z" fill="#83D1DC"/></g><g id="change3_20"><path d="M0 246.17H200V247.86999999999998H0z" fill="#83D1DC"/></g><g id="change3_21"><path d="M0 255.81H200V257.51H0z" fill="#83D1DC"/></g><g id="change4_1"><path d="M29.66 0.64H31.83V267.14H29.66z" fill="#D64243"/></g></g></svg>